<?xml version="1.0" standalone="no"?>
<!DOCTYPE svg PUBLIC "-//W3C//DTD SVG 20010904//EN"
 "http://www.w3.org/TR/2001/REC-SVG-20010904/DTD/svg10.dtd">
<svg version="1.0" xmlns="http://www.w3.org/2000/svg"
 width="512.000000pt" height="512.000000pt" viewBox="0 0 512.000000 512.000000"
 preserveAspectRatio="xMidYMid meet">

<g transform="translate(0.000000,512.000000) scale(0.100000,-0.100000)"
fill="#000000" stroke="none">
<path d="M4284 4868 c-12 -5 -27 -21 -33 -34 -15 -34 -15 -753 0 -787 11 -25
47 -47 75 -47 9 0 29 13 45 29 l29 29 0 376 c0 254 -4 383 -11 399 -11 24 -48
48 -72 46 -7 0 -22 -5 -33 -11z"/>
<path d="M4604 4868 c-12 -5 -27 -21 -33 -34 -8 -18 -11 -228 -11 -707 l-1
-682 -32 -60 -32 -60 -85 -13 c-69 -10 -89 -17 -107 -38 -38 -42 -30 -69 44
-145 l66 -69 -13 -99 c-12 -90 -11 -102 4 -125 29 -45 61 -44 153 5 l83 44 83
-44 c92 -49 124 -50 153 -5 15 23 16 35 4 125 l-13 100 61 62 c74 74 86 110
50 150 -19 23 -37 29 -108 40 l-85 13 -32 59 -32 60 -1 682 c0 478 -3 689 -11
706 -11 24 -48 48 -72 46 -7 0 -22 -5 -33 -11z m54 -1643 c11 -23 27 -34 74
-49 16 -5 15 -9 -8 -43 -20 -30 -24 -45 -19 -72 6 -30 4 -33 -12 -25 -23 10
-83 10 -106 0 -16 -8 -18 -5 -12 25 5 27 1 42 -19 72 -23 34 -24 38 -8 43 47
15 63 26 74 49 6 14 14 25 18 25 4 0 12 -11 18 -25z"/>
<path d="M351 4790 c-203 -42 -295 -287 -171 -459 34 -47 108 -98 154 -107
l31 -5 0 -112 c0 -91 4 -126 24 -185 133 -407 651 -534 950 -233 120 120 175
260 170 433 l-3 98 52 26 c174 87 213 332 74 467 -125 122 -333 108 -435 -30
-38 -51 -39 -51 -70 -38 -56 22 -174 37 -240 30 -55 -6 -138 -28 -189 -50 -12
-5 -21 1 -32 23 -53 102 -195 166 -315 142z m131 -167 c37 -22 68 -80 68 -128
0 -41 36 -85 70 -85 12 0 51 18 88 40 83 50 147 70 228 70 68 0 172 -28 219
-60 43 -29 89 -26 114 6 12 15 21 36 21 46 0 35 31 87 65 108 88 54 205 -9
205 -110 0 -78 -67 -140 -151 -140 -79 0 -106 -50 -74 -139 18 -53 31 -183 16
-161 -10 13 -11 13 -11 0 0 -8 -11 -39 -25 -68 -126 -270 -487 -326 -686 -105
-44 48 -75 100 -85 138 -8 30 -8 30 -14 5 -3 -13 -6 11 -7 55 -1 55 4 97 18
137 25 75 24 94 -6 124 -23 23 -30 24 -88 18 -49 -5 -71 -3 -96 10 -64 33 -90
121 -56 187 33 63 124 88 187 52z m865 -615 c-3 -8 -6 -5 -6 6 -1 11 2 17 5
13 3 -3 4 -12 1 -19z m-702 -198 c21 -22 37 -40 34 -40 -3 0 -23 18 -44 40
-21 22 -37 40 -34 40 3 0 23 -18 44 -40z m555 -34 c0 -2 -8 -10 -17 -17 -16
-13 -17 -12 -4 4 13 16 21 21 21 13z m-277 -93 c-7 -2 -21 -2 -30 0 -10 3 -4
5 12 5 17 0 24 -2 18 -5z m65 0 c-10 -2 -26 -2 -35 0 -10 3 -2 5 17 5 19 0 27
-2 18 -5z"/>
<path d="M863 4326 c-27 -23 -28 -28 -31 -132 -5 -152 1 -167 104 -253 98 -81
135 -91 179 -46 45 44 30 88 -56 159 l-59 49 0 89 c0 89 -9 122 -39 145 -26
20 -68 15 -98 -11z"/>
<path d="M2423 4780 c-65 -39 -63 -22 -63 -625 0 -599 -1 -588 60 -620 25 -13
102 -15 537 -15 486 0 509 1 540 20 65 39 63 23 63 620 0 597 2 581 -63 620
-31 19 -54 20 -537 20 -483 0 -506 -1 -537 -20z m977 -302 l0 -163 -186 -203
c-103 -112 -190 -200 -193 -195 -187 226 -217 231 -372 57 -52 -58 -102 -116
-111 -128 -17 -20 -18 -1 -18 387 l0 407 440 0 440 0 0 -162z m0 -558 l0 -160
-89 0 c-89 0 -90 0 -111 31 -13 18 -28 28 -36 25 -8 -3 41 55 108 129 68 74
124 135 126 135 1 0 2 -72 2 -160z m-503 -95 l61 -70 -148 0 -147 0 75 83 c60
66 78 80 87 70 6 -7 39 -44 72 -83z m283 -80 c13 -14 21 -25 18 -25 -2 0 -15
11 -28 25 -13 14 -21 25 -18 25 2 0 15 -11 28 -25z m-184 -37 l29 -33 -32 29
c-31 28 -38 36 -30 36 2 0 16 -15 33 -32z m-346 19 c0 -2 -12 -14 -27 -28
l-28 -24 24 28 c23 25 31 32 31 24z"/>
<path d="M2985 4335 c-16 -15 -25 -36 -25 -55 0 -19 9 -40 25 -55 15 -16 36
-25 55 -25 19 0 40 9 55 25 16 15 25 36 25 55 0 19 -9 40 -25 55 -15 16 -36
25 -55 25 -19 0 -40 -9 -55 -25z"/>
<path d="M423 2785 c-17 -7 -38 -24 -47 -37 -8 -13 -61 -156 -116 -318 -111
-323 -113 -338 -61 -391 15 -15 45 -31 65 -34 36 -7 36 -8 29 -44 -16 -73 -8
-164 20 -224 l26 -57 -102 0 c-130 0 -180 -21 -214 -90 l-23 -44 0 -586 0
-586 22 -44 c17 -33 35 -51 68 -67 44 -23 45 -23 550 -23 505 0 506 0 550 23
33 16 51 34 68 67 l22 44 0 586 0 586 -22 44 c-35 69 -85 90 -215 90 l-102 0
26 57 c28 60 36 151 20 224 -7 36 -7 37 29 44 20 3 50 19 65 34 52 53 50 68
-61 391 -56 162 -108 306 -116 318 -29 44 -69 52 -266 52 -133 -1 -192 -5
-215 -15z m361 -154 c3 -4 41 -112 85 -240 l80 -231 -309 0 -309 0 80 231 c44
128 82 236 85 240 7 12 281 12 288 0z m40 -671 c55 -138 -39 -280 -184 -280
-145 0 -239 142 -184 280 l16 40 168 0 168 0 16 -40z m296 -680 l0 -240 -480
0 -480 0 0 240 0 240 480 0 480 0 0 -240z m0 -640 l0 -240 -480 0 -480 0 0
240 0 240 480 0 480 0 0 -240z"/>
<path d="M585 1335 c-50 -49 -15 -135 55 -135 19 0 40 9 55 25 16 15 25 36 25
55 0 19 -9 40 -25 55 -15 16 -36 25 -55 25 -19 0 -40 -9 -55 -25z"/>
<path d="M603 708 c-55 -27 -50 -114 8 -138 89 -37 151 99 63 139 -30 13 -42
13 -71 -1z"/>
<path d="M3205 2794 c-261 -27 -512 -118 -694 -254 -96 -71 -222 -204 -284
-296 l-47 -72 -122 -4 c-135 -5 -178 -19 -229 -75 -61 -65 -64 -77 -67 -335
l-3 -236 -28 -12 c-16 -6 -33 -23 -40 -36 -7 -17 -11 -123 -11 -322 0 -290 -1
-298 -21 -310 -44 -28 -59 -86 -59 -234 0 -80 5 -147 11 -161 17 -38 50 -47
164 -47 l105 0 0 -45 c0 -58 16 -91 51 -106 22 -9 36 -9 58 0 35 15 51 48 51
106 l0 45 1320 0 1320 0 0 -45 c0 -58 16 -91 51 -106 22 -9 36 -9 58 0 35 15
51 48 51 106 l0 45 105 0 c114 0 147 9 164 47 6 14 11 81 11 161 0 148 -15
206 -59 234 -20 12 -21 20 -21 310 0 199 -4 305 -11 322 -7 13 -24 30 -40 36
l-28 12 -3 236 c-3 258 -6 270 -67 335 -51 56 -94 70 -229 75 l-122 4 -47 72
c-103 155 -279 311 -449 398 -198 102 -386 147 -639 153 -88 2 -178 1 -200 -1z
m460 -179 c150 -34 290 -92 414 -172 84 -55 259 -236 301 -312 19 -36 47 -77
62 -93 l26 -28 143 0 c202 0 189 19 189 -267 l0 -223 -180 0 -180 0 -1 138 c0
221 -18 245 -184 250 l-103 4 -35 51 c-112 168 -287 292 -493 349 -68 19 -104
22 -264 22 -160 0 -196 -3 -264 -22 -206 -57 -381 -181 -493 -349 l-35 -51
-103 -4 c-166 -5 -184 -29 -184 -250 l-1 -138 -180 0 -180 0 0 222 c0 286 -13
268 188 268 l144 0 26 28 c15 16 43 57 62 92 43 76 176 221 268 288 126 94
313 173 477 201 33 6 71 13 85 15 60 11 427 -3 495 -19z m-98 -450 c187 -44
352 -166 449 -332 22 -38 48 -69 62 -74 13 -5 64 -9 113 -9 l89 0 0 -115 0
-115 -920 0 -920 0 0 115 0 115 89 0 c49 0 101 4 114 9 14 5 37 33 54 63 112
198 302 325 535 358 82 11 256 4 335 -15z m1313 -1045 l0 -240 -1520 0 -1520
0 0 240 0 240 1520 0 1520 0 0 -240z m80 -440 l0 -40 -1600 0 -1600 0 0 40 0
40 1600 0 1600 0 0 -40z"/>
<path d="M2062 1175 c-7 -14 -20 -25 -31 -25 -26 0 -34 -15 -16 -30 8 -7 15
-28 15 -47 0 -30 3 -34 18 -28 9 5 24 8 32 8 8 0 23 -3 33 -8 14 -6 17 -2 17
28 0 19 7 40 15 47 18 15 10 30 -16 30 -11 0 -24 11 -31 25 -6 14 -14 25 -18
25 -4 0 -12 -11 -18 -25z"/>
<path d="M2382 1175 c-7 -14 -20 -25 -31 -25 -26 0 -34 -15 -16 -30 8 -7 15
-28 15 -47 0 -30 3 -34 18 -28 9 5 24 8 32 8 8 0 23 -3 33 -8 14 -6 17 -2 17
28 0 19 7 40 15 47 18 15 10 30 -16 30 -11 0 -24 11 -31 25 -6 14 -14 25 -18
25 -4 0 -12 -11 -18 -25z"/>
<path d="M2702 1175 c-7 -14 -20 -25 -31 -25 -26 0 -34 -15 -16 -30 8 -7 15
-28 15 -47 0 -30 3 -34 18 -28 9 5 24 8 32 8 8 0 23 -3 33 -8 14 -6 17 -2 17
28 0 19 7 40 15 47 18 15 10 30 -16 30 -11 0 -24 11 -31 25 -6 14 -14 25 -18
25 -4 0 -12 -11 -18 -25z"/>
<path d="M3022 1175 c-7 -14 -20 -25 -31 -25 -26 0 -34 -15 -16 -30 8 -7 15
-28 15 -47 0 -30 3 -34 18 -28 9 5 24 8 32 8 8 0 23 -3 33 -8 14 -6 17 -2 17
28 0 19 7 40 15 47 18 15 10 30 -16 30 -11 0 -24 11 -31 25 -6 14 -14 25 -18
25 -4 0 -12 -11 -18 -25z"/>
<path d="M3342 1175 c-7 -14 -20 -25 -31 -25 -26 0 -34 -15 -16 -30 8 -7 15
-28 15 -47 0 -30 3 -34 18 -28 9 5 24 8 32 8 8 0 23 -3 33 -8 14 -6 17 -2 17
28 0 19 7 40 15 47 18 15 10 30 -16 30 -11 0 -24 11 -31 25 -6 14 -14 25 -18
25 -4 0 -12 -11 -18 -25z"/>
<path d="M3662 1175 c-7 -14 -20 -25 -31 -25 -26 0 -34 -15 -16 -30 8 -7 15
-28 15 -47 0 -30 3 -34 18 -28 9 5 24 8 32 8 8 0 23 -3 33 -8 14 -6 17 -2 17
28 0 19 7 40 15 47 18 15 10 30 -16 30 -11 0 -24 11 -31 25 -6 14 -14 25 -18
25 -4 0 -12 -11 -18 -25z"/>
<path d="M3982 1175 c-7 -14 -20 -25 -31 -25 -26 0 -34 -15 -16 -30 8 -7 15
-28 15 -47 0 -30 3 -34 18 -28 9 5 24 8 32 8 8 0 23 -3 33 -8 14 -6 17 -2 17
28 0 19 7 40 15 47 18 15 10 30 -16 30 -11 0 -24 11 -31 25 -6 14 -14 25 -18
25 -4 0 -12 -11 -18 -25z"/>
<path d="M4302 1175 c-7 -14 -20 -25 -31 -25 -26 0 -34 -15 -16 -30 8 -7 15
-28 15 -47 0 -30 3 -34 18 -28 9 5 24 8 32 8 8 0 23 -3 33 -8 14 -6 17 -2 17
28 0 19 7 40 15 47 18 15 10 30 -16 30 -11 0 -24 11 -31 25 -6 14 -14 25 -18
25 -4 0 -12 -11 -18 -25z"/>
<path d="M4622 1175 c-7 -14 -20 -25 -31 -25 -26 0 -34 -15 -16 -30 8 -7 15
-28 15 -47 0 -30 3 -34 18 -28 9 5 24 8 32 8 8 0 23 -3 33 -8 14 -6 17 -2 17
28 0 19 7 40 15 47 18 15 10 30 -16 30 -11 0 -24 11 -31 25 -6 14 -14 25 -18
25 -4 0 -12 -11 -18 -25z"/>
</g>
</svg>
