<svg version="1.1" id="Layer_1" xmlns="http://www.w3.org/2000/svg" xmlns:xlink="http://www.w3.org/1999/xlink" x="0px" y="0px"
	 width="100%" viewBox="0 0 512 512" enable-background="new 0 0 512 512" xml:space="preserve">
<path fill="#000000" opacity="1.000000" stroke="none" 
	d="
M299.000000,513.000000 
	C199.357529,513.000000 100.215050,513.000000 1.036289,513.000000 
	C1.036289,342.399170 1.036289,171.798325 1.036289,1.098744 
	C171.559158,1.098744 342.118378,1.098744 512.838806,1.098744 
	C512.838806,171.666550 512.838806,342.333252 512.838806,513.000000 
	C441.798309,513.000000 370.649139,513.000000 299.000000,513.000000 
M363.948212,206.110794 
	C363.948212,202.660034 363.948212,199.209274 363.948212,196.168442 
	C353.018158,196.168442 342.639801,196.168442 332.309326,196.168442 
	C332.309326,212.555099 332.309326,228.133484 332.309326,243.830460 
	C336.088318,243.830460 339.558167,243.830460 343.951874,243.973984 
	C350.537445,243.973984 357.123047,243.973984 363.801178,243.973984 
	C363.801178,231.248337 363.801178,219.135498 363.948212,206.110794 
M181.979553,207.103073 
	C181.979553,203.653351 181.979553,200.203629 181.979553,196.067657 
	C171.124664,196.067657 160.762543,196.067657 150.334320,196.067657 
	C150.334320,211.892029 150.334320,227.783142 150.334320,243.827713 
	C154.101654,243.827713 157.566422,243.827713 161.953949,243.971176 
	C168.547150,243.971176 175.140335,243.971176 181.838760,243.971176 
	C181.838760,231.598038 181.838760,219.808060 181.979553,207.103073 
M354.947266,397.195892 
	C353.992920,393.515228 353.038574,389.834595 351.996948,385.817383 
	C349.841339,385.817383 347.871124,385.817352 345.900909,385.817352 
	C288.362885,385.817352 230.824844,385.817352 173.286804,385.817352 
	C161.215439,385.817352 161.215439,385.817383 158.745148,398.668823 
	C157.761551,402.484833 156.777939,406.300873 155.724915,410.386230 
	C223.471588,410.386230 290.621979,410.386230 358.362091,410.386230 
	C357.117767,405.919739 356.012756,401.953308 354.947266,397.195892 
M155.824600,351.503235 
	C157.042526,347.250061 158.260452,342.996857 159.639832,338.179840 
	C144.387482,338.179840 129.920975,338.105713 115.458824,338.321686 
	C114.311546,338.338837 112.483429,340.200165 112.181175,341.488251 
	C110.510941,348.606201 109.203629,355.809784 107.797447,362.989044 
	C107.037666,366.868103 105.228043,369.643860 101.113831,370.837006 
	C99.671738,371.255280 98.012772,372.777161 97.508667,374.175690 
	C96.585533,376.736725 96.268494,379.567902 96.070625,382.313263 
	C95.991623,383.409424 96.592072,385.217712 97.406372,385.606659 
	C102.398956,387.991425 102.362785,392.077667 101.805183,396.636658 
	C98.594803,422.885040 95.275955,449.122803 92.427361,475.411133 
	C91.632431,482.747101 92.306175,490.242188 92.306175,497.848969 
	C96.739395,497.848969 101.373634,497.848969 106.932503,497.981781 
	C111.722343,497.981781 116.512184,497.981781 121.365318,497.981781 
	C121.641777,496.943237 121.835396,496.331604 121.966438,495.706848 
	C126.536713,473.918640 130.691833,452.033234 135.771484,430.364563 
	C141.910934,404.174927 148.832748,378.168732 155.824600,351.503235 
M403.910156,351.223083 
	C403.223724,347.799652 402.757385,344.308105 401.731110,340.989777 
	C401.373260,339.832703 399.643219,338.312073 398.523071,338.298065 
	C384.058105,338.116974 369.590088,338.178223 355.791260,338.178223 
	C368.470856,391.483490 381.096313,444.561127 393.767212,497.829803 
	C397.392944,497.829803 401.712280,497.829803 406.953064,497.972382 
	C412.053436,497.972382 417.153809,497.972382 422.417938,497.972382 
	C422.417938,496.543152 422.485504,495.720520 422.408142,494.911774 
	C419.699188,466.594482 417.562561,438.205658 414.053955,409.987457 
	C411.636658,390.545898 407.316406,371.340973 403.910156,351.223083 
M152.077408,259.021027 
	C135.444962,259.014618 118.812134,258.938538 102.180199,259.027222 
	C91.755356,259.082794 83.414970,266.755829 83.090668,276.864716 
	C82.786835,286.335297 82.806992,295.829742 83.086540,305.301819 
	C83.370071,314.908875 91.117882,322.911987 100.629265,323.039154 
	C118.082245,323.272522 135.541870,323.009399 153.920227,323.138458 
	C239.696335,323.151459 325.472443,323.185577 411.248535,323.152893 
	C423.113312,323.148376 430.883820,315.243378 430.986969,303.392120 
	C431.050781,296.064209 431.001587,288.735291 430.999359,281.406830 
	C430.994720,266.211060 423.861908,259.001587 408.823792,259.001343 
	C325.379272,259.000092 241.934738,258.999695 158.490204,259.007660 
	C156.661942,259.007812 154.833664,259.111084 152.077408,259.021027 
M130.797470,179.456116 
	C132.291214,179.569809 133.783768,179.763382 135.278870,179.785614 
	C187.577698,180.563263 239.875977,181.820312 292.176086,181.903061 
	C323.640594,181.952850 355.125702,180.542435 386.566803,179.054367 
	C402.471832,178.301590 414.942657,166.028732 417.092804,150.252075 
	C421.615082,117.070412 421.548401,83.797554 417.484894,50.594185 
	C415.246979,32.307907 402.334473,19.977425 385.581543,19.027838 
	C377.765320,18.584799 369.939667,18.287991 362.115082,18.017761 
	C354.904358,17.768732 353.496735,16.856445 351.063660,10.428197 
	C349.492157,10.006390 347.914429,9.158191 346.403381,9.263741 
	C343.020386,9.500044 337.589966,9.164441 336.702881,10.927807 
	C334.184845,15.933369 330.778351,17.043959 325.884521,16.952095 
	C305.564026,16.570654 285.233032,15.802408 264.920746,16.121279 
	C219.956680,16.827143 175.001541,18.102856 129.196991,19.004066 
	C112.307182,20.081074 99.295700,31.719084 96.877220,48.325657 
	C95.751442,56.055866 95.016342,63.863483 94.530006,71.662567 
	C92.868217,98.311340 93.135918,124.940102 97.059822,151.393250 
	C99.423752,167.329773 113.986938,179.234299 130.797470,179.456116 
z"/>
<path fill="#EDDC54" opacity="1.000000" stroke="none" 
	d="
M130.042770,19.146156 
	C175.001541,18.102856 219.956680,16.827143 264.920746,16.121279 
	C285.233032,15.802408 305.564026,16.570654 325.884521,16.952095 
	C330.778351,17.043959 334.184845,15.933369 336.702881,10.927807 
	C337.589966,9.164441 343.020386,9.500044 346.403381,9.263741 
	C347.914429,9.158191 349.492157,10.006390 351.063660,10.428197 
	C353.496735,16.856445 354.904358,17.768732 362.115082,18.017761 
	C369.939667,18.287991 377.765320,18.584799 385.581543,19.027838 
	C402.334473,19.977425 415.246979,32.307907 417.484894,50.594185 
	C421.548401,83.797554 421.615082,117.070412 417.092804,150.252075 
	C414.942657,166.028732 402.471832,178.301590 386.566803,179.054367 
	C355.125702,180.542435 323.640594,181.952850 292.176086,181.903061 
	C239.875977,181.820312 187.577698,180.563263 135.278870,179.785614 
	C133.783768,179.763382 132.291214,179.569809 130.258453,178.993927 
	C124.137695,171.976776 119.519211,164.777252 118.379326,156.141434 
	C116.883995,144.812698 115.331764,133.400391 115.178955,122.005600 
	C114.909546,101.914612 115.312477,81.793640 116.187263,61.718044 
	C116.566086,53.024342 117.972191,44.155376 120.499664,35.849232 
	C122.319847,29.867451 126.767242,24.685097 130.042770,19.146156 
z"/>
<path fill="#EDDC54" opacity="1.000000" stroke="none" 
	d="
M153.005402,259.166229 
	C154.833664,259.111084 156.661942,259.007812 158.490204,259.007660 
	C241.934738,258.999695 325.379272,259.000092 408.823792,259.001343 
	C423.861908,259.001587 430.994720,266.211060 430.999359,281.406830 
	C431.001587,288.735291 431.050781,296.064209 430.986969,303.392120 
	C430.883820,315.243378 423.113312,323.148376 411.248535,323.152893 
	C325.472443,323.185577 239.696335,323.151459 153.284943,322.759705 
	C150.435287,317.854401 146.981857,313.511658 146.276978,308.761139 
	C145.000214,300.156403 145.031311,291.304688 145.133850,282.563293 
	C145.233902,274.037079 146.771805,265.746552 153.005402,259.166229 
z"/>
<path fill="#EAB14D" opacity="1.000000" stroke="none" 
	d="
M152.541412,259.093628 
	C146.771805,265.746552 145.233902,274.037079 145.133850,282.563293 
	C145.031311,291.304688 145.000214,300.156403 146.276978,308.761139 
	C146.981857,313.511658 150.435287,317.854401 152.824188,322.667114 
	C135.541870,323.009399 118.082245,323.272522 100.629265,323.039154 
	C91.117882,322.911987 83.370071,314.908875 83.086540,305.301819 
	C82.806992,295.829742 82.786835,286.335297 83.090668,276.864716 
	C83.414970,266.755829 91.755356,259.082794 102.180199,259.027222 
	C118.812134,258.938538 135.444962,259.014618 152.541412,259.093628 
z"/>
<path fill="#D8A788" opacity="1.000000" stroke="none" 
	d="
M403.846649,352.030273 
	C407.316406,371.340973 411.636658,390.545898 414.053955,409.987457 
	C417.562561,438.205658 419.699188,466.594482 422.408142,494.911774 
	C422.485504,495.720520 422.417938,496.543152 422.417938,497.972382 
	C417.153809,497.972382 412.053436,497.972382 406.482239,497.488495 
	C405.963562,496.174347 406.013214,495.324860 405.853912,494.516571 
	C396.790924,448.526794 386.686554,402.780853 373.757141,357.697784 
	C372.370026,352.861084 372.910736,352.060638 377.885284,352.030365 
	C386.538757,351.977661 395.192841,352.024902 403.846649,352.030273 
z"/>
<path fill="#D8A788" opacity="1.000000" stroke="none" 
	d="
M155.415970,352.083130 
	C148.832748,378.168732 141.910934,404.174927 135.771484,430.364563 
	C130.691833,452.033234 126.536713,473.918640 121.966438,495.706848 
	C121.835396,496.331604 121.641777,496.943237 121.365318,497.981781 
	C116.512184,497.981781 111.722343,497.981781 106.461166,497.456543 
	C107.361504,476.245972 107.769913,455.439697 110.347351,434.905670 
	C113.609642,408.915466 118.710625,383.158539 122.823067,357.269897 
	C123.445534,353.351379 124.980286,351.848511 128.951828,351.950806 
	C137.768509,352.177856 146.594040,352.060242 155.415970,352.083130 
z"/>
<path fill="#E9B04D" opacity="1.000000" stroke="none" 
	d="
M129.619873,19.075111 
	C126.767242,24.685097 122.319847,29.867451 120.499664,35.849232 
	C117.972191,44.155376 116.566086,53.024342 116.187263,61.718044 
	C115.312477,81.793640 114.909546,101.914612 115.178955,122.005600 
	C115.331764,133.400391 116.883995,144.812698 118.379326,156.141434 
	C119.519211,164.777252 124.137695,171.976776 129.877899,178.838699 
	C113.986938,179.234299 99.423752,167.329773 97.059822,151.393250 
	C93.135918,124.940102 92.868217,98.311340 94.530006,71.662567 
	C95.016342,63.863483 95.751442,56.055866 96.877220,48.325657 
	C99.295700,31.719084 112.307182,20.081074 129.619873,19.075111 
z"/>
<path fill="#CE916C" opacity="1.000000" stroke="none" 
	d="
M155.620285,351.793213 
	C146.594040,352.060242 137.768509,352.177856 128.951828,351.950806 
	C124.980286,351.848511 123.445534,353.351379 122.823067,357.269897 
	C118.710625,383.158539 113.609642,408.915466 110.347351,434.905670 
	C107.769913,455.439697 107.361504,476.245972 105.998848,497.390137 
	C101.373634,497.848969 96.739395,497.848969 92.306175,497.848969 
	C92.306175,490.242188 91.632431,482.747101 92.427361,475.411133 
	C95.275955,449.122803 98.594803,422.885040 101.805183,396.636658 
	C102.362785,392.077667 102.398956,387.991425 97.406372,385.606659 
	C96.592072,385.217712 95.991623,383.409424 96.070625,382.313263 
	C96.268494,379.567902 96.585533,376.736725 97.508667,374.175690 
	C98.012772,372.777161 99.671738,371.255280 101.113831,370.837006 
	C105.228043,369.643860 107.037666,366.868103 107.797447,362.989044 
	C109.203629,355.809784 110.510941,348.606201 112.181175,341.488251 
	C112.483429,340.200165 114.311546,338.338837 115.458824,338.321686 
	C129.920975,338.105713 144.387482,338.179840 159.639832,338.179840 
	C158.260452,342.996857 157.042526,347.250061 155.620285,351.793213 
z"/>
<path fill="#CD906C" opacity="1.000000" stroke="none" 
	d="
M403.878418,351.626648 
	C395.192841,352.024902 386.538757,351.977661 377.885284,352.030365 
	C372.910736,352.060638 372.370026,352.861084 373.757141,357.697784 
	C386.686554,402.780853 396.790924,448.526794 405.853912,494.516571 
	C406.013214,495.324860 405.963562,496.174347 406.021484,497.417206 
	C401.712280,497.829803 397.392944,497.829803 393.767212,497.829803 
	C381.096313,444.561127 368.470856,391.483490 355.791260,338.178223 
	C369.590088,338.178223 384.058105,338.116974 398.523071,338.298065 
	C399.643219,338.312073 401.373260,339.832703 401.731110,340.989777 
	C402.757385,344.308105 403.223724,347.799652 403.878418,351.626648 
z"/>
<path fill="#CA8E6A" opacity="1.000000" stroke="none" 
	d="
M354.907776,397.986908 
	C356.012756,401.953308 357.117767,405.919739 358.362091,410.386230 
	C290.621979,410.386230 223.471588,410.386230 155.724915,410.386230 
	C156.777939,406.300873 157.761551,402.484833 159.379425,398.336487 
	C224.978394,397.998383 289.943085,397.992645 354.907776,397.986908 
z"/>
<path fill="#D9A889" opacity="1.000000" stroke="none" 
	d="
M354.927521,397.591400 
	C289.943085,397.992645 224.978394,397.998383 159.550781,397.995361 
	C161.215439,385.817383 161.215439,385.817352 173.286804,385.817352 
	C230.824844,385.817352 288.362885,385.817352 345.900909,385.817352 
	C347.871124,385.817352 349.841339,385.817383 351.996948,385.817383 
	C353.038574,389.834595 353.992920,393.515228 354.927521,397.591400 
z"/>
<path fill="#CE916C" opacity="1.000000" stroke="none" 
	d="
M161.031189,243.827713 
	C157.566422,243.827713 154.101654,243.827713 150.334320,243.827713 
	C150.334320,227.783142 150.334320,211.892029 150.334320,196.067657 
	C160.762543,196.067657 171.124664,196.067657 181.979553,196.067657 
	C181.979553,200.203629 181.979553,203.653351 181.454041,207.553894 
	C176.155029,207.731735 171.358322,207.662659 166.615189,207.122833 
	C162.645325,206.671005 160.837372,207.633270 160.938293,212.053070 
	C161.180069,222.639816 161.025665,233.235580 161.031189,243.827713 
z"/>
<path fill="#D8A788" opacity="1.000000" stroke="none" 
	d="
M363.801178,207.022644 
	C363.801178,219.135498 363.801178,231.248337 363.801178,243.973984 
	C357.123047,243.973984 350.537445,243.973984 343.485016,243.444427 
	C343.014954,233.119141 343.272186,223.313538 342.900879,213.531799 
	C342.709503,208.489044 345.065704,207.056396 349.356964,207.037277 
	C354.171631,207.015839 358.986420,207.026154 363.801178,207.022644 
z"/>
<path fill="#CF916C" opacity="1.000000" stroke="none" 
	d="
M363.874695,206.566727 
	C358.986420,207.026154 354.171631,207.015839 349.356964,207.037277 
	C345.065704,207.056396 342.709503,208.489044 342.900879,213.531799 
	C343.272186,223.313538 343.014954,233.119141 343.023071,243.372650 
	C339.558167,243.830460 336.088318,243.830460 332.309326,243.830460 
	C332.309326,228.133484 332.309326,212.555099 332.309326,196.168442 
	C342.639801,196.168442 353.018158,196.168442 363.948212,196.168442 
	C363.948212,199.209274 363.948212,202.660034 363.874695,206.566727 
z"/>
<path fill="#D9A889" opacity="1.000000" stroke="none" 
	d="
M161.492569,243.899445 
	C161.025665,233.235580 161.180069,222.639816 160.938293,212.053070 
	C160.837372,207.633270 162.645325,206.671005 166.615189,207.122833 
	C171.358322,207.662659 176.155029,207.731735 181.383636,208.011414 
	C181.838760,219.808060 181.838760,231.598038 181.838760,243.971176 
	C175.140335,243.971176 168.547150,243.971176 161.492569,243.899445 
z"/>
</svg>