<svg version="1.1" id="Layer_1" xmlns="http://www.w3.org/2000/svg" xmlns:xlink="http://www.w3.org/1999/xlink" x="0px" y="0px"
	 width="100%" viewBox="0 0 512 512" enable-background="new 0 0 512 512" xml:space="preserve">
<path fill="#010100" opacity="1.000000" stroke="none" 
	d="
M289.000000,513.000000 
	C192.690048,513.000000 96.880096,513.000000 1.035069,513.000000 
	C1.035069,342.398346 1.035069,171.796707 1.035069,1.097524 
	C171.559967,1.097524 342.120026,1.097524 512.840027,1.097524 
	C512.840027,171.666550 512.840027,342.333252 512.840027,513.000000 
	C438.463348,513.000000 363.981659,513.000000 289.000000,513.000000 
M120.500168,90.668747 
	C103.504196,90.668777 86.507339,90.759026 69.512970,90.593964 
	C66.043320,90.560272 63.702339,91.525398 61.438549,94.236664 
	C51.723083,105.872589 41.760929,117.302406 31.908657,128.824417 
	C30.895552,130.009232 30.015612,131.307907 28.899658,132.784210 
	C181.902832,132.784210 334.353485,132.784210 487.520111,132.784210 
	C478.413055,120.019234 469.581055,107.958221 461.147369,95.624809 
	C458.610962,91.915565 455.923615,90.561714 451.422089,90.567047 
	C341.448242,90.697189 231.474182,90.668739 120.500168,90.668747 
M49.500099,150.237839 
	C39.080570,150.237839 28.661045,150.237839 18.231901,150.237839 
	C18.231901,156.316284 18.231901,161.605011 18.231901,167.098694 
	C177.509460,167.098694 336.581482,167.098694 495.636902,167.098694 
	C495.636902,161.434723 495.636902,156.027817 495.636902,150.237854 
	C347.033722,150.237854 198.766907,150.237854 49.500099,150.237839 
M52.127735,211.500046 
	C52.127735,202.589630 52.127735,193.679214 52.127735,184.711212 
	C46.088718,184.711212 40.820160,184.711212 35.452404,184.711212 
	C35.452404,264.344208 35.452404,343.696045 35.452404,423.077972 
	C41.103165,423.077972 46.371712,423.077972 52.127735,423.077972 
	C52.127735,352.712463 52.127735,282.606262 52.127735,211.500046 
M461.872314,241.499954 
	C461.872314,301.941223 461.872314,362.382507 461.872314,423.011841 
	C467.750336,423.011841 473.127106,423.011841 478.682861,423.011841 
	C478.682861,343.452759 478.682861,264.220428 478.682861,184.745895 
	C473.030121,184.745895 467.622986,184.745895 461.872314,184.745895 
	C461.872314,203.539352 461.872314,222.019638 461.872314,241.499954 
M103.316292,242.500092 
	C103.316292,223.374664 103.316292,204.249252 103.316292,184.854156 
	C100.278763,184.854156 97.758514,184.854156 95.339432,184.854156 
	C95.339432,244.654449 95.339432,304.013824 95.339432,363.321045 
	C103.309334,364.274811 103.314758,364.274811 103.315170,356.924530 
	C103.317291,319.116394 103.316399,281.308258 103.316292,242.500092 
M419.076569,215.500000 
	C419.076569,205.367889 419.076569,195.235779 419.076569,184.875000 
	C416.121002,184.875000 413.608856,184.875000 411.157288,184.875000 
	C411.157288,244.676514 411.157288,304.015930 411.157288,363.310486 
	C414.017090,363.310486 416.395477,363.310486 419.076599,363.310486 
	C419.076599,314.078400 419.076599,265.289215 419.076569,215.500000 
z"/>
<path fill="#FF9811" opacity="1.000000" stroke="none" 
	d="
M121.000168,90.668732 
	C231.474182,90.668739 341.448242,90.697189 451.422089,90.567047 
	C455.923615,90.561714 458.610962,91.915565 461.147369,95.624809 
	C469.581055,107.958221 478.413055,120.019234 487.520111,132.784210 
	C334.353485,132.784210 181.902832,132.784210 28.899658,132.784210 
	C30.015612,131.307907 30.895552,130.009232 31.908657,128.824417 
	C41.760929,117.302406 51.723083,105.872589 61.438549,94.236664 
	C63.702339,91.525398 66.043320,90.560272 69.512970,90.593964 
	C86.507339,90.759026 103.504196,90.668777 121.000168,90.668732 
z"/>
<path fill="#FAA432" opacity="1.000000" stroke="none" 
	d="
M50.000103,150.237854 
	C198.766907,150.237854 347.033722,150.237854 495.636902,150.237854 
	C495.636902,156.027817 495.636902,161.434723 495.636902,167.098694 
	C336.581482,167.098694 177.509460,167.098694 18.231901,167.098694 
	C18.231901,161.605011 18.231901,156.316284 18.231901,150.237839 
	C28.661045,150.237839 39.080570,150.237839 50.000103,150.237854 
z"/>
<path fill="#AAA9AF" opacity="1.000000" stroke="none" 
	d="
M52.127735,212.000061 
	C52.127735,282.606262 52.127735,352.712463 52.127735,423.077972 
	C46.371712,423.077972 41.103165,423.077972 35.452404,423.077972 
	C35.452404,343.696045 35.452404,264.344208 35.452404,184.711212 
	C40.820160,184.711212 46.088718,184.711212 52.127735,184.711212 
	C52.127735,193.679214 52.127735,202.589630 52.127735,212.000061 
z"/>
<path fill="#AAA9AF" opacity="1.000000" stroke="none" 
	d="
M461.872314,240.999939 
	C461.872314,222.019638 461.872314,203.539352 461.872314,184.745895 
	C467.622986,184.745895 473.030121,184.745895 478.682861,184.745895 
	C478.682861,264.220428 478.682861,343.452759 478.682861,423.011841 
	C473.127106,423.011841 467.750336,423.011841 461.872314,423.011841 
	C461.872314,362.382507 461.872314,301.941223 461.872314,240.999939 
z"/>
<path fill="#77757F" opacity="1.000000" stroke="none" 
	d="
M103.316422,243.000092 
	C103.316399,281.308258 103.317291,319.116394 103.315170,356.924530 
	C103.314758,364.274811 103.309334,364.274811 95.339432,363.321045 
	C95.339432,304.013824 95.339432,244.654449 95.339432,184.854156 
	C97.758514,184.854156 100.278763,184.854156 103.316292,184.854156 
	C103.316292,204.249252 103.316292,223.374664 103.316422,243.000092 
z"/>
<path fill="#77757F" opacity="1.000000" stroke="none" 
	d="
M419.076599,216.000000 
	C419.076599,265.289215 419.076599,314.078400 419.076599,363.310486 
	C416.395477,363.310486 414.017090,363.310486 411.157288,363.310486 
	C411.157288,304.015930 411.157288,244.676514 411.157288,184.875000 
	C413.608856,184.875000 416.121002,184.875000 419.076569,184.875000 
	C419.076569,195.235779 419.076569,205.367889 419.076599,216.000000 
z"/>
</svg>