<svg version="1.1" id="Layer_1" xmlns="http://www.w3.org/2000/svg" xmlns:xlink="http://www.w3.org/1999/xlink" x="0px" y="0px"
	 width="100%" viewBox="0 0 257 327" enable-background="new 0 0 257 327" xml:space="preserve">
<path fill="#995231" opacity="1.000000" stroke="none" 
	d="
M258.000000,9.999998 
	C258.000000,113.688103 258.000000,217.376205 257.666138,321.651154 
	C254.221954,323.485840 251.147186,325.693268 247.994980,325.810089 
	C236.352493,326.241516 224.684387,325.998566 213.025955,325.978668 
	C184.383011,325.929779 155.740097,325.863953 127.090500,325.348572 
	C127.091736,313.605957 127.099632,302.319702 127.561020,290.973145 
	C156.632050,290.905151 185.249603,290.910767 213.867111,290.880432 
	C221.208160,290.872650 223.007111,289.072021 223.011108,281.745361 
	C223.025253,255.790375 223.003006,229.835403 222.973862,203.461090 
	C222.932251,201.367493 222.911331,199.693222 222.940643,197.551407 
	C222.954010,182.025681 222.917175,166.967499 222.931396,151.448730 
	C223.004181,117.050087 223.039688,83.112038 223.034760,49.173981 
	C223.033875,43.109352 221.048096,41.114082 214.965225,41.090588 
	C201.157089,41.037247 187.348526,41.106110 173.540329,41.063812 
	C158.074829,41.016438 142.609543,40.901226 127.129639,40.358772 
	C127.109222,28.666355 127.103325,17.430696 127.555557,6.127125 
	C167.587250,6.045514 207.161560,5.924512 246.733215,6.191851 
	C250.497208,6.217280 254.244797,8.672703 258.000000,9.999998 
z"/>
<path fill="#F4F1EF" opacity="1.000000" stroke="none" 
	d="
M127.097160,325.804932 
	C155.740097,325.863953 184.383011,325.929779 213.025955,325.978668 
	C224.684387,325.998566 236.352493,326.241516 247.994980,325.810089 
	C251.147186,325.693268 254.221954,323.485840 257.666138,322.119019 
	C258.000000,323.998871 258.000000,325.997742 258.000000,327.997437 
	C172.382751,327.998291 86.765488,327.998291 1.074116,327.998291 
	C1.074116,219.110886 1.074116,110.221710 1.074116,1.166268 
	C86.666389,1.166268 172.333176,1.166268 258.000000,1.166268 
	C258.000000,3.687521 258.000000,6.352713 258.000000,9.508949 
	C254.244797,8.672703 250.497208,6.217280 246.733215,6.191851 
	C207.161560,5.924512 167.587250,6.045514 127.082565,6.058305 
	C89.166733,6.045825 52.182018,6.018458 15.197328,6.037014 
	C8.419227,6.040415 4.875154,9.664969 4.675800,16.536909 
	C4.651652,17.369280 4.664399,18.202793 4.664396,19.035778 
	C4.663991,116.995682 4.663842,214.955597 4.665718,312.915497 
	C4.665743,314.248138 4.607382,315.587952 4.720304,316.912140 
	C5.175411,322.248962 8.808722,325.936371 14.153836,325.938019 
	C51.801594,325.949677 89.449379,325.861328 127.097160,325.804932 
z"/>
<path fill="#C77D3C" opacity="1.000000" stroke="none" 
	d="
M127.090500,325.348572 
	C89.449379,325.861328 51.801594,325.949677 14.153836,325.938019 
	C8.808722,325.936371 5.175411,322.248962 4.720304,316.912140 
	C4.607382,315.587952 4.665743,314.248138 4.665718,312.915497 
	C4.663842,214.955597 4.663991,116.995682 4.664396,19.035778 
	C4.664399,18.202793 4.651652,17.369280 4.675800,16.536909 
	C4.875154,9.664969 8.419227,6.040415 15.197328,6.037014 
	C52.182018,6.018458 89.166733,6.045825 126.624435,6.126219 
	C127.103325,17.430696 127.109222,28.666355 127.099121,40.460106 
	C127.083122,41.018200 127.051224,41.227444 126.585060,41.147453 
	C100.351654,41.054256 74.584404,41.022610 48.817192,41.042618 
	C43.343727,41.046871 40.964088,42.980587 40.963383,47.757809 
	C40.958256,82.499092 41.046597,117.240395 41.056366,152.447739 
	C40.988457,165.641739 40.924057,178.369904 40.984833,191.097473 
	C40.998852,194.033173 41.441666,196.966827 41.647827,200.317017 
	C41.391457,202.212067 40.987778,203.691177 40.985104,205.171021 
	C40.937557,231.470016 40.941944,257.769104 40.926365,284.068146 
	C40.923668,288.617737 43.406578,290.929657 47.717064,290.933350 
	C74.179092,290.955933 100.641220,290.858612 127.094521,290.859436 
	C127.085724,290.917664 127.107529,291.033417 127.107529,291.033417 
	C127.099632,302.319702 127.091736,313.605957 127.090500,325.348572 
z"/>
<path fill="#AEE2E7" opacity="1.000000" stroke="none" 
	d="
M127.113640,40.916866 
	C142.609543,40.901226 158.074829,41.016438 173.540329,41.063812 
	C187.348526,41.106110 201.157089,41.037247 214.965225,41.090588 
	C221.048096,41.114082 223.033875,43.109352 223.034760,49.173981 
	C223.039688,83.112038 223.004181,117.050087 222.471802,151.455200 
	C206.682816,151.940720 191.404526,151.959198 175.983643,151.607681 
	C175.496414,149.786774 175.110718,148.344208 174.813416,146.883636 
	C171.370346,129.968704 168.500000,112.912941 164.366028,96.168999 
	C159.174545,75.141624 145.934113,63.743397 127.019287,62.266178 
	C127.049614,62.143414 127.036278,61.890858 127.043549,61.429382 
	C127.050949,54.387749 127.051086,47.807598 127.051224,41.227444 
	C127.051224,41.227444 127.083122,41.018200 127.113640,40.916866 
z"/>
<path fill="#162024" opacity="1.000000" stroke="none" 
	d="
M222.994568,203.880432 
	C223.003006,229.835403 223.025253,255.790375 223.011108,281.745361 
	C223.007111,289.072021 221.208160,290.872650 213.867111,290.880432 
	C185.249603,290.910767 156.632050,290.905151 127.561020,290.973145 
	C127.107529,291.033417 127.085724,290.917664 127.098869,290.404266 
	C127.156197,281.635986 127.200378,273.381073 127.676300,265.054016 
	C129.106674,264.984161 130.106857,265.023956 131.103729,264.983032 
	C141.714432,264.547546 151.331573,266.058868 157.425919,276.413116 
	C159.115967,279.284515 162.574722,279.428802 165.431091,277.460510 
	C168.533035,275.322937 169.021774,272.119446 167.164597,269.107849 
	C165.179199,265.888336 162.537247,263.073730 160.433212,259.866669 
	C162.539520,257.095673 164.448914,254.577957 166.240768,251.979202 
	C179.646851,232.536545 196.696854,217.354980 218.181000,207.287811 
	C219.933044,206.466827 221.396820,205.030701 222.994568,203.880432 
z"/>
<path fill="#EEB301" opacity="1.000000" stroke="none" 
	d="
M176.126236,151.977661 
	C191.404526,151.959198 206.682816,151.940720 222.420715,151.915771 
	C222.917175,166.967499 222.954010,182.025681 222.654938,197.355591 
	C219.640945,196.756561 216.962875,195.885803 214.113205,194.712906 
	C208.984314,189.855392 204.027008,185.300018 199.067490,180.348022 
	C198.762268,173.280960 197.339371,172.004166 190.046234,171.796082 
	C186.982147,168.826675 184.330078,165.881546 181.255692,163.476135 
	C177.404526,160.462906 175.966339,156.643707 176.126236,151.977661 
z"/>
<path fill="#FA9930" opacity="1.000000" stroke="none" 
	d="
M214.284790,195.015045 
	C216.962875,195.885803 219.640945,196.756561 222.604721,197.823120 
	C222.911331,199.693222 222.932251,201.367493 222.973877,203.461105 
	C221.396820,205.030701 219.933044,206.466827 218.181000,207.287811 
	C196.696854,217.354980 179.646851,232.536545 166.240768,251.979202 
	C164.448914,254.577957 162.539520,257.095673 160.119110,259.701691 
	C156.290207,257.752838 153.026733,255.753265 149.849030,253.418503 
	C156.558929,244.540527 162.819534,235.682755 169.887817,227.524750 
	C182.161606,213.358704 197.661819,203.364349 214.284790,195.015045 
z"/>
<path fill="#2B5661" opacity="1.000000" stroke="none" 
	d="
M127.244560,265.126190 
	C127.200378,273.381073 127.156197,281.635986 127.107666,290.346008 
	C100.641220,290.858612 74.179092,290.955933 47.717064,290.933350 
	C43.406578,290.929657 40.923668,288.617737 40.926365,284.068146 
	C40.941944,257.769104 40.937557,231.470016 40.985104,205.171021 
	C40.987778,203.691177 41.391457,202.212067 41.761459,199.956970 
	C46.568192,184.073120 57.135788,176.370071 72.960136,175.006393 
	C73.592766,167.175079 74.205826,159.585968 74.914688,151.587799 
	C75.314804,149.381195 75.640793,147.586975 75.919998,145.785522 
	C78.256729,130.708557 79.863411,115.474640 83.074997,100.586769 
	C88.699821,74.511909 102.057800,63.256561 127.036278,61.890858 
	C127.036278,61.890858 127.049614,62.143414 127.066475,62.706879 
	C126.992439,67.309669 126.901543,71.348999 126.419647,75.316025 
	C109.621239,69.624184 95.416397,76.360786 89.064453,92.538658 
	C82.045341,110.415733 87.937881,139.490662 111.625053,150.849670 
	C111.086243,155.573151 107.651031,158.105896 104.391998,161.017776 
	C98.985321,165.848526 93.976875,171.125000 88.467506,176.278412 
	C85.599373,177.738312 82.499565,178.606979 80.625031,180.617859 
	C71.419617,190.492844 68.205620,202.217911 70.809464,215.536377 
	C71.609993,219.631088 73.916557,221.732071 78.021065,221.410324 
	C81.785294,221.115250 84.070023,217.655228 83.663292,213.439194 
	C83.425110,210.970383 83.234344,208.497009 83.359047,206.068451 
	C92.946503,214.532776 103.606117,220.220749 115.918335,222.683273 
	C119.941238,223.487900 123.975365,224.236313 128.025177,225.389587 
	C127.600159,226.987106 127.406982,228.394424 126.662766,229.389709 
	C124.055542,232.876480 124.444138,236.061096 127.184006,239.633789 
	C127.198387,244.008392 127.227844,247.933517 127.218567,251.964874 
	C127.179817,252.071091 127.050781,252.256805 126.592957,252.154968 
	C120.985046,251.830170 115.836655,251.498077 110.684341,251.418213 
	C106.437988,251.352371 103.762398,253.862610 103.861969,257.668671 
	C103.966118,261.649780 106.168030,263.774200 110.119095,263.975647 
	C115.755959,264.263000 121.396942,264.469299 127.094749,264.810974 
	C127.153328,264.911713 127.244560,265.126190 127.244560,265.126190 
M76.900787,244.426865 
	C78.771881,248.362762 81.832344,250.018188 85.855240,248.132690 
	C89.916870,246.228989 90.204712,242.683578 88.863136,238.754974 
	C86.725807,232.496185 83.710129,230.120163 79.502167,231.532410 
	C75.090675,233.013000 74.238419,236.614334 76.900787,244.426865 
z"/>
<path fill="#DAF8FE" opacity="1.000000" stroke="none" 
	d="
M127.043549,61.429382 
	C102.057800,63.256561 88.699821,74.511909 83.074997,100.586769 
	C79.863411,115.474640 78.256729,130.708557 75.919998,145.785522 
	C75.640793,147.586975 75.314804,149.381195 74.457817,151.587967 
	C62.971882,151.992020 52.038639,151.986862 41.105392,151.981689 
	C41.046597,117.240395 40.958256,82.499092 40.963383,47.757809 
	C40.964088,42.980587 43.343727,41.046871 48.817192,41.042618 
	C74.584404,41.022610 100.351654,41.054256 126.585060,41.147453 
	C127.051086,47.807598 127.050949,54.387749 127.043549,61.429382 
z"/>
<path fill="#FDD13E" opacity="1.000000" stroke="none" 
	d="
M41.056366,152.447739 
	C52.038639,151.986862 62.971882,151.992020 74.362000,151.997009 
	C74.205826,159.585968 73.592766,167.175079 72.960136,175.006393 
	C57.135788,176.370071 46.568192,184.073120 41.800789,199.541367 
	C41.441666,196.966827 40.998852,194.033173 40.984833,191.097473 
	C40.924057,178.369904 40.988457,165.641739 41.056366,152.447739 
z"/>
<path fill="#172225" opacity="1.000000" stroke="none" 
	d="
M126.810646,75.388329 
	C126.901543,71.348999 126.992439,67.309669 127.036148,62.829643 
	C145.934113,63.743397 159.174545,75.141624 164.366028,96.168999 
	C168.500000,112.912941 171.370346,129.968704 174.813416,146.883636 
	C175.110718,148.344208 175.496414,149.786774 175.983643,151.607697 
	C175.966339,156.643707 177.404526,160.462906 181.255692,163.476135 
	C184.330078,165.881546 186.982147,168.826675 189.837921,172.086914 
	C188.671280,173.234314 187.416718,173.717468 186.316589,174.436829 
	C175.829407,181.294327 165.368393,188.191864 154.856598,194.649048 
	C154.137772,180.781937 153.567032,167.337326 152.757980,153.907089 
	C151.899765,139.660660 151.570801,125.323463 149.621735,111.217827 
	C147.582764,96.461700 141.365662,83.564461 127.106712,75.967491 
	C126.999916,75.778687 126.810646,75.388329 126.810646,75.388329 
z"/>
<path fill="#FACE3D" opacity="1.000000" stroke="none" 
	d="
M149.763275,253.753677 
	C153.026733,255.753265 156.290207,257.752838 159.867767,259.917419 
	C162.537247,263.073730 165.179199,265.888336 167.164597,269.107849 
	C169.021774,272.119446 168.533035,275.322937 165.431091,277.460510 
	C162.574722,279.428802 159.115967,279.284515 157.425919,276.413116 
	C151.331573,266.058868 141.714432,264.547546 131.103729,264.983032 
	C130.106857,265.023956 129.106674,264.984161 127.676300,265.054016 
	C127.244560,265.126190 127.153328,264.911713 127.109879,264.369141 
	C127.061211,259.969971 127.056000,256.113403 127.050781,252.256805 
	C127.050781,252.256805 127.179817,252.071091 127.626282,252.056885 
	C135.302917,252.613022 142.533096,253.183350 149.763275,253.753677 
z"/>
<path fill="#182224" opacity="1.000000" stroke="none" 
	d="
M149.849030,253.418503 
	C142.533096,253.183350 135.302917,252.613022 127.665024,251.950668 
	C127.227844,247.933517 127.198387,244.008392 127.523773,239.759094 
	C131.692993,241.093033 134.593903,239.906799 136.932205,236.648682 
	C139.451202,233.138809 142.108627,229.728302 144.628189,226.218796 
	C157.577164,208.182053 173.784668,194.046768 194.003937,184.620087 
	C195.885742,183.742737 197.390091,182.055725 199.069702,180.744644 
	C204.027008,185.300018 208.984314,189.855392 214.113205,194.712906 
	C197.661819,203.364349 182.161606,213.358704 169.887817,227.524750 
	C162.819534,235.682755 156.558929,244.540527 149.849030,253.418503 
z"/>
<path fill="#FA9930" opacity="1.000000" stroke="none" 
	d="
M199.067490,180.348022 
	C197.390091,182.055725 195.885742,183.742737 194.003937,184.620087 
	C173.784668,194.046768 157.577164,208.182053 144.628189,226.218796 
	C142.108627,229.728302 139.451202,233.138809 136.932205,236.648682 
	C134.593903,239.906799 131.692993,241.093033 127.538857,239.309631 
	C124.444138,236.061096 124.055542,232.876480 126.662766,229.389709 
	C127.406982,228.394424 127.600159,226.987106 128.383698,225.381348 
	C132.149826,220.674942 135.578293,216.355927 139.288879,211.854095 
	C144.680634,206.140152 149.790237,200.609009 154.899857,195.077881 
	C165.368393,188.191864 175.829407,181.294327 186.316589,174.436829 
	C187.416718,173.717468 188.671280,173.234314 190.062500,172.350739 
	C197.339371,172.004166 198.762268,173.280960 199.067490,180.348022 
z"/>
<path fill="#FEE180" opacity="1.000000" stroke="none" 
	d="
M126.419647,75.316025 
	C126.810646,75.388329 126.999916,75.778687 127.057808,76.419571 
	C127.101463,81.876610 127.079300,86.692757 127.074219,91.508911 
	C127.032005,131.533463 126.992958,171.557999 126.562286,211.589630 
	C111.153816,209.932526 97.841431,204.994537 88.802376,191.726593 
	C89.473526,190.573471 89.965042,189.708054 90.599693,188.964859 
	C95.397179,183.346817 95.018883,180.596619 88.800667,176.213715 
	C93.976875,171.125000 98.985321,165.848526 104.391998,161.017776 
	C107.651031,158.105896 111.086243,155.573151 111.625053,150.849670 
	C87.937881,139.490662 82.045341,110.415733 89.064453,92.538658 
	C95.416397,76.360786 109.621239,69.624184 126.419647,75.316025 
z"/>
<path fill="#C67E3D" opacity="1.000000" stroke="none" 
	d="
M88.689026,192.070877 
	C97.841431,204.994537 111.153816,209.932526 127.015732,211.690201 
	C131.575485,211.868088 135.291122,211.952499 139.006760,212.036911 
	C135.578293,216.355927 132.149826,220.674942 128.362869,225.002197 
	C123.975365,224.236313 119.941238,223.487900 115.918335,222.683273 
	C103.606117,220.220749 92.946503,214.532776 83.334320,205.668091 
	C84.878212,200.840271 86.783623,196.455566 88.689026,192.070877 
z"/>
<path fill="#FB9A31" opacity="1.000000" stroke="none" 
	d="
M88.802368,191.726593 
	C86.783623,196.455566 84.878212,200.840271 82.997528,205.625320 
	C83.234344,208.497009 83.425110,210.970383 83.663292,213.439194 
	C84.070023,217.655228 81.785294,221.115250 78.021065,221.410324 
	C73.916557,221.732071 71.609993,219.631088 70.809464,215.536377 
	C68.205620,202.217911 71.419617,190.492844 80.625031,180.617859 
	C82.499565,178.606979 85.599373,177.738312 88.467506,176.278412 
	C95.018883,180.596619 95.397179,183.346817 90.599693,188.964859 
	C89.965042,189.708054 89.473526,190.573471 88.802368,191.726593 
z"/>
<path fill="#F9DE7E" opacity="1.000000" stroke="none" 
	d="
M126.592957,252.154968 
	C127.056000,256.113403 127.061211,259.969971 127.051300,264.268402 
	C121.396942,264.469299 115.755959,264.263000 110.119095,263.975647 
	C106.168030,263.774200 103.966118,261.649780 103.861969,257.668671 
	C103.762398,253.862610 106.437988,251.352371 110.684341,251.418213 
	C115.836655,251.498077 120.985046,251.830170 126.592957,252.154968 
z"/>
<path fill="#F69832" opacity="1.000000" stroke="none" 
	d="
M76.761086,244.066284 
	C74.238419,236.614334 75.090675,233.013000 79.502167,231.532410 
	C83.710129,230.120163 86.725807,232.496185 88.863136,238.754974 
	C90.204712,242.683578 89.916870,246.228989 85.855240,248.132690 
	C81.832344,250.018188 78.771881,248.362762 76.761086,244.066284 
z"/>
<path fill="#FED13E" opacity="1.000000" stroke="none" 
	d="
M139.288879,211.854095 
	C135.291122,211.952499 131.575485,211.868088 127.406403,211.683105 
	C126.992958,171.557999 127.032005,131.533463 127.074219,91.508911 
	C127.079300,86.692757 127.101463,81.876610 127.164604,76.608383 
	C141.365662,83.564461 147.582764,96.461700 149.621735,111.217827 
	C151.570801,125.323463 151.899765,139.660660 152.757980,153.907089 
	C153.567032,167.337326 154.137772,180.781937 154.856598,194.649048 
	C149.790237,200.609009 144.680634,206.140152 139.288879,211.854095 
z"/>
</svg>