<svg version="1.1" id="Layer_1" xmlns="http://www.w3.org/2000/svg" xmlns:xlink="http://www.w3.org/1999/xlink" x="0px" y="0px"
	 width="100%" viewBox="0 0 332 342" enable-background="new 0 0 332 342" xml:space="preserve">
<path fill="#F6F6F6" opacity="1.000000" stroke="none" 
	d="
M1.000000,124.000000 
	C1.000000,82.666672 1.000000,41.833347 1.000000,1.000016 
	C111.666634,1.000011 222.333267,1.000011 332.999939,1.000005 
	C332.999939,114.999947 332.999939,228.999893 332.999969,342.999878 
	C222.333405,342.999939 111.666801,342.999939 1.000101,342.999969 
	C1.000000,270.166656 1.000000,197.333328 1.000000,124.000000 
M297.329254,185.818542 
	C300.043427,181.857101 303.311676,178.163193 305.375732,173.887878 
	C314.261902,155.481903 307.921814,135.873245 290.318146,128.489075 
	C284.179382,125.914055 277.196350,124.425896 270.548553,124.239807 
	C263.301056,124.036942 255.995117,125.921364 248.542557,126.918900 
	C248.761093,125.945969 249.193542,124.391228 249.453262,122.808144 
	C252.629776,103.447044 256.695465,84.170105 256.033234,64.394402 
	C255.582916,50.947594 250.432388,39.422997 238.854584,32.308716 
	C231.048691,27.512182 222.329163,23.666653 213.517670,21.145727 
	C189.706009,14.333323 165.137650,14.069085 140.651199,15.479965 
	C122.205330,16.542793 103.855263,19.065392 86.944237,27.388319 
	C73.806046,33.854416 64.088936,43.572659 62.859482,58.723682 
	C61.993511,69.395348 62.677074,80.296753 63.723927,90.992302 
	C64.928909,103.303398 67.295967,115.500740 69.233803,128.243835 
	C58.915798,123.642113 48.498711,122.908562 37.799915,125.018318 
	C13.719552,129.766846 2.078509,150.589294 12.246966,172.683273 
	C15.600824,179.970520 21.526772,186.467911 27.448269,192.093094 
	C38.018215,202.134079 42.499012,213.819244 40.097141,228.048615 
	C38.135269,239.671310 35.901810,251.253311 33.532928,262.800873 
	C30.532612,277.426483 33.987164,286.818268 45.244366,293.236969 
	C47.389332,294.459991 49.698895,295.614807 52.079121,296.154663 
	C55.949909,297.032562 56.815868,299.119232 56.607635,302.885742 
	C56.296116,308.520447 56.386749,314.231354 56.946133,319.846069 
	C57.588764,326.296417 60.107079,332.171661 67.144829,333.704163 
	C72.117569,334.786987 77.539795,335.409485 82.466591,334.549225 
	C85.889969,333.951508 89.789024,331.111755 91.696571,328.134003 
	C93.788803,324.867981 94.524940,320.308105 94.611832,316.285278 
	C94.732796,310.684967 93.701202,305.059753 93.087616,298.659790 
	C137.058487,298.659790 180.960815,298.659790 224.813721,298.659790 
	C224.235870,305.411285 223.286514,311.367065 223.308014,317.319366 
	C223.353058,329.796844 229.203964,335.270691 241.505737,334.936920 
	C243.822647,334.874084 246.128021,334.422119 248.440979,334.170563 
	C254.608856,333.499603 258.962524,330.189606 259.954529,324.157837 
	C261.052338,317.482513 261.482452,310.619354 261.373962,303.851257 
	C261.302155,299.372284 262.248169,297.289948 266.885315,295.821167 
	C280.606842,291.475037 286.835632,282.177002 284.952759,268.237946 
	C283.065399,254.265945 279.751709,240.490356 277.717133,226.533356 
	C275.976440,214.592270 278.805481,203.712006 287.883575,195.047455 
	C290.896332,192.171951 293.848785,189.233292 297.329254,185.818542 
z"/>
<path fill="#0A0706" opacity="1.000000" stroke="none" 
	d="
M297.079041,186.071014 
	C293.848785,189.233292 290.896332,192.171951 287.883575,195.047455 
	C278.805481,203.712006 275.976440,214.592270 277.717133,226.533356 
	C279.751709,240.490356 283.065399,254.265945 284.952759,268.237946 
	C286.835632,282.177002 280.606842,291.475037 266.885315,295.821167 
	C262.248169,297.289948 261.302155,299.372284 261.373962,303.851257 
	C261.482452,310.619354 261.052338,317.482513 259.954529,324.157837 
	C258.962524,330.189606 254.608856,333.499603 248.440979,334.170563 
	C246.128021,334.422119 243.822647,334.874084 241.505737,334.936920 
	C229.203964,335.270691 223.353058,329.796844 223.308014,317.319366 
	C223.286514,311.367065 224.235870,305.411285 224.813721,298.659790 
	C180.960815,298.659790 137.058487,298.659790 93.087616,298.659790 
	C93.701202,305.059753 94.732796,310.684967 94.611832,316.285278 
	C94.524940,320.308105 93.788803,324.867981 91.696571,328.134003 
	C89.789024,331.111755 85.889969,333.951508 82.466591,334.549225 
	C77.539795,335.409485 72.117569,334.786987 67.144829,333.704163 
	C60.107079,332.171661 57.588764,326.296417 56.946133,319.846069 
	C56.386749,314.231354 56.296116,308.520447 56.607635,302.885742 
	C56.815868,299.119232 55.949909,297.032562 52.079121,296.154663 
	C49.698895,295.614807 47.389332,294.459991 45.244366,293.236969 
	C33.987164,286.818268 30.532612,277.426483 33.532928,262.800873 
	C35.901810,251.253311 38.135269,239.671310 40.097141,228.048615 
	C42.499012,213.819244 38.018215,202.134079 27.448269,192.093094 
	C21.526772,186.467911 15.600824,179.970520 12.246966,172.683273 
	C2.078509,150.589294 13.719552,129.766846 37.799915,125.018318 
	C48.498711,122.908562 58.915798,123.642113 69.233803,128.243835 
	C67.295967,115.500740 64.928909,103.303398 63.723927,90.992302 
	C62.677074,80.296753 61.993511,69.395348 62.859482,58.723682 
	C64.088936,43.572659 73.806046,33.854416 86.944237,27.388319 
	C103.855263,19.065392 122.205330,16.542793 140.651199,15.479965 
	C165.137650,14.069085 189.706009,14.333323 213.517670,21.145727 
	C222.329163,23.666653 231.048691,27.512182 238.854584,32.308716 
	C250.432388,39.422997 255.582916,50.947594 256.033234,64.394402 
	C256.695465,84.170105 252.629776,103.447044 249.453262,122.808144 
	C249.193542,124.391228 248.761093,125.945969 248.542557,126.918900 
	C255.995117,125.921364 263.301056,124.036942 270.548553,124.239807 
	C277.196350,124.425896 284.179382,125.914055 290.318146,128.489075 
	C307.921814,135.873245 314.261902,155.481903 305.375732,173.887878 
	C303.311676,178.163193 300.043427,181.857101 297.079041,186.071014 
M243.148682,299.197601 
	C241.484894,299.165466 239.800766,299.287720 238.161179,299.071838 
	C233.490448,298.456818 230.466980,299.477997 230.593765,305.105591 
	C230.663971,308.221313 229.718369,311.346527 229.583786,314.482635 
	C229.131485,325.021759 232.586716,329.565582 242.821533,328.220947 
	C247.790359,328.153687 253.265152,328.014221 254.333939,321.943909 
	C255.637115,314.542328 255.799973,306.940002 256.459961,299.379822 
	C251.634232,299.379822 247.846924,299.379822 243.148682,299.197601 
M76.826477,328.263916 
	C85.226036,328.272461 87.447800,326.452209 88.430145,318.191711 
	C88.718079,315.770538 88.304565,313.260101 88.156784,310.793945 
	C87.439445,298.823517 86.893715,298.355835 74.140968,299.232269 
	C70.222984,299.232269 66.305008,299.232269 61.666271,299.232269 
	C62.076984,305.064972 62.402561,310.469696 62.849106,315.864441 
	C63.723934,326.433167 65.559814,328.121643 76.826477,328.263916 
M116.186073,201.017746 
	C103.577370,202.426544 91.134323,204.469864 79.969376,211.048523 
	C75.052177,213.945877 70.800835,217.562927 71.345177,223.952728 
	C71.894165,230.397079 76.281883,234.518524 82.011696,235.762543 
	C90.363228,237.575745 99.001167,238.917358 107.522072,238.945923 
	C134.470764,239.036240 161.421097,238.290878 188.372299,238.145737 
	C199.340378,238.086655 210.322678,239.180435 221.278976,238.921921 
	C229.217880,238.734589 237.208755,237.416748 243.773880,230.739212 
	C248.807480,223.406326 247.065323,216.507980 239.595627,211.904327 
	C228.380142,204.992081 215.910049,202.342865 203.159470,201.165802 
	C174.473007,198.517593 145.742920,199.412903 116.186073,201.017746 
M35.319565,132.195801 
	C24.455708,135.595932 16.877277,142.118942 15.385503,153.974945 
	C14.271672,162.827194 16.966482,170.853134 22.326218,177.784424 
	C25.458233,181.834793 29.287592,185.379745 33.017162,188.927170 
	C40.765270,196.296860 46.372562,204.925293 46.737675,215.777039 
	C47.004059,223.694489 46.345016,231.733932 45.188297,239.584885 
	C43.810986,248.933014 41.294685,258.107147 39.575661,267.412781 
	C37.646862,277.853973 42.254444,286.108978 52.541943,288.987671 
	C59.488380,290.931488 66.888809,291.936371 74.109085,292.063904 
	C86.075516,292.275269 98.059059,291.159485 110.037766,291.102814 
	C142.003448,290.951538 173.970886,290.965424 205.936630,291.120178 
	C220.746124,291.191864 235.556519,292.081360 250.360229,291.940491 
	C258.130646,291.866486 265.963257,290.613098 272.927582,284.942963 
	C278.298218,280.385162 279.750671,274.399231 278.526031,267.827118 
	C276.703583,258.046722 274.307373,248.373840 272.451050,238.599045 
	C268.604187,218.342438 270.799194,200.062851 288.142853,185.744308 
	C293.308868,181.479324 297.551331,175.270721 300.325562,169.102051 
	C306.447723,155.488983 302.115753,141.559189 290.032990,135.584259 
	C284.276733,132.737808 277.437927,132.080597 270.222504,130.224609 
	C247.723511,128.458878 231.067612,149.550018 237.216217,169.950226 
	C239.630508,177.960510 237.818573,187.374649 237.215714,196.100006 
	C236.975510,199.576645 237.551468,201.684799 240.308456,203.683655 
	C243.364822,205.899612 246.104248,208.552704 249.195801,211.699692 
	C250.224411,216.439926 252.486252,221.304413 252.023880,225.894440 
	C251.073090,235.332748 243.636063,239.763641 235.562698,242.801834 
	C223.346466,247.399048 210.608475,245.754959 197.976425,245.688797 
	C172.005875,245.552734 146.033737,245.702408 120.062317,245.763504 
	C112.565628,245.781143 105.054436,246.221207 97.576660,245.880371 
	C89.704262,245.521545 82.098274,243.680679 75.317963,239.323166 
	C62.637905,231.174042 61.888950,215.504776 73.767815,206.200241 
	C75.203423,205.075729 77.179382,204.441376 78.219437,203.062729 
	C79.486603,201.383011 81.005325,199.004410 80.724113,197.190247 
	C78.967583,185.858521 79.506439,174.738144 81.424004,163.438873 
	C82.205521,158.833755 81.210014,153.386337 79.414078,148.977539 
	C71.358223,129.201340 50.895344,127.915657 35.319565,132.195801 
M228.957947,157.149750 
	C230.724396,152.197601 232.327866,147.179504 234.298920,142.310165 
	C236.717148,136.336121 240.642517,130.712692 241.806351,124.539841 
	C245.062134,107.271774 248.455093,89.873795 249.526657,72.388138 
	C250.943359,49.270348 243.390060,38.116966 221.506805,30.373880 
	C208.475555,25.762957 194.512283,23.618261 180.842270,21.028511 
	C167.596420,18.519119 154.186722,17.444515 139.954102,20.656458 
	C126.304649,23.468666 112.359924,25.301477 99.070587,29.308125 
	C75.397072,36.445534 65.932411,51.456776 68.327942,75.637558 
	C69.327293,85.725159 70.704582,95.779617 72.101562,105.822495 
	C74.038666,119.748314 77.356804,133.199280 85.291824,145.183960 
	C89.234772,151.139175 89.881454,157.898132 88.386894,164.873123 
	C85.891251,176.520096 85.462677,188.164062 88.198502,199.062546 
	C135.202286,190.111816 181.818954,190.155106 229.425980,198.916962 
	C229.877548,196.991119 231.136581,194.297516 231.017181,191.666458 
	C230.506805,180.422119 229.589584,169.196213 228.957947,157.149750 
z"/>
<path fill="#CB6C3E" opacity="1.000000" stroke="none" 
	d="
M228.820770,157.963593 
	C229.589584,169.196213 230.506805,180.422119 231.017181,191.666458 
	C231.136581,194.297516 229.877548,196.991119 229.425980,198.916962 
	C181.818954,190.155106 135.202286,190.111816 88.198502,199.062546 
	C85.462677,188.164062 85.891251,176.520096 88.386894,164.873123 
	C89.881454,157.898132 89.234772,151.139175 85.291824,145.183960 
	C77.356804,133.199280 74.038666,119.748314 72.101562,105.822495 
	C70.704582,95.779617 69.327293,85.725159 68.327942,75.637558 
	C65.932411,51.456776 75.397072,36.445534 99.070587,29.308125 
	C112.359924,25.301477 126.304649,23.468666 140.558075,21.010899 
	C149.533066,27.976727 149.065308,36.763020 146.976959,45.804523 
	C145.898636,50.473080 144.442123,55.066746 142.936951,59.621704 
	C139.641006,69.595955 137.879623,79.695358 137.842621,90.307434 
	C137.764786,112.639702 147.022919,130.063446 164.755371,142.882523 
	C169.664825,146.431656 176.190689,147.744827 182.298218,150.208313 
	C186.805359,154.452606 191.694824,154.904968 197.331268,153.372955 
	C208.120956,154.474365 218.953018,152.739624 228.820770,157.963593 
M121.700531,153.194809 
	C128.837601,155.154022 134.430908,153.089249 137.951248,147.195862 
	C141.663712,140.980835 140.954941,131.382050 136.436539,126.682510 
	C132.084793,122.156311 125.263931,121.444534 118.993973,124.875534 
	C114.188354,127.505203 111.735481,131.582016 111.748222,137.047211 
	C111.764618,144.082092 114.514824,149.586380 121.700531,153.194809 
M103.782570,80.507889 
	C104.375816,88.515007 107.469810,92.728806 114.094589,94.552155 
	C119.924744,96.156807 125.354492,94.352486 128.679504,89.705551 
	C132.439392,84.450867 132.769211,76.227386 129.415726,71.349518 
	C126.413284,66.982254 120.080063,64.775360 114.295921,66.080803 
	C108.464081,67.397011 104.749718,72.201912 103.782570,80.507889 
z"/>
<path fill="#E98C4E" opacity="1.000000" stroke="none" 
	d="
M181.974930,150.083878 
	C176.190689,147.744827 169.664825,146.431656 164.755371,142.882523 
	C147.022919,130.063446 137.764786,112.639702 137.842621,90.307434 
	C137.879623,79.695358 139.641006,69.595955 142.936951,59.621704 
	C144.442123,55.066746 145.898636,50.473080 146.976959,45.804523 
	C149.065308,36.763020 149.533066,27.976727 140.992920,21.044033 
	C154.186722,17.444515 167.596420,18.519119 180.842270,21.028511 
	C194.512283,23.618261 208.475555,25.762957 221.506805,30.373880 
	C243.390060,38.116966 250.943359,49.270348 249.526657,72.388138 
	C248.455093,89.873795 245.062134,107.271774 241.806351,124.539841 
	C240.642517,130.712692 236.717148,136.336121 234.298920,142.310165 
	C232.327866,147.179504 230.724396,152.197601 228.889359,157.556671 
	C218.953018,152.739624 208.120956,154.474365 197.615524,153.185333 
	C200.330811,149.129303 204.005920,145.895981 205.592880,141.844681 
	C207.769943,136.286942 206.389053,130.528595 201.423874,126.553658 
	C196.758865,122.819016 191.382034,121.375938 185.603439,123.899643 
	C179.654327,126.497818 177.166382,131.617584 177.861954,137.628418 
	C178.354172,141.881927 180.543304,145.939072 181.974930,150.083878 
M208.747665,68.591225 
	C207.588852,67.960876 206.479538,67.206238 205.262680,66.721664 
	C199.935928,64.600464 193.363846,66.043510 189.677155,70.062622 
	C185.772858,74.318985 185.163300,81.733810 188.213684,87.864716 
	C190.728134,92.918411 195.471710,95.579704 201.325882,94.995834 
	C206.649231,94.464890 210.978363,92.072670 212.960251,86.925934 
	C215.498489,80.334412 214.586487,74.194969 208.747665,68.591225 
z"/>
<path fill="#E78B4D" opacity="1.000000" stroke="none" 
	d="
M271.089478,130.431717 
	C277.437927,132.080597 284.276733,132.737808 290.032990,135.584259 
	C302.115753,141.559189 306.447723,155.488983 300.325562,169.102051 
	C297.551331,175.270721 293.308868,181.479324 288.142853,185.744308 
	C270.799194,200.062851 268.604187,218.342438 272.451050,238.599045 
	C274.307373,248.373840 276.703583,258.046722 278.526031,267.827118 
	C279.750671,274.399231 278.298218,280.385162 272.318787,284.886261 
	C268.716431,280.284149 263.904572,280.098694 259.299011,280.050598 
	C245.222824,279.903625 231.131348,280.402557 217.069092,279.940979 
	C197.855911,279.310333 178.671524,277.840210 159.460907,277.081207 
	C143.691147,276.458099 127.899719,276.401947 112.120720,275.986938 
	C104.330872,275.782074 96.513084,275.678040 88.770195,274.904846 
	C80.050354,274.034119 71.942963,271.161560 65.439377,264.909882 
	C56.147034,255.977478 52.362247,244.631500 52.076122,232.138397 
	C51.742577,217.574768 52.022842,202.997086 52.424133,188.290527 
	C57.254250,186.137573 62.479351,185.014313 65.997078,181.938431 
	C77.855446,171.569427 77.459160,148.774155 65.337196,138.722672 
	C62.258598,136.169907 57.601170,134.226242 53.699604,134.278381 
	C48.451660,134.348526 43.233212,136.625961 38.013947,137.601685 
	C37.363094,135.559418 36.700401,133.871460 36.037708,132.183487 
	C50.895344,127.915657 71.358223,129.201340 79.414078,148.977539 
	C81.210014,153.386337 82.205521,158.833755 81.424004,163.438873 
	C79.506439,174.738144 78.967583,185.858521 80.724113,197.190247 
	C81.005325,199.004410 79.486603,201.383011 78.219437,203.062729 
	C77.179382,204.441376 75.203423,205.075729 73.767815,206.200241 
	C61.888950,215.504776 62.637905,231.174042 75.317963,239.323166 
	C82.098274,243.680679 89.704262,245.521545 97.576660,245.880371 
	C105.054436,246.221207 112.565628,245.781143 120.062317,245.763504 
	C146.033737,245.702408 172.005875,245.552734 197.976425,245.688797 
	C210.608475,245.754959 223.346466,247.399048 235.562698,242.801834 
	C243.636063,239.763641 251.073090,235.332748 252.023880,225.894440 
	C252.486252,221.304413 250.224411,216.439926 249.241211,211.056198 
	C255.874313,204.106216 258.096466,195.760376 260.540771,187.381531 
	C262.801483,187.718704 264.600311,188.178833 266.405518,188.205154 
	C277.565979,188.367966 285.790924,183.150742 291.375519,173.801468 
	C296.320221,165.523422 296.329742,156.923920 290.789734,148.968369 
	C286.071655,142.193100 279.770325,137.082443 271.775238,134.171051 
	C271.593231,132.695053 271.341370,131.563385 271.089478,130.431717 
z"/>
<path fill="#CA6C3D" opacity="1.000000" stroke="none" 
	d="
M35.678635,132.189636 
	C36.700401,133.871460 37.363094,135.559418 37.877785,137.910538 
	C35.125854,140.873215 32.360729,143.016251 29.947990,145.501389 
	C22.477821,153.195770 20.967575,163.509338 26.129519,172.935593 
	C31.686281,183.082855 40.437660,188.218109 52.036766,188.425491 
	C52.022842,202.997086 51.742577,217.574768 52.076122,232.138397 
	C52.362247,244.631500 56.147034,255.977478 65.439377,264.909882 
	C71.942963,271.161560 80.050354,274.034119 88.770195,274.904846 
	C96.513084,275.678040 104.330872,275.782074 112.120720,275.986938 
	C127.899719,276.401947 143.691147,276.458099 159.460907,277.081207 
	C178.671524,277.840210 197.855911,279.310333 217.069092,279.940979 
	C231.131348,280.402557 245.222824,279.903625 259.299011,280.050598 
	C263.904572,280.098694 268.716431,280.284149 272.020569,285.045776 
	C265.963257,290.613098 258.130646,291.866486 250.360229,291.940491 
	C235.556519,292.081360 220.746124,291.191864 205.936630,291.120178 
	C173.970886,290.965424 142.003448,290.951538 110.037766,291.102814 
	C98.059059,291.159485 86.075516,292.275269 74.109085,292.063904 
	C66.888809,291.936371 59.488380,290.931488 52.541943,288.987671 
	C42.254444,286.108978 37.646862,277.853973 39.575661,267.412781 
	C41.294685,258.107147 43.810986,248.933014 45.188297,239.584885 
	C46.345016,231.733932 47.004059,223.694489 46.737675,215.777039 
	C46.372562,204.925293 40.765270,196.296860 33.017162,188.927170 
	C29.287592,185.379745 25.458233,181.834793 22.326218,177.784424 
	C16.966482,170.853134 14.271672,162.827194 15.385503,153.974945 
	C16.877277,142.118942 24.455708,135.595932 35.678635,132.189636 
z"/>
<path fill="#CA6C3D" opacity="1.000000" stroke="none" 
	d="
M243.197266,231.135864 
	C237.208755,237.416748 229.217880,238.734589 221.278976,238.921921 
	C210.322678,239.180435 199.340378,238.086655 188.372299,238.145737 
	C161.421097,238.290878 134.470764,239.036240 107.522072,238.945923 
	C99.001167,238.917358 90.363228,237.575745 82.011696,235.762543 
	C76.281883,234.518524 71.894165,230.397079 71.345177,223.952728 
	C70.800835,217.562927 75.052177,213.945877 79.969376,211.048523 
	C91.134323,204.469864 103.577370,202.426544 116.663040,201.466644 
	C117.356445,202.543823 117.750237,203.168564 117.762917,203.800949 
	C117.978569,214.558945 124.307671,220.049942 134.162949,221.061951 
	C145.834503,222.260483 157.689743,223.401154 169.341995,222.650818 
	C186.839920,221.524048 204.247208,218.488205 221.815033,221.068909 
	C229.859970,222.250732 237.944275,223.810745 243.197266,231.135864 
z"/>
<path fill="#E88C4D" opacity="1.000000" stroke="none" 
	d="
M243.485565,230.937531 
	C237.944275,223.810745 229.859970,222.250732 221.815033,221.068909 
	C204.247208,218.488205 186.839920,221.524048 169.341995,222.650818 
	C157.689743,223.401154 145.834503,222.260483 134.162949,221.061951 
	C124.307671,220.049942 117.978569,214.558945 117.762917,203.800949 
	C117.750237,203.168564 117.356445,202.543823 117.086288,201.531097 
	C145.742920,199.412903 174.473007,198.517593 203.159470,201.165802 
	C215.910049,202.342865 228.380142,204.992081 239.595627,211.904327 
	C247.065323,216.507980 248.807480,223.406326 243.485565,230.937531 
z"/>
<path fill="#C56A3C" opacity="1.000000" stroke="none" 
	d="
M270.656006,130.328156 
	C271.341370,131.563385 271.593231,132.695053 271.339783,134.096558 
	C261.729126,132.805435 254.161758,134.984177 248.700195,142.989502 
	C238.509933,157.926010 243.427078,181.090363 260.081879,187.303940 
	C258.096466,195.760376 255.874313,204.106216 249.134155,210.714081 
	C246.104248,208.552704 243.364822,205.899612 240.308456,203.683655 
	C237.551468,201.684799 236.975510,199.576645 237.215714,196.100006 
	C237.818573,187.374649 239.630508,177.960510 237.216217,169.950226 
	C231.067612,149.550018 247.723511,128.458878 270.656006,130.328156 
z"/>
<path fill="#8F3229" opacity="1.000000" stroke="none" 
	d="
M75.954529,328.132416 
	C65.559814,328.121643 63.723934,326.433167 62.849106,315.864441 
	C62.402561,310.469696 62.076984,305.064972 61.666271,299.232269 
	C66.305008,299.232269 70.222984,299.232269 74.588791,299.704041 
	C76.869400,309.444519 79.866508,318.675049 75.954529,328.132416 
z"/>
<path fill="#8F3229" opacity="1.000000" stroke="none" 
	d="
M241.955414,328.127350 
	C232.586716,329.565582 229.131485,325.021759 229.583786,314.482635 
	C229.718369,311.346527 230.663971,308.221313 230.593765,305.105591 
	C230.466980,299.477997 233.490448,298.456818 238.161179,299.071838 
	C239.800766,299.287720 241.484894,299.165466 243.590729,299.683411 
	C246.380234,309.714478 243.198715,318.848907 241.955414,328.127350 
z"/>
<path fill="#A7402F" opacity="1.000000" stroke="none" 
	d="
M242.388474,328.174133 
	C243.198715,318.848907 246.380234,309.714478 244.046204,299.774536 
	C247.846924,299.379822 251.634232,299.379822 256.459961,299.379822 
	C255.799973,306.940002 255.637115,314.542328 254.333939,321.943909 
	C253.265152,328.014221 247.790359,328.153687 242.388474,328.174133 
z"/>
<path fill="#A7402F" opacity="1.000000" stroke="none" 
	d="
M76.390503,328.198181 
	C79.866508,318.675049 76.869400,309.444519 75.049225,299.796570 
	C86.893715,298.355835 87.439445,298.823517 88.156784,310.793945 
	C88.304565,313.260101 88.718079,315.770538 88.430145,318.191711 
	C87.447800,326.452209 85.226036,328.272461 76.390503,328.198181 
z"/>
<path fill="#0A0503" opacity="1.000000" stroke="none" 
	d="
M182.298218,150.208313 
	C180.543304,145.939072 178.354172,141.881927 177.861954,137.628418 
	C177.166382,131.617584 179.654327,126.497818 185.603439,123.899643 
	C191.382034,121.375938 196.758865,122.819016 201.423874,126.553658 
	C206.389053,130.528595 207.769943,136.286942 205.592880,141.844681 
	C204.005920,145.895981 200.330811,149.129303 197.302338,152.914902 
	C191.694824,154.904968 186.805359,154.452606 182.298218,150.208313 
M194.801147,148.159058 
	C200.464066,145.636093 202.297607,141.900848 200.841293,135.854401 
	C199.393814,129.844620 196.128647,127.729645 188.366989,128.338654 
	C183.120529,131.705841 181.469116,136.998459 183.783630,143.027878 
	C185.477020,147.439240 188.936493,149.201630 194.801147,148.159058 
z"/>
<path fill="#0A0503" opacity="1.000000" stroke="none" 
	d="
M121.332993,153.053085 
	C114.514824,149.586380 111.764618,144.082092 111.748222,137.047211 
	C111.735481,131.582016 114.188354,127.505203 118.993973,124.875534 
	C125.263931,121.444534 132.084793,122.156311 136.436539,126.682510 
	C140.954941,131.382050 141.663712,140.980835 137.951248,147.195862 
	C134.430908,153.089249 128.837601,155.154022 121.332993,153.053085 
M125.285522,128.078293 
	C124.338608,128.373642 123.376869,128.628754 122.447281,128.971176 
	C117.902969,130.645126 117.278633,134.601807 116.887199,138.655777 
	C116.494125,142.726715 118.119118,145.850632 121.736595,147.686935 
	C125.488518,149.591507 129.082047,149.346161 132.727921,145.673447 
	C137.836655,136.851776 134.593628,128.360367 125.285522,128.078293 
z"/>
<path fill="#0B0503" opacity="1.000000" stroke="none" 
	d="
M103.798370,80.073936 
	C104.749718,72.201912 108.464081,67.397011 114.295921,66.080803 
	C120.080063,64.775360 126.413284,66.982254 129.415726,71.349518 
	C132.769211,76.227386 132.439392,84.450867 128.679504,89.705551 
	C125.354492,94.352486 119.924744,96.156807 114.094589,94.552155 
	C107.469810,92.728806 104.375816,88.515007 103.798370,80.073936 
M116.326736,71.235970 
	C109.812973,73.831642 106.789162,80.259766 109.468811,85.814804 
	C111.665031,90.367668 117.669907,91.370369 123.757782,87.741486 
	C127.166191,83.928909 127.870491,79.466202 125.844383,74.976593 
	C124.235954,71.412537 120.738853,70.685974 116.326736,71.235970 
z"/>
<path fill="#0C0604" opacity="1.000000" stroke="none" 
	d="
M209.047485,68.822617 
	C214.586487,74.194969 215.498489,80.334412 212.960251,86.925934 
	C210.978363,92.072670 206.649231,94.464890 201.325882,94.995834 
	C195.471710,95.579704 190.728134,92.918411 188.213684,87.864716 
	C185.163300,81.733810 185.772858,74.318985 189.677155,70.062622 
	C193.363846,66.043510 199.935928,64.600464 205.262680,66.721664 
	C206.479538,67.206238 207.588852,67.960876 209.047485,68.822617 
M200.259018,71.070374 
	C192.487061,71.822487 189.793594,75.445526 191.650055,82.650429 
	C193.287613,89.005775 196.984894,91.020218 204.807816,89.196075 
	C209.753616,87.137108 209.542328,82.834663 208.879440,78.775688 
	C208.192352,74.568657 205.579987,71.736313 200.259018,71.070374 
z"/>
<path fill="#0B0503" opacity="1.000000" stroke="none" 
	d="
M260.540771,187.381531 
	C243.427078,181.090363 238.509933,157.926010 248.700195,142.989502 
	C254.161758,134.984177 261.729126,132.805435 271.269928,134.440903 
	C279.770325,137.082443 286.071655,142.193100 290.789734,148.968369 
	C296.329742,156.923920 296.320221,165.523422 291.375519,173.801468 
	C285.790924,183.150742 277.565979,188.367966 266.405518,188.205154 
	C264.600311,188.178833 262.801483,187.718704 260.540771,187.381531 
M262.300049,140.110764 
	C251.573257,143.420868 246.083557,156.668076 250.218216,169.265533 
	C253.892548,180.460510 264.118622,185.265060 275.704315,180.854507 
	C277.140747,180.051208 278.666931,179.373810 279.999115,178.424240 
	C288.976593,172.025208 292.193634,161.129303 287.074036,152.825195 
	C281.648376,144.024689 273.651276,139.426392 262.300049,140.110764 
z"/>
<path fill="#0B0503" opacity="1.000000" stroke="none" 
	d="
M52.424137,188.290527 
	C40.437660,188.218109 31.686281,183.082855 26.129519,172.935593 
	C20.967575,163.509338 22.477821,153.195770 29.947990,145.501389 
	C32.360729,143.016251 35.125854,140.873215 37.865944,138.264832 
	C43.233212,136.625961 48.451660,134.348526 53.699604,134.278381 
	C57.601170,134.226242 62.258598,136.169907 65.337196,138.722672 
	C77.459160,148.774155 77.855446,171.569427 65.997078,181.938431 
	C62.479351,185.014313 57.254250,186.137573 52.424137,188.290527 
M42.404491,142.411377 
	C40.834042,143.335327 39.211781,144.182129 37.701805,145.196136 
	C29.690422,150.576019 26.551577,160.187195 29.990231,168.660934 
	C33.608810,177.578033 44.123566,183.770493 53.767052,182.211609 
	C61.974346,180.390305 67.431610,174.460678 68.749672,165.016479 
	C69.961555,156.333008 68.237244,148.198151 60.977783,142.513977 
	C55.329556,138.091400 49.077850,139.413254 42.404491,142.411377 
z"/>
<path fill="#8F3229" opacity="1.000000" stroke="none" 
	d="
M194.067017,148.266678 
	C188.936493,149.201630 185.477020,147.439240 183.783630,143.027878 
	C181.469116,136.998459 183.120529,131.705841 188.744858,128.617401 
	C190.409286,131.806870 192.117386,134.613235 192.870453,137.655960 
	C193.718338,141.081741 193.705475,144.720535 194.067017,148.266678 
z"/>
<path fill="#A53F2F" opacity="1.000000" stroke="none" 
	d="
M194.434082,148.212860 
	C193.705475,144.720535 193.718338,141.081741 192.870453,137.655960 
	C192.117386,134.613235 190.409286,131.806870 189.082245,128.553772 
	C196.128647,127.729645 199.393814,129.844620 200.841293,135.854401 
	C202.297607,141.900848 200.464066,145.636093 194.434082,148.212860 
z"/>
<path fill="#8F3229" opacity="1.000000" stroke="none" 
	d="
M132.114120,146.070236 
	C129.082047,149.346161 125.488518,149.591507 121.736595,147.686935 
	C118.119118,145.850632 116.494125,142.726715 116.887199,138.655777 
	C117.278633,134.601807 117.902969,130.645126 122.447281,128.971176 
	C123.376869,128.628754 124.338608,128.373642 125.646568,128.534103 
	C125.387436,135.632812 127.392380,141.337173 132.114120,146.070236 
z"/>
<path fill="#A43F2E" opacity="1.000000" stroke="none" 
	d="
M132.421021,145.871841 
	C127.392380,141.337173 125.387436,135.632812 126.015060,128.553101 
	C134.593628,128.360367 137.836655,136.851776 132.421021,145.871841 
z"/>
<path fill="#903229" opacity="1.000000" stroke="none" 
	d="
M123.142586,88.098068 
	C117.669907,91.370369 111.665031,90.367668 109.468811,85.814804 
	C106.789162,80.259766 109.812973,73.831642 116.668182,71.638275 
	C115.711243,78.669777 121.061798,82.759499 123.142586,88.098068 
z"/>
<path fill="#A43F2E" opacity="1.000000" stroke="none" 
	d="
M123.450180,87.919777 
	C121.061798,82.759499 115.711243,78.669777 117.020996,71.621017 
	C120.738853,70.685974 124.235954,71.412537 125.844383,74.976593 
	C127.870491,79.466202 127.166191,83.928909 123.450180,87.919777 
z"/>
<path fill="#8F3229" opacity="1.000000" stroke="none" 
	d="
M204.087997,89.427177 
	C196.984894,91.020218 193.287613,89.005775 191.650055,82.650429 
	C189.793594,75.445526 192.487061,71.822487 200.636261,71.560196 
	C202.038345,77.842407 203.063171,83.634789 204.087997,89.427177 
z"/>
<path fill="#A63F2F" opacity="1.000000" stroke="none" 
	d="
M204.447906,89.311630 
	C203.063171,83.634789 202.038345,77.842407 201.027069,71.630783 
	C205.579987,71.736313 208.192352,74.568657 208.879440,78.775688 
	C209.542328,82.834663 209.753616,87.137108 204.447906,89.311630 
z"/>
<path fill="#A8402F" opacity="1.000000" stroke="none" 
	d="
M263.030151,140.138412 
	C273.651276,139.426392 281.648376,144.024689 287.074036,152.825195 
	C292.193634,161.129303 288.976593,172.025208 279.999115,178.424240 
	C278.666931,179.373810 277.140747,180.051208 275.353638,180.461700 
	C275.865967,174.849365 273.693542,172.256622 268.440460,171.180649 
	C260.804596,169.616623 257.881866,164.534134 259.495300,156.990631 
	C260.695770,151.377975 261.853455,145.756149 263.030151,140.138412 
z"/>
<path fill="#913229" opacity="1.000000" stroke="none" 
	d="
M262.665100,140.124588 
	C261.853455,145.756149 260.695770,151.377975 259.495300,156.990631 
	C257.881866,164.534134 260.804596,169.616623 268.440460,171.180649 
	C273.693542,172.256622 275.865967,174.849365 275.008545,180.492188 
	C264.118622,185.265060 253.892548,180.460510 250.218216,169.265533 
	C246.083557,156.668076 251.573257,143.420868 262.665100,140.124588 
z"/>
<path fill="#A8402F" opacity="1.000000" stroke="none" 
	d="
M43.060844,142.287399 
	C49.077850,139.413254 55.329556,138.091400 60.977783,142.513977 
	C68.237244,148.198151 69.961555,156.333008 68.749672,165.016479 
	C67.431610,174.460678 61.974346,180.390305 53.531109,181.841522 
	C56.261978,176.358170 55.514473,172.569016 51.829250,168.173904 
	C48.848927,164.619492 45.754276,160.714249 44.329571,156.426590 
	C42.877182,152.055603 43.401814,147.027695 43.060844,142.287399 
z"/>
<path fill="#913229" opacity="1.000000" stroke="none" 
	d="
M42.732666,142.349396 
	C43.401814,147.027695 42.877182,152.055603 44.329571,156.426590 
	C45.754276,160.714249 48.848927,164.619492 51.829250,168.173904 
	C55.514473,172.569016 56.261978,176.358170 53.139080,181.836761 
	C44.123566,183.770493 33.608810,177.578033 29.990231,168.660934 
	C26.551577,160.187195 29.690422,150.576019 37.701805,145.196136 
	C39.211781,144.182129 40.834042,143.335327 42.732666,142.349396 
z"/>
</svg>