<?xml version="1.0" standalone="no"?>
<!DOCTYPE svg PUBLIC "-//W3C//DTD SVG 20010904//EN"
 "http://www.w3.org/TR/2001/REC-SVG-20010904/DTD/svg10.dtd">
<svg version="1.0" xmlns="http://www.w3.org/2000/svg"
 width="1600.000000pt" height="896.000000pt" viewBox="0 0 1600.000000 896.000000"
 preserveAspectRatio="xMidYMid meet">

<g transform="translate(0.000000,896.000000) scale(0.100000,-0.100000)"
fill="#000000" stroke="none">
<path d="M7935 6540 c-414 -48 -927 -71 -1590 -71 -680 -1 -1062 14 -1502 57
-89 9 -207 15 -261 12 -86 -3 -107 -8 -158 -33 -68 -35 -88 -64 -108 -161 -35
-164 -65 -579 -66 -887 l0 -168 -30 16 c-64 33 -69 31 -541 -254 -246 -147
-467 -276 -493 -286 -30 -12 -46 -24 -46 -35 0 -18 735 -2413 745 -2431 4 -5
24 -9 46 -9 l39 0 0 -78 c0 -127 -36 -116 412 -120 211 -2 397 0 414 3 41 7
54 38 54 125 l0 70 3520 0 3520 0 0 -78 c0 -127 -38 -117 429 -120 l401 -3 25
25 c22 22 25 34 25 100 l0 75 42 3 41 3 368 1195 c202 657 371 1207 374 1222
6 25 2 29 -42 50 -26 12 -249 143 -494 290 -473 284 -478 287 -543 253 -15 -8
-30 -15 -32 -15 -2 0 -4 92 -4 204 0 492 -66 892 -165 990 -58 58 -168 72
-375 47 -594 -73 -1953 -85 -2760 -26 -113 9 -243 20 -290 25 -225 26 -363 5
-427 -64 -38 -41 -58 -121 -82 -339 l-17 -152 -13 85 c-34 232 -84 385 -142
434 -50 42 -154 60 -274 46z m-3114 -65 c743 -77 2185 -81 2899 -8 91 10 221
17 290 18 113 0 128 -2 156 -22 114 -82 185 -557 171 -1153 -12 -489 -67 -869
-154 -1063 -21 -46 -35 -62 -65 -78 -57 -29 -140 -37 -228 -22 -252 43 -677
97 -990 125 -216 19 -847 16 -1080 -5 -256 -23 -662 -75 -886 -113 -50 -8
-110 -14 -133 -12 l-43 3 -230 540 -230 540 6 285 c9 408 36 732 71 855 34
120 130 143 446 110z m4100 0 c730 -78 2163 -81 2899 -8 96 10 228 18 292 18
102 0 120 -3 145 -21 95 -70 153 -340 173 -806 5 -122 7 -276 3 -342 l-6 -119
-224 -526 c-123 -289 -228 -530 -233 -535 -5 -5 -74 2 -167 17 -885 148 -1538
172 -2293 86 -153 -17 -442 -57 -619 -86 -147 -24 -170 -25 -225 -14 -135 28
-171 76 -206 271 -37 213 -51 412 -57 810 -6 421 5 715 37 965 30 228 40 252
122 284 66 25 163 27 359 6z m-5271 -1734 c36 -12 79 -29 96 -40 19 -11 147
-179 332 -435 l301 -416 20 -617 c11 -340 23 -680 27 -755 l6 -138 -254 0
-254 0 -362 1178 c-199 647 -362 1182 -362 1188 0 10 111 46 180 58 53 10 207
-4 270 -23z m9808 -2 c79 -23 82 -25 77 -49 -3 -14 -167 -547 -363 -1185
l-357 -1160 -239 -3 c-225 -2 -238 -1 -230 15 5 10 10 174 12 364 2 279 0 355
-11 388 -12 35 -13 47 -1 78 10 29 13 117 14 353 l0 315 304 420 c296 408 306
420 356 442 130 57 287 65 438 22z m-5178 -704 c59 -31 60 -38 60 -444 0 -203
-3 -376 -6 -385 -6 -15 -186 -16 -1939 -16 l-1932 0 -7 128 c-3 70 -8 224 -12
342 l-5 215 133 87 133 88 1773 0 c1565 0 1776 -2 1802 -15z m3885 -75 l135
-90 0 -320 c0 -175 -4 -329 -9 -342 l-9 -23 -1938 5 -1939 5 -3 391 c-2 387
-2 391 19 418 12 15 31 32 43 36 11 5 819 9 1794 9 l1773 1 134 -90z m116
-849 c18 -22 19 -43 19 -371 0 -328 -1 -349 -19 -371 l-19 -24 -3878 -3
c-2524 -1 -3881 1 -3888 8 -5 5 -13 116 -17 247 -4 131 -10 302 -13 381 -6
141 -6 143 16 152 14 5 1593 8 3901 7 l3879 -2 19 -24z"/>
<path d="M5448 5745 c-4 -22 -10 -94 -14 -160 l-7 -120 -41 -20 c-28 -14 -47
-33 -61 -62 -23 -47 -25 -47 -222 -59 -62 -4 -113 -10 -113 -14 0 -4 62 -10
138 -14 156 -8 182 -13 182 -31 0 -22 52 -77 86 -91 l32 -13 7 -130 c10 -185
19 -220 28 -106 21 258 15 234 59 256 21 11 47 34 58 52 32 55 32 54 189 62
83 4 151 11 151 15 0 4 -53 10 -117 14 -177 10 -201 15 -209 40 -9 29 -51 72
-84 86 -27 11 -28 15 -35 108 -4 54 -10 126 -14 162 -6 63 -7 64 -13 25z"/>
<path d="M7171 5624 c-6 -87 -16 -160 -21 -162 -30 -11 -78 -53 -95 -84 -22
-42 -28 -43 -212 -54 -68 -4 -123 -10 -123 -14 0 -4 68 -11 151 -15 157 -8
157 -7 189 -62 11 -18 37 -41 58 -52 44 -23 43 -20 58 -241 9 -125 18 -105 28
60 9 159 10 162 56 183 27 13 44 30 57 57 10 21 27 41 38 44 11 2 82 8 158 12
75 4 137 10 137 14 0 4 -51 10 -112 14 -197 12 -203 13 -217 52 -8 22 -28 45
-54 62 -23 15 -45 31 -48 36 -4 5 -10 68 -14 140 -4 72 -11 140 -15 150 -3 11
-12 -52 -19 -140z"/>
<path d="M9532 5622 c-6 -86 -16 -158 -21 -160 -31 -10 -79 -52 -96 -84 -22
-42 -28 -43 -212 -54 -67 -4 -120 -10 -118 -14 3 -5 70 -11 149 -15 79 -4 149
-11 155 -15 7 -4 20 -22 29 -41 10 -19 34 -43 57 -56 47 -26 49 -35 60 -222 4
-67 11 -117 15 -111 4 7 11 72 15 144 4 72 11 140 15 152 5 11 22 27 40 34 18
8 41 30 56 56 14 24 33 45 42 48 9 3 79 8 155 12 75 3 137 10 137 14 0 4 -55
11 -123 15 -171 10 -184 13 -205 55 -15 31 -62 72 -94 82 -7 3 -15 62 -22 155
-6 83 -14 154 -17 157 -3 3 -10 -65 -17 -152z"/>
<path d="M11277 5735 c-3 -27 -9 -99 -13 -160 l-7 -110 -41 -20 c-28 -14 -47
-33 -61 -62 -23 -47 -25 -47 -222 -59 -62 -4 -113 -10 -113 -14 0 -4 62 -10
138 -14 156 -8 182 -13 182 -31 0 -22 52 -77 86 -91 l32 -13 7 -123 c4 -68 10
-141 14 -163 8 -43 8 -40 27 205 l7 81 39 20 c21 11 47 34 58 52 32 55 32 54
189 62 83 4 151 11 151 15 0 4 -53 10 -117 14 -177 10 -201 15 -209 40 -9 29
-51 72 -84 86 -27 11 -28 15 -35 108 -4 54 -10 126 -14 162 l-7 65 -7 -50z"/>
</g>
</svg>
