<?xml version="1.0" standalone="no"?>
<!DOCTYPE svg PUBLIC "-//W3C//DTD SVG 20010904//EN"
 "http://www.w3.org/TR/2001/REC-SVG-20010904/DTD/svg10.dtd">
<svg version="1.0" xmlns="http://www.w3.org/2000/svg"
 width="512.000000pt" height="512.000000pt" viewBox="0 0 512.000000 512.000000"
 preserveAspectRatio="xMidYMid meet">

<g transform="translate(0.000000,512.000000) scale(0.100000,-0.100000)"
fill="#000000" stroke="none">
<path d="M571 5106 c-49 -18 -111 -74 -132 -120 -17 -37 -19 -69 -19 -312 0
-251 1 -274 19 -295 26 -32 86 -32 112 0 17 21 19 44 19 281 0 239 1 260 19
281 l19 24 1952 0 1952 0 19 -24 c19 -23 19 -64 19 -1697 l0 -1674 -652 0
-652 0 26 27 c38 42 50 71 50 124 0 43 -21 89 -197 431 -109 211 -204 393
-212 405 -21 31 -92 63 -141 63 -31 0 -70 -14 -142 -50 l-100 -50 0 25 c0 39
-36 101 -77 132 -35 27 -41 28 -185 33 l-149 5 -22 40 c-13 22 -40 49 -62 62
-36 21 -53 23 -187 23 -153 0 -187 -7 -226 -43 -39 -36 -54 -76 -59 -159 l-6
-78 -149 0 c-164 0 -186 -6 -231 -60 -15 -17 -31 -47 -37 -68 -6 -23 -10 -197
-10 -449 l0 -413 -130 0 -130 0 0 715 0 715 1690 0 1690 0 0 -590 0 -591 25
-24 c31 -32 69 -32 100 0 l25 24 0 1476 0 1476 -25 24 -24 25 -1791 0 -1791 0
-24 -25 -25 -24 0 -1601 0 -1600 -75 0 -75 0 0 1259 0 1260 -22 25 c-33 36
-75 39 -108 6 -20 -20 -20 -33 -20 -1982 0 -1877 1 -1965 19 -2003 23 -51 89
-111 138 -124 26 -8 643 -11 1984 -11 2150 0 1997 -5 2068 63 18 18 42 50 52
72 18 39 19 123 19 2425 0 2296 -1 2387 -19 2426 -23 49 -88 107 -140 122 -57
18 -3922 16 -3970 -2z m3679 -1196 l0 -760 -105 0 -104 0 -3 478 -3 479 -28
36 c-48 63 -73 71 -244 75 l-153 4 0 32 c0 41 -38 115 -71 139 -36 26 -95 36
-209 36 -167 0 -216 -19 -257 -99 -22 -43 -23 -54 -23 -325 0 -307 1 -313 59
-333 35 -12 70 3 88 38 9 18 13 98 13 293 l0 267 45 0 45 0 0 -560 0 -560 -44
0 -44 0 -4 141 c-3 140 -3 141 -31 165 -34 29 -71 25 -104 -13 -22 -22 -23
-33 -23 -159 l0 -135 -101 3 -101 3 -130 220 c-72 121 -133 227 -135 237 -3 9
14 69 36 133 56 158 54 223 -7 289 -60 63 -74 66 -427 66 -291 0 -324 -2 -361
-19 -78 -35 -73 -24 -366 -873 l-20 -58 -284 0 -284 0 0 760 0 760 1690 0
1690 0 0 -760z m-362 -307 l2 -453 -140 0 -140 0 0 455 0 456 138 -3 137 -3 3
-452z m-1390 335 c7 -7 12 -19 12 -28 0 -8 -57 -183 -127 -387 l-128 -373
-327 0 c-181 0 -328 2 -328 4 0 21 272 781 282 787 22 14 602 11 616 -3z m96
-648 c42 -71 76 -132 76 -135 0 -3 -58 -5 -128 -5 l-128 0 45 135 c26 74 49
135 52 135 4 0 41 -58 83 -130z m-784 -1160 l0 -560 -45 0 -45 0 0 553 c0 305
3 557 7 560 3 4 24 7 45 7 l38 0 0 -560z m564 414 c3 -9 6 -231 6 -495 l0
-479 -125 0 -125 0 0 495 0 495 119 0 c99 0 120 -3 125 -16z m608 -443 c103
-200 188 -371 188 -380 0 -21 -205 -130 -218 -116 -22 23 -395 759 -386 762 5
2 50 26 99 52 50 27 99 49 110 48 15 -2 62 -85 207 -366z m-1422 -111 l0 -420
-135 0 -135 0 0 420 0 420 135 0 135 0 0 -420z m1104 -161 c69 -135 126 -249
126 -252 0 -4 -58 -7 -130 -7 l-130 0 0 257 c0 141 2 254 4 252 2 -2 60 -115
130 -250z m1886 -1023 c0 -580 -1 -605 -19 -627 l-19 -24 -1946 -3 -1947 -2
-24 24 -25 25 0 606 0 605 1990 0 1990 0 0 -604z"/>
<path d="M764 1256 c-17 -8 -34 -21 -38 -31 -3 -9 -6 -210 -6 -446 l0 -430 25
-24 24 -25 1791 0 1791 0 24 25 25 24 0 431 c0 262 -4 438 -10 450 -5 10 -24
23 -41 29 -23 8 -532 11 -1793 11 -1456 -1 -1766 -3 -1792 -14z m1746 -476 l0
-330 -820 0 -820 0 0 330 0 330 820 0 820 0 0 -330z m1740 0 l0 -330 -795 0
-795 0 0 330 0 330 795 0 795 0 0 -330z"/>
<path d="M1603 848 c-48 -23 -51 -103 -4 -127 11 -6 70 -11 131 -11 61 0 120
5 131 11 48 25 44 105 -7 128 -31 14 -221 13 -251 -1z"/>
<path d="M3315 835 c-30 -30 -32 -64 -4 -99 20 -26 23 -26 143 -26 115 0 124
1 144 23 29 31 28 72 -3 102 -23 24 -30 25 -140 25 -110 0 -117 -1 -140 -25z"/>
</g>
</svg>
