<svg version="1.1" id="Layer_1" xmlns="http://www.w3.org/2000/svg" xmlns:xlink="http://www.w3.org/1999/xlink" x="0px" y="0px"
	 width="100%" viewBox="0 0 362 357" enable-background="new 0 0 362 357" xml:space="preserve">
<path fill="#F7F7F7" opacity="1.000000" stroke="none" 
	d="
M210.000000,358.000000 
	C140.024170,358.000000 70.548325,358.000000 1.036245,358.000000 
	C1.036245,239.065552 1.036245,120.131081 1.036245,1.098305 
	C121.559105,1.098305 242.118317,1.098305 362.838745,1.098305 
	C362.838745,119.999825 362.838745,238.999893 362.838745,358.000000 
	C312.131165,358.000000 261.315582,358.000000 210.000000,358.000000 
M342.187988,201.289703 
	C342.774750,199.079254 343.799591,196.884125 343.877472,194.655884 
	C344.402496,179.641525 343.403107,164.773438 340.140533,150.024490 
	C320.774628,62.479069 231.588486,7.270550 144.977951,29.924459 
	C92.923416,43.539879 56.263332,75.789047 35.625439,125.401421 
	C25.353514,150.094559 20.858320,176.011154 25.186338,203.388077 
	C26.089989,208.894623 26.777195,214.446915 27.929697,219.900879 
	C45.651798,303.766724 131.431015,359.797668 215.164764,342.012299 
	C262.906555,331.871765 299.206635,305.529480 323.501038,263.193848 
	C334.319122,244.342163 341.732880,224.204514 342.187988,201.289703 
z"/>
<path fill="#FF5A77" opacity="1.000000" stroke="none" 
	d="
M25.803331,202.875458 
	C20.858320,176.011154 25.353514,150.094559 35.625439,125.401421 
	C56.263332,75.789047 92.923416,43.539879 144.977951,29.924459 
	C231.588486,7.270550 320.774628,62.479069 340.140533,150.024490 
	C343.403107,164.773438 344.402496,179.641525 343.877472,194.655884 
	C343.799591,196.884125 342.774750,199.079254 341.798889,201.916351 
	C340.951569,204.302704 340.410248,206.045471 340.047455,207.824646 
	C334.363556,235.699631 321.237274,259.852539 302.449677,280.867676 
	C288.382935,296.602234 271.518768,308.811615 252.346786,317.921021 
	C221.161194,332.738495 188.456451,336.836945 154.845535,330.587708 
	C117.560188,323.655334 86.317787,305.484711 61.672985,276.273346 
	C45.860664,257.531128 35.061451,236.337387 28.935772,212.661743 
	C28.079203,209.351105 26.856531,206.135208 25.803331,202.875458 
M317.533295,185.194489 
	C316.580566,175.949509 316.419800,166.541168 314.551666,157.485001 
	C297.237244,73.549171 204.708832,27.605106 127.310677,64.122406 
	C77.288414,87.723457 47.193596,139.964874 50.938026,192.907654 
	C51.711884,199.500504 51.934731,206.213730 53.344482,212.667679 
	C68.104080,280.238037 130.299347,325.560120 199.631744,317.573700 
	C236.601715,313.315125 266.756042,295.891083 289.602875,266.560394 
	C306.593384,244.748047 316.149811,219.907654 317.112366,191.220993 
	C317.092560,190.154541 317.072784,189.088104 317.413513,187.583694 
	C317.350555,187.048172 317.287598,186.512634 317.533295,185.194489 
z"/>
<path fill="#E74C60" opacity="1.000000" stroke="none" 
	d="
M25.494835,203.131775 
	C26.856531,206.135208 28.079203,209.351105 28.935772,212.661743 
	C35.061451,236.337387 45.860664,257.531128 61.672985,276.273346 
	C86.317787,305.484711 117.560188,323.655334 154.845535,330.587708 
	C188.456451,336.836945 221.161194,332.738495 252.346786,317.921021 
	C271.518768,308.811615 288.382935,296.602234 302.449677,280.867676 
	C321.237274,259.852539 334.363556,235.699631 340.047455,207.824646 
	C340.410248,206.045471 340.951569,204.302704 341.679199,202.285767 
	C341.732880,224.204514 334.319122,244.342163 323.501038,263.193848 
	C299.206635,305.529480 262.906555,331.871765 215.164764,342.012299 
	C131.431015,359.797668 45.651798,303.766724 27.929697,219.900879 
	C26.777195,214.446915 26.089989,208.894623 25.494835,203.131775 
z"/>
<path fill="#E4EEF9" opacity="1.000000" stroke="none" 
	d="
M317.052979,188.021652 
	C317.072784,189.088104 317.092560,190.154541 316.761688,191.878296 
	C313.182526,210.144653 307.815582,226.967102 298.343781,242.321533 
	C287.093750,260.558502 272.637238,275.586884 254.342590,286.865479 
	C238.132187,296.859131 220.591522,303.213531 201.758148,305.755981 
	C196.886520,306.413635 191.837524,305.757202 187.077393,305.397034 
	C187.661438,298.284027 188.208023,291.478577 188.217361,284.672394 
	C188.218658,283.734894 185.573578,282.089417 184.120712,282.052002 
	C182.664001,282.014526 179.976547,283.461212 179.876953,284.461395 
	C179.169159,291.570068 177.214798,298.851288 180.876556,306.032196 
	C174.923904,305.937653 169.179977,305.828064 163.529434,305.044861 
	C135.089828,301.103210 110.762932,288.446960 90.350327,268.641113 
	C75.642601,254.370560 64.576096,237.378784 58.139904,217.746719 
	C55.370094,209.298050 53.386887,200.591507 51.046318,192.002121 
	C47.193596,139.964874 77.288414,87.723457 127.310677,64.122406 
	C204.708832,27.605106 297.237244,73.549171 314.551666,157.485001 
	C316.419800,166.541168 316.580566,175.949509 317.165344,185.683319 
	C316.882568,186.788666 316.967773,187.405151 317.052979,188.021652 
M167.268188,185.772095 
	C170.714401,200.160294 180.183624,204.838028 193.995743,199.407196 
	C208.289276,211.569244 222.576920,223.738205 236.880188,235.888794 
	C240.804733,239.222672 244.536346,242.878815 248.845963,245.616608 
	C250.528961,246.685776 254.241638,246.534271 255.819275,245.339813 
	C258.285858,243.472305 257.298706,240.566742 255.030304,238.471405 
	C253.563095,237.116135 252.137772,235.710175 250.609604,234.427078 
	C240.942780,226.310669 231.277756,218.191711 221.561615,210.134537 
	C214.163559,203.999634 206.690735,197.954880 199.359879,191.188400 
	C199.909302,188.640671 200.458740,186.092941 201.619919,183.175034 
	C203.794006,180.881607 205.968094,178.588181 208.764053,176.011230 
	C216.584900,168.084808 224.466095,160.216675 232.201416,152.207657 
	C236.136078,148.133789 236.193954,141.896255 232.628983,138.275635 
	C228.889664,134.477982 222.858322,134.298584 218.752335,138.373154 
	C210.977936,146.088074 203.458435,154.059845 195.236740,162.195374 
	C193.128769,164.437241 191.020798,166.679108 188.007553,168.925186 
	C184.682755,169.012238 181.357971,169.099274 177.548294,168.703430 
	C175.360001,166.804092 173.171707,164.904755 170.687057,162.409302 
	C153.521439,147.146240 136.390717,131.843597 119.166206,116.647285 
	C114.734833,112.737717 108.941177,113.013641 105.294365,116.920013 
	C101.658249,120.814934 101.793144,126.932480 106.084457,130.773392 
	C123.563843,146.418259 141.167969,161.923752 159.077667,178.006027 
	C161.761230,180.350143 164.444794,182.694260 167.268188,185.772095 
M298.177002,189.916367 
	C301.741455,189.978226 305.160919,189.582901 305.098541,184.915482 
	C305.035828,180.220474 301.510773,180.056366 298.011292,180.078766 
	C294.531189,180.101059 291.050323,180.119400 287.570648,180.074417 
	C284.133789,180.029999 280.998749,180.583130 280.907715,184.864639 
	C280.817749,189.095840 283.765106,189.971268 287.303711,189.924576 
	C290.617676,189.880844 293.932648,189.916092 298.177002,189.916367 
M63.537479,182.229202 
	C62.119926,185.695496 62.518833,189.087021 66.553642,189.567856 
	C72.109055,190.229874 77.829483,190.030609 83.417374,189.521530 
	C84.781784,189.397217 86.694588,186.725006 86.895424,185.049316 
	C87.062492,183.655350 85.097252,180.688965 84.060417,180.681595 
	C77.401047,180.634186 70.737236,181.210327 63.537479,182.229202 
M179.076172,70.829361 
	C179.079208,74.808426 179.034088,78.788300 179.100189,82.766312 
	C179.155090,86.069931 180.674866,88.210983 184.215500,88.108742 
	C187.508987,88.013649 188.847061,85.868973 188.897125,82.830292 
	C188.965393,78.686508 188.905655,74.540771 188.927368,70.396011 
	C188.944199,67.183914 188.468658,64.191277 184.478821,63.897346 
	C180.280060,63.588020 179.060120,66.280312 179.076172,70.829361 
z"/>
<path fill="#D6DEF0" opacity="1.000000" stroke="none" 
	d="
M186.869995,305.704407 
	C191.837524,305.757202 196.886520,306.413635 201.758148,305.755981 
	C220.591522,303.213531 238.132187,296.859131 254.342590,286.865479 
	C272.637238,275.586884 287.093750,260.558502 298.343781,242.321533 
	C307.815582,226.967102 313.182526,210.144653 316.678040,192.270645 
	C316.149811,219.907654 306.593384,244.748047 289.602875,266.560394 
	C266.756042,295.891083 236.601715,313.315125 199.631744,317.573700 
	C130.299347,325.560120 68.104080,280.238037 53.344482,212.667679 
	C51.934731,206.213730 51.711884,199.500504 50.992172,192.454895 
	C53.386887,200.591507 55.370094,209.298050 58.139904,217.746719 
	C64.576096,237.378784 75.642601,254.370560 90.350327,268.641113 
	C110.762932,288.446960 135.089828,301.103210 163.529434,305.044861 
	C169.179977,305.828064 174.923904,305.937653 181.283493,306.111938 
	C183.584808,305.812164 185.227402,305.758270 186.869995,305.704407 
z"/>
<path fill="#D6DEF0" opacity="1.000000" stroke="none" 
	d="
M317.233246,187.802673 
	C316.967773,187.405151 316.882568,186.788666 317.010986,186.074646 
	C317.287598,186.512634 317.350555,187.048172 317.233246,187.802673 
z"/>
<path fill="#435D6E" opacity="1.000000" stroke="none" 
	d="
M158.726120,177.480606 
	C141.167969,161.923752 123.563843,146.418259 106.084457,130.773392 
	C101.793144,126.932480 101.658249,120.814934 105.294365,116.920013 
	C108.941177,113.013641 114.734833,112.737717 119.166206,116.647285 
	C136.390717,131.843597 153.521439,147.146240 170.470932,162.720856 
	C163.724762,165.704330 160.507965,171.019958 158.726120,177.480606 
z"/>
<path fill="#425D6E" opacity="1.000000" stroke="none" 
	d="
M195.833038,161.924896 
	C203.458435,154.059845 210.977936,146.088074 218.752335,138.373154 
	C222.858322,134.298584 228.889664,134.477982 232.628983,138.275635 
	C236.193954,141.896255 236.136078,148.133789 232.201416,152.207657 
	C224.466095,160.216675 216.584900,168.084808 208.419708,175.748199 
	C206.575607,168.634918 202.375854,164.222244 195.833038,161.924896 
z"/>
<path fill="#89DCFF" opacity="1.000000" stroke="none" 
	d="
M199.251160,191.870041 
	C206.690735,197.954880 214.163559,203.999634 221.561615,210.134537 
	C231.277756,218.191711 240.942780,226.310669 250.609604,234.427078 
	C252.137772,235.710175 253.563095,237.116135 255.030304,238.471405 
	C257.298706,240.566742 258.285858,243.472305 255.819275,245.339813 
	C254.241638,246.534271 250.528961,246.685776 248.845963,245.616608 
	C244.536346,242.878815 240.804733,239.222672 236.880188,235.888794 
	C222.576920,223.738205 208.289276,211.569244 194.005783,198.812439 
	C195.760941,196.101791 197.506058,193.985916 199.251160,191.870041 
z"/>
<path fill="#FC5876" opacity="1.000000" stroke="none" 
	d="
M178.033173,169.186310 
	C181.357971,169.099274 184.682755,169.012238 188.767059,169.096085 
	C194.078812,171.477707 198.045486,174.243210 199.128693,179.911240 
	C195.908035,186.375061 190.917328,189.864120 184.120636,189.901810 
	C176.867905,189.942062 171.768494,186.118820 168.752502,179.242340 
	C171.879623,175.666611 174.956406,172.426468 178.033173,169.186310 
z"/>
<path fill="#E54C61" opacity="1.000000" stroke="none" 
	d="
M168.702148,179.577942 
	C171.768494,186.118820 176.867905,189.942062 184.120636,189.901810 
	C190.917328,189.864120 195.908035,186.375061 199.330505,180.222107 
	C200.136917,181.316544 200.572540,182.430878 201.008179,183.545212 
	C200.458740,186.092941 199.909302,188.640671 199.305511,191.529221 
	C197.506058,193.985916 195.760941,196.101791 193.818008,198.503738 
	C180.183624,204.838028 170.714401,200.160294 167.391357,185.109558 
	C167.910400,182.823990 168.306274,181.200974 168.702148,179.577942 
z"/>
<path fill="#476273" opacity="1.000000" stroke="none" 
	d="
M187.077393,305.397034 
	C185.227402,305.758270 183.584808,305.812164 181.535278,305.786255 
	C177.214798,298.851288 179.169159,291.570068 179.876953,284.461395 
	C179.976547,283.461212 182.664001,282.014526 184.120712,282.052002 
	C185.573578,282.089417 188.218658,283.734894 188.217361,284.672394 
	C188.208023,291.478577 187.661438,298.284027 187.077393,305.397034 
z"/>
<path fill="#486273" opacity="1.000000" stroke="none" 
	d="
M297.712097,189.916473 
	C293.932648,189.916092 290.617676,189.880844 287.303711,189.924576 
	C283.765106,189.971268 280.817749,189.095840 280.907715,184.864639 
	C280.998749,180.583130 284.133789,180.029999 287.570648,180.074417 
	C291.050323,180.119400 294.531189,180.101059 298.011292,180.078766 
	C301.510773,180.056366 305.035828,180.220474 305.098541,184.915482 
	C305.160919,189.582901 301.741455,189.978226 297.712097,189.916473 
z"/>
<path fill="#486273" opacity="1.000000" stroke="none" 
	d="
M63.806183,181.905411 
	C70.737236,181.210327 77.401047,180.634186 84.060417,180.681595 
	C85.097252,180.688965 87.062492,183.655350 86.895424,185.049316 
	C86.694588,186.725006 84.781784,189.397217 83.417374,189.521530 
	C77.829483,190.030609 72.109055,190.229874 66.553642,189.567856 
	C62.518833,189.087021 62.119926,185.695496 63.806183,181.905411 
z"/>
<path fill="#476273" opacity="1.000000" stroke="none" 
	d="
M179.076996,70.376137 
	C179.060120,66.280312 180.280060,63.588020 184.478821,63.897346 
	C188.468658,64.191277 188.944199,67.183914 188.927368,70.396011 
	C188.905655,74.540771 188.965393,78.686508 188.897125,82.830292 
	C188.847061,85.868973 187.508987,88.013649 184.215500,88.108742 
	C180.674866,88.210983 179.155090,86.069931 179.100189,82.766312 
	C179.034088,78.788300 179.079208,74.808426 179.076996,70.376137 
z"/>
<path fill="#324658" opacity="1.000000" stroke="none" 
	d="
M168.752502,179.242340 
	C168.306274,181.200974 167.910400,182.823990 167.321442,184.742706 
	C164.444794,182.694260 161.761230,180.350143 158.901886,177.743317 
	C160.507965,171.019958 163.724762,165.704330 170.619110,163.018921 
	C173.171707,164.904755 175.360001,166.804092 177.790741,168.944885 
	C174.956406,172.426468 171.879623,175.666611 168.752502,179.242340 
z"/>
<path fill="#314658" opacity="1.000000" stroke="none" 
	d="
M201.314041,183.360123 
	C200.572540,182.430878 200.136917,181.316544 199.499466,179.891357 
	C198.045486,174.243210 194.078812,171.477707 189.219696,169.093979 
	C191.020798,166.679108 193.128769,164.437241 195.534882,162.060150 
	C202.375854,164.222244 206.575607,168.634918 208.108780,175.889954 
	C205.968094,178.588181 203.794006,180.881607 201.314041,183.360123 
z"/>
</svg>