<svg version="1.1" id="Layer_1" xmlns="http://www.w3.org/2000/svg" xmlns:xlink="http://www.w3.org/1999/xlink" x="0px" y="0px"
	 width="100%" viewBox="0 0 366 240" enable-background="new 0 0 366 240" xml:space="preserve">
<path fill="#F6F7F7" opacity="1.000000" stroke="none" 
	d="
M208.000000,241.000000 
	C138.695068,241.000000 69.890121,241.000000 1.042593,241.000000 
	C1.042593,161.061417 1.042593,81.122803 1.042593,1.092096 
	C122.888214,1.092096 244.776520,1.092096 366.832397,1.092096 
	C366.832397,80.999725 366.832397,160.999832 366.832397,241.000000 
	C314.122925,241.000000 261.311462,241.000000 208.000000,241.000000 
M82.644600,224.146072 
	C83.102798,224.080719 83.560997,224.015381 84.950188,224.041214 
	C92.267319,223.910019 99.584457,223.778824 107.815254,223.921356 
	C171.142532,223.930618 234.471634,224.210663 297.795959,223.782364 
	C316.533203,223.655640 334.136993,217.768173 350.415100,208.307739 
	C354.422394,205.978790 356.001617,202.759171 354.230316,198.242447 
	C351.317200,190.814224 348.418152,183.380478 345.393280,175.167587 
	C341.076569,163.999405 336.759827,152.831223 332.388763,140.902420 
	C328.126434,129.913605 323.864105,118.924789 319.440552,107.152611 
	C315.668182,97.243721 311.980804,87.301346 308.093719,77.437668 
	C305.478302,70.800827 301.830933,69.485336 295.660614,72.911957 
	C281.851288,80.580803 267.108765,84.105240 251.303864,84.028877 
	C221.203323,83.883438 191.101166,84.069565 160.074768,83.957001 
	C154.087387,83.933289 148.099991,83.909576 142.063965,83.105423 
	C143.040283,79.251518 144.031662,75.401367 144.990189,71.543037 
	C148.338501,58.065132 140.341812,43.478058 126.570503,38.303764 
	C114.757477,35.020130 103.440361,36.493050 95.893349,46.356163 
	C90.459755,53.457256 87.752388,62.644398 83.901367,70.975258 
	C83.901367,70.975258 83.970261,70.897789 83.297569,70.700600 
	C83.126190,71.125504 82.954811,71.550407 82.268311,72.429939 
	C78.466995,81.258369 74.665672,90.086807 70.340233,99.355515 
	C65.806946,109.269943 61.273663,119.184380 56.196529,129.499207 
	C51.830212,139.680374 47.463890,149.861557 42.675240,160.599014 
	C41.178635,163.568146 39.565022,166.484711 38.203930,169.514709 
	C27.319136,193.745804 44.993599,222.969345 71.654076,223.985580 
	C72.103188,223.934296 72.552307,223.883011 73.821121,224.011444 
	C75.212799,223.950974 76.604485,223.890503 78.778358,223.997452 
	C79.843842,223.977295 80.909325,223.957153 82.644600,224.146072 
z"/>
<path fill="#44CD8E" opacity="1.000000" stroke="none" 
	d="
M345.513184,175.949066 
	C348.418152,183.380478 351.317200,190.814224 354.230316,198.242447 
	C356.001617,202.759171 354.422394,205.978790 350.415100,208.307739 
	C334.136993,217.768173 316.533203,223.655640 297.795959,223.782364 
	C234.471634,224.210663 171.142532,223.930618 107.438667,223.456848 
	C122.228539,216.646515 129.402557,204.194183 133.484039,189.008087 
	C186.899185,188.988068 239.848419,189.184219 292.793213,188.788620 
	C302.290955,188.717682 311.931824,186.869293 321.210388,184.619797 
	C329.523407,182.604370 337.428253,178.905334 345.513184,175.949066 
z"/>
<path fill="#01B965" opacity="1.000000" stroke="none" 
	d="
M345.453247,175.558319 
	C337.428253,178.905334 329.523407,182.604370 321.210388,184.619797 
	C311.931824,186.869293 302.290955,188.717682 292.793213,188.788620 
	C239.848419,189.184219 186.899185,188.988068 133.468170,188.983368 
	C132.984879,188.972458 132.949142,188.925842 133.017502,188.551849 
	C133.805435,185.656677 134.598831,183.153870 135.231354,180.611053 
	C137.519058,171.414032 139.752670,162.203568 142.294312,152.988495 
	C142.773209,152.964340 142.964493,152.949875 143.614655,152.934906 
	C191.345871,152.935989 238.618317,152.984268 285.890411,152.871780 
	C290.994995,152.859650 296.272369,152.572052 301.164734,151.268280 
	C311.696167,148.461716 322.028992,144.909866 332.443115,141.663055 
	C336.759827,152.831223 341.076569,163.999405 345.453247,175.558319 
z"/>
<path fill="#42CD8D" opacity="1.000000" stroke="none" 
	d="
M332.415924,141.282745 
	C322.028992,144.909866 311.696167,148.461716 301.164734,151.268280 
	C296.272369,152.572052 290.994995,152.859650 285.890411,152.871780 
	C238.618317,152.984268 191.345871,152.935989 143.615784,152.554672 
	C146.458359,140.137909 149.758652,128.100876 153.061768,116.060692 
	C153.064590,116.057526 153.083725,116.089287 153.547058,116.088539 
	C192.814438,116.082848 231.621902,115.773926 270.420898,116.213158 
	C287.441925,116.405838 303.877472,114.690506 319.601776,107.935974 
	C323.864105,118.924789 328.126434,129.913605 332.415924,141.282745 
z"/>
<path fill="#01B966" opacity="1.000000" stroke="none" 
	d="
M319.521179,107.544296 
	C303.877472,114.690506 287.441925,116.405838 270.420898,116.213158 
	C231.621902,115.773926 192.814438,116.082848 153.561508,115.694473 
	C153.881744,112.597099 154.729355,109.912483 155.405060,107.185280 
	C157.307770,99.505569 159.139786,91.808350 160.999680,84.118027 
	C191.101166,84.069565 221.203323,83.883438 251.303864,84.028877 
	C267.108765,84.105240 281.851288,80.580803 295.660614,72.911957 
	C301.830933,69.485336 305.478302,70.800827 308.093719,77.437668 
	C311.980804,87.301346 315.668182,97.243721 319.521179,107.544296 
z"/>
<path fill="#43CD8E" opacity="1.000000" stroke="none" 
	d="
M70.864349,98.915237 
	C74.665672,90.086807 78.466995,81.258369 82.785187,72.095566 
	C83.524803,71.473396 83.747536,71.185593 83.970261,70.897789 
	C83.970261,70.897789 83.901367,70.975258 84.230362,70.943253 
	C91.623711,65.940407 99.007515,61.946793 108.072403,63.572426 
	C104.338982,72.668953 100.643684,81.405228 96.829193,90.423286 
	C111.541138,92.098145 122.002480,98.849358 127.930115,111.927643 
	C129.138306,114.593307 130.052124,117.392403 131.090164,120.538521 
	C130.732239,122.717499 130.477554,124.511833 130.023895,126.254356 
	C127.702347,135.171356 125.329475,144.074997 122.760193,153.021210 
	C122.545837,153.059113 122.113083,153.106781 121.929207,152.746536 
	C120.816261,148.888046 120.354996,145.177139 118.878044,141.927948 
	C112.086716,126.987556 99.989120,119.837128 83.956802,118.538948 
	C87.946419,109.328186 91.868675,100.478439 96.229256,90.639709 
	C92.276886,91.078506 89.157898,90.845573 86.499619,91.841873 
	C81.154953,93.845032 76.061478,96.518417 70.864349,98.915237 
z"/>
<path fill="#01B965" opacity="1.000000" stroke="none" 
	d="
M77.996162,223.830017 
	C76.604485,223.890503 75.212799,223.950974 73.366455,223.645813 
	C72.599594,222.987564 72.287392,222.694931 71.975189,222.402283 
	C71.649307,222.865433 71.323418,223.328598 70.997528,223.791748 
	C44.993599,222.969345 27.319136,193.745804 38.203930,169.514709 
	C39.565022,166.484711 41.178635,163.568146 43.229568,160.305023 
	C46.458103,157.877502 48.838493,155.066986 51.868011,153.752106 
	C58.071625,151.059647 64.623703,149.170059 71.478073,146.982452 
	C86.369186,147.155182 98.272430,152.197540 105.936501,165.037979 
	C103.584648,170.710999 101.544212,176.160248 99.128624,182.611420 
	C98.451820,180.987762 98.172150,180.462280 98.008446,179.902847 
	C93.844070,165.671860 84.060341,159.237213 69.234367,160.991959 
	C56.225182,162.531677 46.227654,178.046661 49.661873,190.662567 
	C51.516541,197.475861 55.481739,202.406006 60.881126,206.931458 
	C65.017799,213.884048 70.682854,218.518356 77.993454,221.461029 
	C77.996025,222.475418 77.996094,223.152710 77.996162,223.830017 
z"/>
<path fill="#45CD8F" opacity="1.000000" stroke="none" 
	d="
M127.094681,38.879639 
	C140.341812,43.478058 148.338501,58.065132 144.990189,71.543037 
	C144.031662,75.401367 143.040283,79.251518 141.814484,83.746735 
	C140.716537,86.596886 139.868057,88.805733 138.736450,90.790833 
	C136.117813,83.114700 133.819092,75.324532 127.028618,70.823746 
	C121.806053,67.362206 115.598198,65.387192 109.864578,62.380562 
	C112.315849,51.834797 118.479263,44.445866 127.094681,38.879639 
z"/>
<path fill="#05BA68" opacity="1.000000" stroke="none" 
	d="
M133.000732,188.997192 
	C129.402557,204.194183 122.228539,216.646515 106.981834,223.319992 
	C99.584457,223.778824 92.267319,223.910019 84.543503,223.647934 
	C85.705475,222.474686 87.255135,221.653412 88.845932,220.921524 
	C98.301590,216.571274 105.666245,210.219910 108.997902,199.990479 
	C109.001869,200.001984 108.977417,200.003021 109.217720,199.872375 
	C109.307175,199.156494 109.156326,198.571289 109.039917,197.644989 
	C110.288246,193.261307 111.502121,189.218689 113.031212,185.136566 
	C113.554031,185.055161 113.761642,185.013260 113.942123,185.346222 
	C113.019394,187.901749 113.346909,189.100937 116.108521,189.033295 
	C121.719574,188.895859 127.335327,188.950409 132.949142,188.925842 
	C132.949142,188.925842 132.984879,188.972458 133.000732,188.997192 
z"/>
<path fill="#02BA66" opacity="1.000000" stroke="none" 
	d="
M70.602295,99.135376 
	C76.061478,96.518417 81.154953,93.845032 86.499619,91.841873 
	C89.157898,90.845573 92.276886,91.078506 96.229256,90.639709 
	C91.868675,100.478439 87.946419,109.328186 83.750145,118.591194 
	C83.476120,119.004456 83.073578,119.147957 82.657227,119.117477 
	C74.446640,119.725037 67.412895,122.283798 61.193356,127.120872 
	C59.948952,128.088669 58.236835,128.455093 56.740379,129.098816 
	C61.273663,119.184380 65.806946,109.269943 70.602295,99.135376 
z"/>
<path fill="#01A956" opacity="1.000000" stroke="none" 
	d="
M139.019577,91.014580 
	C139.868057,88.805733 140.716537,86.596886 141.838806,84.136948 
	C148.099991,83.909576 154.087387,83.933289 160.537231,84.037514 
	C159.139786,91.808350 157.307770,99.505569 155.405060,107.185280 
	C154.729355,109.912483 153.881744,112.597099 153.098175,115.695221 
	C153.083725,116.089287 153.064590,116.057526 152.587921,116.040161 
	C145.734528,116.015671 139.357803,116.008537 132.985199,115.604073 
	C134.999390,107.142685 137.009491,99.078629 139.019577,91.014580 
z"/>
<path fill="#44CD8E" opacity="1.000000" stroke="none" 
	d="
M56.468452,129.299011 
	C58.236835,128.455093 59.948952,128.088669 61.193356,127.120872 
	C67.412895,122.283798 74.446640,119.725037 82.590912,119.462051 
	C78.971397,128.874695 75.001846,137.912292 71.032303,146.949890 
	C64.623703,149.170059 58.071625,151.059647 51.868011,153.752106 
	C48.838493,155.066986 46.458103,157.877502 43.440735,160.026886 
	C47.463890,149.861557 51.830212,139.680374 56.468452,129.299011 
z"/>
<path fill="#04BA67" opacity="1.000000" stroke="none" 
	d="
M126.832596,38.591702 
	C118.479263,44.445866 112.315849,51.834797 109.578323,62.456696 
	C108.874161,63.006329 108.492348,63.109253 108.110527,63.212177 
	C99.007515,61.946793 91.623711,65.940407 84.194168,70.906143 
	C87.752388,62.644398 90.459755,53.457256 95.893349,46.356163 
	C103.440361,36.493050 114.757477,35.020130 126.832596,38.591702 
z"/>
<path fill="#41CC8C" opacity="1.000000" stroke="none" 
	d="
M108.993927,199.978973 
	C105.666245,210.219910 98.301590,216.571274 88.845932,220.921524 
	C87.255135,221.653412 85.705475,222.474686 84.078003,223.602356 
	C83.560997,224.015381 83.102798,224.080719 82.265518,223.715881 
	C80.587936,222.565125 79.289444,221.844528 77.990944,221.123947 
	C70.682854,218.518356 65.017799,213.884048 61.266632,207.099731 
	C69.065491,210.604248 77.091484,210.012924 85.042068,209.963486 
	C92.953674,209.914291 100.108696,207.962784 105.718102,201.907059 
	C106.542763,201.016769 107.889015,200.609650 108.993927,199.978973 
z"/>
<path fill="#05BA68" opacity="1.000000" stroke="none" 
	d="
M77.993454,221.461029 
	C79.289444,221.844528 80.587936,222.565125 81.930618,223.611359 
	C80.909325,223.957153 79.843842,223.977295 78.387260,223.913727 
	C77.996094,223.152710 77.996025,222.475418 77.993454,221.461029 
z"/>
<path fill="#05BA68" opacity="1.000000" stroke="none" 
	d="
M71.325806,223.888672 
	C71.323418,223.328598 71.649307,222.865433 71.975189,222.402283 
	C72.287392,222.694931 72.599594,222.987564 72.956604,223.555969 
	C72.552307,223.883011 72.103188,223.934296 71.325806,223.888672 
z"/>
<path fill="#04BA67" opacity="1.000000" stroke="none" 
	d="
M83.633919,70.799194 
	C83.747536,71.185593 83.524803,71.473396 83.042755,71.868256 
	C82.954811,71.550407 83.126190,71.125504 83.633919,70.799194 
z"/>
<path fill="#01B965" opacity="1.000000" stroke="none" 
	d="
M132.981094,116.001411 
	C139.357803,116.008537 145.734528,116.015671 152.585083,116.043335 
	C149.758652,128.100876 146.458359,140.137909 143.156921,152.555161 
	C142.964493,152.949875 142.773209,152.964340 141.825256,152.988892 
	C135.037262,152.993759 129.005905,152.988525 122.974556,152.983307 
	C125.329475,144.074997 127.702347,135.171356 130.023895,126.254356 
	C130.477554,124.511833 130.732239,122.717499 131.330780,120.300674 
	C132.048935,118.436668 132.515015,117.219040 132.981094,116.001411 
z"/>
<path fill="#01A856" opacity="1.000000" stroke="none" 
	d="
M122.760193,153.021210 
	C129.005905,152.988525 135.037262,152.993759 141.537659,152.998566 
	C139.752670,162.203568 137.519058,171.414032 135.231354,180.611053 
	C134.598831,183.153870 133.805435,185.656677 133.017502,188.551849 
	C127.335327,188.950409 121.719574,188.895859 116.108521,189.033295 
	C113.346909,189.100937 113.019394,187.901749 113.954483,184.949554 
	C116.700340,173.820938 119.406708,163.463867 122.113083,153.106781 
	C122.113083,153.106781 122.545837,153.059113 122.760193,153.021210 
z"/>
<path fill="#6ED6A1" opacity="1.000000" stroke="none" 
	d="
M121.929207,152.746536 
	C119.406708,163.463867 116.700340,173.820938 113.981613,184.574707 
	C113.761642,185.013260 113.554031,185.055161 113.088394,184.708801 
	C110.636208,177.818451 108.442062,171.316330 106.247917,164.814209 
	C98.272430,152.197540 86.369186,147.155182 71.478073,146.982452 
	C75.001846,137.912292 78.971397,128.874695 83.007263,119.492538 
	C83.073578,119.147957 83.476120,119.004456 83.682770,118.952209 
	C99.989120,119.837128 112.086716,126.987556 118.878044,141.927948 
	C120.354996,145.177139 120.816261,148.888046 121.929207,152.746536 
z"/>
<path fill="#6ED6A2" opacity="1.000000" stroke="none" 
	d="
M132.985199,115.604073 
	C132.515015,117.219040 132.048935,118.436668 131.342255,119.892136 
	C130.052124,117.392403 129.138306,114.593307 127.930115,111.927643 
	C122.002480,98.849358 111.541138,92.098145 96.829193,90.423286 
	C100.643684,81.405228 104.338982,72.668953 108.072403,63.572426 
	C108.492348,63.109253 108.874161,63.006329 109.542236,62.827271 
	C115.598198,65.387192 121.806053,67.362206 127.028618,70.823746 
	C133.819092,75.324532 136.117813,83.114700 138.736450,90.790833 
	C137.009491,99.078629 134.999390,107.142685 132.985199,115.604073 
z"/>
<path fill="#00A855" opacity="1.000000" stroke="none" 
	d="
M105.936501,165.037979 
	C108.442062,171.316330 110.636208,177.818451 112.773178,184.748322 
	C111.502121,189.218689 110.288246,193.261307 108.997498,197.980865 
	C108.939560,199.106216 108.958488,199.554611 108.977417,200.003021 
	C108.977417,200.003021 109.001869,200.001984 108.997894,199.990479 
	C107.889015,200.609650 106.542763,201.016769 105.718102,201.907059 
	C100.108696,207.962784 92.953674,209.914291 85.042068,209.963486 
	C77.091484,210.012924 69.065491,210.604248 61.219769,206.726440 
	C55.481739,202.406006 51.516541,197.475861 49.661873,190.662567 
	C46.227654,178.046661 56.225182,162.531677 69.234367,160.991959 
	C84.060341,159.237213 93.844070,165.671860 98.008446,179.902847 
	C98.172150,180.462280 98.451820,180.987762 99.128624,182.611420 
	C101.544212,176.160248 103.584648,170.710999 105.936501,165.037979 
z"/>
<path fill="#41CC8C" opacity="1.000000" stroke="none" 
	d="
M109.217720,199.872375 
	C108.958488,199.554611 108.939560,199.106216 108.963051,198.321930 
	C109.156326,198.571289 109.307175,199.156494 109.217720,199.872375 
z"/>
</svg>