<svg version="1.1" id="Layer_1" xmlns="http://www.w3.org/2000/svg" xmlns:xlink="http://www.w3.org/1999/xlink" x="0px" y="0px"
	 width="100%" viewBox="0 0 275 340" enable-background="new 0 0 275 340" xml:space="preserve">
<path fill="#F6F6F6" opacity="1.000000" stroke="none" 
	d="
M276.000000,131.000000 
	C276.000000,201.333328 276.000000,271.166656 276.000000,341.000000 
	C184.333328,341.000000 92.666664,341.000000 1.000000,341.000000 
	C1.000000,227.666672 1.000000,114.333336 1.000000,1.000000 
	C92.666664,1.000000 184.333328,1.000000 276.000000,1.000000 
	C276.000000,44.166668 276.000000,87.333336 276.000000,131.000000 
M46.027630,104.452286 
	C44.983803,106.898277 43.939976,109.344276 42.096146,111.836281 
	C38.144402,111.104134 36.094540,113.325409 35.178921,116.688332 
	C31.957640,128.519592 27.791502,140.223099 25.943905,152.275543 
	C19.348413,195.299911 27.420515,235.321106 52.826473,271.222931 
	C56.519997,276.442352 58.142281,281.580322 56.433411,288.012909 
	C54.586216,294.966187 56.482735,301.245880 62.213303,305.951569 
	C67.680061,310.440613 74.040184,311.913422 80.383179,308.752991 
	C90.831276,303.547089 102.761131,310.232788 105.032860,321.021515 
	C107.749489,333.923157 120.921997,340.916962 133.187912,336.898834 
	C136.416275,335.841278 139.311752,333.767578 142.360489,332.161285 
	C156.787704,344.310669 175.883484,336.174072 179.056580,320.809326 
	C181.217773,310.344360 192.873520,303.596558 203.348175,308.675720 
	C209.925980,311.865295 216.388611,310.492371 221.958633,305.807129 
	C227.623383,301.042175 229.340637,294.772339 227.515808,287.788818 
	C226.003036,281.999481 226.958923,277.020905 230.454727,272.272125 
	C245.427963,251.932236 254.591812,229.187103 258.180206,204.221039 
	C264.451202,160.591293 256.542816,120.162132 230.584671,83.925331 
	C227.040787,78.978172 226.028275,73.948212 227.571304,67.955772 
	C229.365448,60.988201 227.501694,54.726997 221.760788,50.024548 
	C216.282623,45.537292 209.940399,44.087307 203.587387,47.249962 
	C193.263565,52.389347 181.280243,45.906952 178.960312,34.948009 
	C176.231064,22.055607 163.018265,15.066656 150.781326,19.099991 
	C147.557953,20.162424 144.666000,22.230347 141.627686,23.833456 
	C127.069740,11.514790 107.864937,20.105125 104.290062,36.600601 
	C102.005714,47.141258 91.751183,51.626579 81.141716,47.387169 
	C74.144424,44.591137 67.745949,45.353100 62.027222,50.207020 
	C56.233158,55.124886 54.679108,61.483578 56.607311,68.705711 
	C58.040321,74.073105 57.030060,78.850311 53.841499,83.347862 
	C51.055981,87.276909 48.588287,91.432861 45.767784,95.335037 
	C43.524101,98.439163 43.708088,101.133919 46.027630,104.452286 
z"/>
<path fill="#985C5C" opacity="1.000000" stroke="none" 
	d="
M42.896149,111.790268 
	C43.939976,109.344276 44.983803,106.898277 46.567513,104.124969 
	C49.282272,102.702797 52.051693,102.114891 53.507812,100.407181 
	C56.506100,96.890846 58.702740,92.704636 61.409950,88.923454 
	C66.240135,82.177094 68.111092,74.815132 65.836510,66.774345 
	C64.754906,62.950806 65.342499,59.893852 68.232681,57.320007 
	C71.209351,54.669144 74.427483,55.176151 78.031815,56.245556 
	C82.090271,57.449699 86.507217,58.759411 90.588280,58.326553 
	C102.708710,57.041004 110.674919,50.218163 113.737434,38.225582 
	C115.259018,32.267216 118.772614,28.526674 124.895164,27.667913 
	C130.379044,26.898731 134.405884,29.344208 137.565094,33.789215 
	C140.632278,38.104755 143.427475,38.067066 146.528458,33.640263 
	C149.699371,29.113583 153.944031,26.890015 159.292130,27.616003 
	C164.923523,28.380445 168.728928,31.869085 169.949020,37.452232 
	C172.847107,50.714203 183.778351,58.794582 198.020370,59.334274 
	C197.266052,65.930916 196.519104,72.058350 195.471802,78.036438 
	C194.113876,77.080376 193.071640,76.252609 191.996521,75.470001 
	C169.799820,59.312340 145.590805,53.859135 118.892471,61.790359 
	C97.858368,68.038918 81.940842,81.299835 69.596458,98.909752 
	C47.821396,129.973007 41.978832,164.782776 47.505230,201.664047 
	C51.906544,231.036880 64.314148,256.676086 87.049538,276.386444 
	C107.570854,294.177368 131.313263,301.442230 158.394394,295.972992 
	C172.421616,293.140076 184.514359,286.365631 196.057312,278.063354 
	C196.930817,284.606354 197.477600,290.864685 197.606262,297.178162 
	C182.839005,297.851227 174.341599,304.263184 170.220428,318.003113 
	C168.580917,323.469208 165.522446,327.195251 159.817703,328.163818 
	C154.203278,329.117035 149.818527,327.079132 146.499725,322.321960 
	C143.417831,317.904327 140.596024,317.883118 137.537186,322.266663 
	C134.370209,326.805176 130.149811,329.109100 124.790024,328.395966 
	C118.928513,327.616058 115.614014,323.794037 113.783958,318.163849 
	C112.522232,314.282135 110.843376,310.316528 108.431335,307.072083 
	C102.739647,299.416077 90.156937,294.013245 77.830193,299.708344 
	C74.352013,301.315308 70.990654,301.254639 68.083145,298.544952 
	C65.432487,296.074646 64.721542,293.169678 65.779137,289.499603 
	C68.210419,281.062500 65.921013,273.563995 61.010517,266.434906 
	C29.605303,220.840820 25.402779,171.974686 43.899815,120.519135 
	C45.077713,117.242432 45.438915,114.451126 42.896149,111.790268 
z"/>
<path fill="#060505" opacity="1.000000" stroke="none" 
	d="
M198.027740,58.865059 
	C183.778351,58.794582 172.847107,50.714203 169.949020,37.452232 
	C168.728928,31.869085 164.923523,28.380445 159.292130,27.616003 
	C153.944031,26.890015 149.699371,29.113583 146.528458,33.640263 
	C143.427475,38.067066 140.632278,38.104755 137.565094,33.789215 
	C134.405884,29.344208 130.379044,26.898731 124.895164,27.667913 
	C118.772614,28.526674 115.259018,32.267216 113.737434,38.225582 
	C110.674919,50.218163 102.708710,57.041004 90.588280,58.326553 
	C86.507217,58.759411 82.090271,57.449699 78.031815,56.245556 
	C74.427483,55.176151 71.209351,54.669144 68.232681,57.320007 
	C65.342499,59.893852 64.754906,62.950806 65.836510,66.774345 
	C68.111092,74.815132 66.240135,82.177094 61.409950,88.923454 
	C58.702740,92.704636 56.506100,96.890846 53.507812,100.407181 
	C52.051693,102.114891 49.282272,102.702797 46.727638,103.789871 
	C43.708088,101.133919 43.524101,98.439163 45.767784,95.335037 
	C48.588287,91.432861 51.055981,87.276909 53.841499,83.347862 
	C57.030060,78.850311 58.040321,74.073105 56.607311,68.705711 
	C54.679108,61.483578 56.233158,55.124886 62.027222,50.207020 
	C67.745949,45.353100 74.144424,44.591137 81.141716,47.387169 
	C91.751183,51.626579 102.005714,47.141258 104.290062,36.600601 
	C107.864937,20.105125 127.069740,11.514790 141.627686,23.833456 
	C144.666000,22.230347 147.557953,20.162424 150.781326,19.099991 
	C163.018265,15.066656 176.231064,22.055607 178.960312,34.948009 
	C181.280243,45.906952 193.263565,52.389347 203.587387,47.249962 
	C209.940399,44.087307 216.282623,45.537292 221.760788,50.024548 
	C227.501694,54.726997 229.365448,60.988201 227.571304,67.955772 
	C226.028275,73.948212 227.040787,78.978172 230.584671,83.925331 
	C256.542816,120.162132 264.451202,160.591293 258.180206,204.221039 
	C254.591812,229.187103 245.427963,251.932236 230.454727,272.272125 
	C226.958923,277.020905 226.003036,281.999481 227.515808,287.788818 
	C229.340637,294.772339 227.623383,301.042175 221.958633,305.807129 
	C216.388611,310.492371 209.925980,311.865295 203.348175,308.675720 
	C192.873520,303.596558 181.217773,310.344360 179.056580,320.809326 
	C175.883484,336.174072 156.787704,344.310669 142.360291,332.160889 
	C139.311752,333.767578 136.416275,335.841278 133.187912,336.898834 
	C120.921997,340.916962 107.749489,333.923157 105.032860,321.021515 
	C102.761131,310.232788 90.831276,303.547089 80.383179,308.752991 
	C74.040184,311.913422 67.680061,310.440613 62.213303,305.951569 
	C56.482735,301.245880 54.586216,294.966187 56.433411,288.012909 
	C58.142281,281.580322 56.519997,276.442352 52.826473,271.222931 
	C27.420515,235.321106 19.348413,195.299911 25.943905,152.275543 
	C27.791502,140.223099 31.957640,128.519592 35.178921,116.688332 
	C36.094540,113.325409 38.144402,111.104134 42.496147,111.813278 
	C45.438915,114.451126 45.077713,117.242432 43.899815,120.519135 
	C25.402779,171.974686 29.605303,220.840820 61.010517,266.434906 
	C65.921013,273.563995 68.210419,281.062500 65.779137,289.499603 
	C64.721542,293.169678 65.432487,296.074646 68.083145,298.544952 
	C70.990654,301.254639 74.352013,301.315308 77.830193,299.708344 
	C90.156937,294.013245 102.739647,299.416077 108.431335,307.072083 
	C110.843376,310.316528 112.522232,314.282135 113.783958,318.163849 
	C115.614014,323.794037 118.928513,327.616058 124.790024,328.395966 
	C130.149811,329.109100 134.370209,326.805176 137.537186,322.266663 
	C140.596024,317.883118 143.417831,317.904327 146.499725,322.321960 
	C149.818527,327.079132 154.203278,329.117035 159.817703,328.163818 
	C165.522446,327.195251 168.580917,323.469208 170.220428,318.003113 
	C174.341599,304.263184 182.839005,297.851227 197.939682,297.337463 
	C201.384918,298.274445 204.124268,298.985016 206.760925,299.970367 
	C210.203873,301.256958 213.801010,301.296448 215.874451,298.334045 
	C217.460037,296.068634 218.550598,292.496460 218.015671,289.883392 
	C216.262070,281.317139 217.737823,273.790192 222.813690,266.739319 
	C245.195007,235.649658 253.456070,200.825134 250.089630,162.953537 
	C247.725800,136.361176 239.302750,111.953232 223.541443,90.292870 
	C217.999786,82.677101 215.856537,74.725731 218.351547,65.433434 
	C220.054993,59.089195 214.294189,53.905380 207.991669,55.717449 
	C204.645325,56.679569 201.347473,57.810390 198.027740,58.865059 
z"/>
<path fill="#050505" opacity="1.000000" stroke="none" 
	d="
M195.730606,277.778748 
	C184.514359,286.365631 172.421616,293.140076 158.394394,295.972992 
	C131.313263,301.442230 107.570854,294.177368 87.049538,276.386444 
	C64.314148,256.676086 51.906544,231.036880 47.505230,201.664047 
	C41.978832,164.782776 47.821396,129.973007 69.596458,98.909752 
	C81.940842,81.299835 97.858368,68.038918 118.892471,61.790359 
	C145.590805,53.859135 169.799820,59.312340 191.996521,75.470001 
	C193.071640,76.252609 194.113876,77.080376 195.650772,78.317879 
	C207.112442,88.385635 216.087387,99.581612 222.874435,112.565231 
	C235.053619,135.864014 239.421860,160.703201 238.086487,186.772476 
	C236.862839,210.660797 229.983963,232.710724 217.335907,253.019119 
	C215.306503,256.277649 212.951706,257.842468 209.012802,256.572144 
	C206.624023,253.938553 206.898087,251.562347 208.557175,249.034393 
	C220.009705,231.584000 226.314941,212.385284 228.292526,191.643631 
	C231.324463,159.843628 224.942307,130.309418 206.468140,104.031662 
	C192.390152,84.007050 173.696030,70.383957 148.604935,68.078697 
	C121.292282,65.569336 99.744011,77.183426 82.570862,97.533516 
	C66.418411,116.674088 58.183025,139.187973 55.745399,164.005844 
	C52.640781,195.614487 58.927845,224.963867 77.034264,251.270081 
	C89.640419,269.585144 106.337425,282.703918 128.635880,286.958405 
	C154.372940,291.869019 176.152527,283.355042 194.743240,265.661530 
	C197.545410,262.994598 200.146851,261.215637 203.926208,263.918732 
	C203.574890,266.469849 203.829651,269.110596 202.680374,270.791290 
	C200.857040,273.457733 198.095337,275.482513 195.730606,277.778748 
z"/>
<path fill="#824F4F" opacity="1.000000" stroke="none" 
	d="
M196.057312,278.063354 
	C198.095337,275.482513 200.857040,273.457733 202.680374,270.791290 
	C203.829651,269.110596 203.574890,266.469849 204.049606,263.570679 
	C205.819901,260.884155 207.490524,258.886749 209.161148,256.889313 
	C212.951706,257.842468 215.306503,256.277649 217.335907,253.019119 
	C229.983963,232.710724 236.862839,210.660797 238.086487,186.772476 
	C239.421860,160.703201 235.053619,135.864014 222.874435,112.565231 
	C216.087387,99.581612 207.112442,88.385635 195.951141,78.467209 
	C196.519104,72.058350 197.266052,65.930916 198.020370,59.334274 
	C201.347473,57.810390 204.645325,56.679569 207.991669,55.717449 
	C214.294189,53.905380 220.054993,59.089195 218.351547,65.433434 
	C215.856537,74.725731 217.999786,82.677101 223.541443,90.292870 
	C239.302750,111.953232 247.725800,136.361176 250.089630,162.953537 
	C253.456070,200.825134 245.195007,235.649658 222.813690,266.739319 
	C217.737823,273.790192 216.262070,281.317139 218.015671,289.883392 
	C218.550598,292.496460 217.460037,296.068634 215.874451,298.334045 
	C213.801010,301.296448 210.203873,301.256958 206.760925,299.970367 
	C204.124268,298.985016 201.384918,298.274445 198.357819,297.282349 
	C197.477600,290.864685 196.930817,284.606354 196.057312,278.063354 
z"/>
<path fill="#B2D9FD" opacity="1.000000" stroke="none" 
	d="
M209.012802,256.572144 
	C207.490524,258.886749 205.819901,260.884155 204.025879,263.229675 
	C200.146851,261.215637 197.545410,262.994598 194.743240,265.661530 
	C176.152527,283.355042 154.372940,291.869019 128.635880,286.958405 
	C106.337425,282.703918 89.640419,269.585144 77.034264,251.270081 
	C58.927845,224.963867 52.640781,195.614487 55.745399,164.005844 
	C58.183025,139.187973 66.418411,116.674088 82.570862,97.533516 
	C99.744011,77.183426 121.292282,65.569336 148.604935,68.078697 
	C173.696030,70.383957 192.390152,84.007050 206.468140,104.031662 
	C224.942307,130.309418 231.324463,159.843628 228.292526,191.643631 
	C226.314941,212.385284 220.009705,231.584000 208.557175,249.034393 
	C206.898087,251.562347 206.624023,253.938553 209.012802,256.572144 
M183.702972,193.202805 
	C161.696365,215.208481 139.690765,237.215164 117.681633,259.218323 
	C115.424454,261.474915 113.455948,263.930756 116.276535,266.919891 
	C119.236053,270.056305 121.899185,268.396454 124.374733,265.920074 
	C154.368240,235.916519 184.369461,205.920685 214.384277,175.938446 
	C216.714752,173.610489 218.427933,170.986237 215.648392,168.198624 
	C212.744232,165.286011 209.984100,166.861038 207.486893,169.385910 
	C199.763092,177.195297 191.969376,184.935516 183.702972,193.202805 
M162.589905,247.089203 
	C157.640747,252.034470 152.696808,256.984985 147.740112,261.922668 
	C145.458817,264.195221 143.532303,266.759186 146.403198,269.630829 
	C149.361954,272.590332 152.156158,270.986969 154.573700,268.427429 
	C155.031250,267.943024 155.515915,267.484253 155.987137,267.012726 
	C170.122025,252.868393 184.257019,238.724197 198.391327,224.579300 
	C200.746811,222.222015 203.574875,220.154266 205.273392,217.392365 
	C206.277359,215.759827 206.322098,212.506729 205.320053,210.909943 
	C203.771469,208.442215 200.980942,209.061676 198.801300,210.922791 
	C197.917191,211.677689 197.130051,212.546814 196.305405,213.370590 
	C185.227203,224.437134 174.150192,235.504883 162.589905,247.089203 
z"/>
<path fill="#0B0D0F" opacity="1.000000" stroke="none" 
	d="
M183.952881,192.952698 
	C191.969376,184.935516 199.763092,177.195297 207.486893,169.385910 
	C209.984100,166.861038 212.744232,165.286011 215.648392,168.198624 
	C218.427933,170.986237 216.714752,173.610489 214.384277,175.938446 
	C184.369461,205.920685 154.368240,235.916519 124.374733,265.920074 
	C121.899185,268.396454 119.236053,270.056305 116.276535,266.919891 
	C113.455948,263.930756 115.424454,261.474915 117.681633,259.218323 
	C139.690765,237.215164 161.696365,215.208481 183.952881,192.952698 
z"/>
<path fill="#050607" opacity="1.000000" stroke="none" 
	d="
M162.831390,246.830765 
	C174.150192,235.504883 185.227203,224.437134 196.305405,213.370590 
	C197.130051,212.546814 197.917191,211.677689 198.801300,210.922791 
	C200.980942,209.061676 203.771469,208.442215 205.320053,210.909943 
	C206.322098,212.506729 206.277359,215.759827 205.273392,217.392365 
	C203.574875,220.154266 200.746811,222.222015 198.391327,224.579300 
	C184.257019,238.724197 170.122025,252.868393 155.987137,267.012726 
	C155.515915,267.484253 155.031250,267.943024 154.573700,268.427429 
	C152.156158,270.986969 149.361954,272.590332 146.403198,269.630829 
	C143.532303,266.759186 145.458817,264.195221 147.740112,261.922668 
	C152.696808,256.984985 157.640747,252.034470 162.831390,246.830765 
z"/>
</svg>