<svg version="1.1" id="Layer_1" xmlns="http://www.w3.org/2000/svg" xmlns:xlink="http://www.w3.org/1999/xlink" x="0px" y="0px"
	 width="100%" viewBox="0 0 190 345" enable-background="new 0 0 190 345" xml:space="preserve">
<path fill="#F7F7F7" opacity="1.000000" stroke="none" 
	d="
M1.000000,105.000000 
	C1.000000,70.000008 1.000000,35.500008 1.000000,1.000009 
	C64.333321,1.000006 127.666649,1.000006 190.999969,1.000003 
	C190.999985,115.999977 190.999985,230.999954 191.000000,345.999939 
	C127.666702,345.999969 64.333397,345.999969 1.000049,346.000000 
	C1.000000,265.833344 1.000000,185.666672 1.000000,105.000000 
M175.813065,152.500015 
	C175.812881,112.168282 175.822678,71.836540 175.806854,31.504822 
	C175.801666,18.287241 169.443268,12.001459 156.121689,11.998868 
	C114.123367,11.990696 72.125053,11.991973 30.126732,11.998050 
	C16.473606,12.000026 10.192665,18.210705 10.191511,31.756376 
	C10.183546,125.252632 10.183532,218.748886 10.191520,312.245148 
	C10.192677,325.789948 16.474012,331.999969 30.128252,332.001953 
	C71.959908,332.008057 113.791573,332.006866 155.623230,332.002716 
	C169.636627,332.001343 175.807449,325.895355 175.809555,311.993683 
	C175.817612,259.162476 175.812836,206.331253 175.813065,152.500015 
z"/>
<path fill="#717585" opacity="1.000000" stroke="none" 
	d="
M175.812958,153.000031 
	C175.812836,206.331253 175.817612,259.162476 175.809555,311.993683 
	C175.807449,325.895355 169.636627,332.001343 155.623230,332.002716 
	C113.791573,332.006866 71.959908,332.008057 30.128252,332.001953 
	C16.474012,331.999969 10.192677,325.789948 10.191520,312.245148 
	C10.183532,218.748886 10.183546,125.252632 10.191511,31.756376 
	C10.192665,18.210705 16.473606,12.000026 30.126732,11.998050 
	C72.125053,11.991973 114.123367,11.990696 156.121689,11.998868 
	C169.443268,12.001459 175.801666,18.287241 175.806854,31.504822 
	C175.822678,71.836540 175.812881,112.168282 175.812958,153.000031 
M21.032270,222.900803 
	C21.021841,243.021362 20.989553,263.141998 21.043858,283.262360 
	C21.048052,284.816284 21.661184,286.368530 22.928318,287.974365 
	C68.681519,287.984528 114.434807,287.958862 160.187744,288.073975 
	C163.796906,288.083038 165.124176,287.216461 165.085358,283.365936 
	C164.879135,262.904449 164.938248,242.440308 164.967773,221.044571 
	C164.980026,167.608978 164.974655,114.173363 165.049484,60.737854 
	C165.053848,57.617130 164.668396,55.898857 160.821625,55.912025 
	C114.545959,56.070454 68.269760,56.074055 21.357342,56.636215 
	C21.240227,57.285046 21.020391,57.933907 21.020617,58.582699 
	C21.039518,113.041298 21.075476,167.499893 21.032270,222.900803 
M91.501717,29.000532 
	C86.846344,29.001507 82.187325,29.116312 77.536766,28.967173 
	C73.865845,28.849445 71.418655,30.699808 71.427979,34.015587 
	C71.437225,37.310120 73.880363,39.139065 77.539017,39.102795 
	C87.846336,39.000591 98.155975,39.000866 108.463295,39.102619 
	C112.122444,39.138737 114.563835,37.306744 114.571999,34.012806 
	C114.580215,30.696192 112.130211,28.864162 108.460701,28.965569 
	C103.144356,29.112478 97.820892,29.001505 91.501717,29.000532 
M101.464935,303.145782 
	C99.347725,301.944275 97.357910,300.325928 95.085739,299.631470 
	C90.865799,298.341797 87.119957,300.015198 84.547798,303.304077 
	C81.725105,306.913269 80.885551,310.998016 83.758453,315.257599 
	C87.249146,320.433136 92.870399,322.182617 97.884865,319.453064 
	C103.768532,316.250397 105.224625,310.539581 101.464935,303.145782 
M49.067554,34.386585 
	C49.514778,35.247696 49.813374,36.239834 50.436119,36.946205 
	C52.607967,39.409702 55.173977,40.083317 57.756527,37.683144 
	C60.243004,35.372265 60.276291,32.672611 57.774544,30.366098 
	C55.222275,28.013018 52.625515,28.567387 50.442009,31.068260 
	C49.821766,31.778658 49.516281,32.763870 49.067554,34.386585 
z"/>
<path fill="#464655" opacity="1.000000" stroke="none" 
	d="
M92.001091,29.000534 
	C97.820892,29.001505 103.144356,29.112478 108.460701,28.965569 
	C112.130211,28.864162 114.580215,30.696192 114.571999,34.012806 
	C114.563835,37.306744 112.122444,39.138737 108.463295,39.102619 
	C98.155975,39.000866 87.846336,39.000591 77.539017,39.102795 
	C73.880363,39.139065 71.437225,37.310120 71.427979,34.015587 
	C71.418655,30.699808 73.865845,28.849445 77.536766,28.967173 
	C82.187325,29.116312 86.846344,29.001507 92.001091,29.000534 
z"/>
<path fill="#484857" opacity="1.000000" stroke="none" 
	d="
M101.672073,303.466614 
	C105.224625,310.539581 103.768532,316.250397 97.884865,319.453064 
	C92.870399,322.182617 87.249146,320.433136 83.758453,315.257599 
	C80.885551,310.998016 81.725105,306.913269 84.547798,303.304077 
	C87.119957,300.015198 90.865799,298.341797 95.085739,299.631470 
	C97.357910,300.325928 99.347725,301.944275 101.672073,303.466614 
z"/>
<path fill="#75AFD3" opacity="1.000000" stroke="none" 
	d="
M21.993696,56.118050 
	C68.269760,56.074055 114.545959,56.070454 160.821625,55.912025 
	C164.668396,55.898857 165.053848,57.617130 165.049484,60.737854 
	C164.974655,114.173363 164.980026,167.608978 164.703644,221.533691 
	C164.439499,222.022797 163.971115,222.058212 163.506042,222.033356 
	C148.992645,221.987854 134.944321,221.967194 120.862900,221.714539 
	C120.829819,221.482559 120.885498,221.017212 121.361313,221.013260 
	C133.992462,221.007339 146.153763,220.785141 158.300125,221.114456 
	C162.997940,221.241837 164.106674,219.733536 164.093292,215.216187 
	C163.942917,164.430695 163.949387,113.644455 164.084427,62.858871 
	C164.096085,58.471676 163.196609,56.862724 158.377457,56.883492 
	C112.920715,57.079391 67.462814,57.005978 22.002872,56.787193 
	C22.000496,56.564137 21.993696,56.118050 21.993696,56.118050 
z"/>
<path fill="#5D94BD" opacity="1.000000" stroke="none" 
	d="
M163.971115,222.058212 
	C163.971115,222.058212 164.439499,222.022797 164.672485,221.999939 
	C164.938248,242.440308 164.879135,262.904449 165.085358,283.365936 
	C165.124176,287.216461 163.796906,288.083038 160.187744,288.073975 
	C114.434807,287.958862 68.681519,287.984528 22.464775,287.714478 
	C22.001232,287.454620 22.008745,286.986176 22.476389,286.992493 
	C68.002449,287.000366 113.061020,286.949707 158.119019,287.087250 
	C162.459351,287.100494 164.189377,286.277802 164.115982,281.413635 
	C163.817413,261.632294 163.979095,241.843964 163.971115,222.058212 
z"/>
<path fill="#78B1D4" opacity="1.000000" stroke="none" 
	d="
M21.675518,56.377132 
	C21.993696,56.118050 22.000496,56.564137 22.001160,57.254684 
	C22.001375,110.353409 21.976240,162.761642 22.084614,215.169601 
	C22.089277,217.425232 23.325268,219.678299 23.660549,221.952805 
	C22.897001,221.992065 22.460567,222.011093 21.795467,222.014618 
	C21.566801,221.999084 21.110216,221.958496 21.110216,221.958496 
	C21.075476,167.499893 21.039518,113.041298 21.020617,58.582699 
	C21.020391,57.933907 21.240227,57.285046 21.675518,56.377132 
z"/>
<path fill="#484857" opacity="1.000000" stroke="none" 
	d="
M49.067001,34.004822 
	C49.516281,32.763870 49.821766,31.778658 50.442009,31.068260 
	C52.625515,28.567387 55.222275,28.013018 57.774544,30.366098 
	C60.276291,32.672611 60.243004,35.372265 57.756527,37.683144 
	C55.173977,40.083317 52.607967,39.409702 50.436119,36.946205 
	C49.813374,36.239834 49.514778,35.247696 49.067001,34.004822 
z"/>
<path fill="#6599C0" opacity="1.000000" stroke="none" 
	d="
M21.071243,222.429657 
	C21.110216,221.958496 21.566801,221.999084 21.786434,222.479919 
	C22.006960,244.302567 22.007853,265.644379 22.008745,286.986176 
	C22.008745,286.986176 22.001232,287.454620 21.996258,287.688110 
	C21.661184,286.368530 21.048052,284.816284 21.043858,283.262360 
	C20.989553,263.141998 21.021841,243.021362 21.071243,222.429657 
z"/>
<path fill="#64AFDA" opacity="1.000000" stroke="none" 
	d="
M23.987659,221.932571 
	C23.325268,219.678299 22.089277,217.425232 22.084614,215.169601 
	C21.976240,162.761642 22.001375,110.353409 22.003536,57.477737 
	C67.462814,57.005978 112.920715,57.079391 158.377457,56.883492 
	C163.196609,56.862724 164.096085,58.471676 164.084427,62.858871 
	C163.949387,113.644455 163.942917,164.430695 164.093292,215.216187 
	C164.106674,219.733536 162.997940,221.241837 158.300125,221.114456 
	C146.153763,220.785141 133.992462,221.007339 121.258942,220.680237 
	C118.694183,218.923981 116.252663,215.984695 114.824760,216.414322 
	C112.525276,217.106186 110.894508,220.020630 108.527428,221.997925 
	C105.039078,221.991440 102.004539,221.983154 98.885063,221.627625 
	C97.856926,218.232605 96.060951,215.250397 92.717987,216.309784 
	C90.450653,217.028290 88.899605,220.007141 86.583328,221.984131 
	C82.845352,221.663986 79.552277,221.334839 76.150238,220.649231 
	C74.263405,218.917404 71.801125,216.033524 70.844238,216.467682 
	C68.560638,217.503738 66.987190,220.105042 64.650833,222.051819 
	C50.779030,221.997131 37.383343,221.964859 23.987659,221.932571 
M86.703087,199.766174 
	C91.863670,199.765305 97.025375,199.831421 102.184525,199.744873 
	C107.418884,199.657059 109.561493,197.763443 109.739037,192.582504 
	C109.955559,186.264069 109.938179,179.928192 109.747261,173.608170 
	C109.593193,168.508026 107.358887,166.371307 102.260315,166.251648 
	C96.270645,166.111099 90.274033,166.141586 84.282616,166.236130 
	C78.426720,166.328568 76.325554,168.509995 76.216644,174.561905 
	C76.123802,179.720840 76.180817,184.882812 76.199249,190.043320 
	C76.227974,198.086472 77.799637,199.672470 86.703087,199.766174 
M128.050873,155.741577 
	C134.043121,155.741516 140.038010,155.852432 146.026825,155.709152 
	C151.651291,155.574554 153.789352,153.310593 153.846634,147.697662 
	C153.907806,141.706039 153.929489,135.712265 153.838959,129.721390 
	C153.758774,124.414581 151.912888,122.382034 146.671661,122.224541 
	C140.352219,122.034653 134.019623,122.053650 127.698662,122.215134 
	C122.559746,122.346420 120.515335,124.475922 120.401833,129.675278 
	C120.271088,135.664688 120.453400,141.660690 120.340065,147.650818 
	C120.249290,152.448853 122.320335,155.217026 128.050873,155.741577 
M103.875771,78.086487 
	C97.058601,78.076591 90.240906,78.114281 83.424438,78.040024 
	C78.900795,77.990738 76.495361,80.339325 76.359039,84.630722 
	C76.142746,91.440186 76.117485,98.268295 76.369186,105.075294 
	C76.518768,109.120575 78.772491,111.338943 83.189629,111.218895 
	C89.669579,111.042763 96.162308,111.027229 102.641220,111.221855 
	C107.644180,111.372139 109.608665,108.707291 109.703300,104.249908 
	C109.837379,97.934334 109.813690,91.612457 109.705193,85.295883 
	C109.647087,81.912949 108.502220,79.075432 103.875771,78.086487 
M35.387890,110.685799 
	C43.683125,110.831970 51.978161,111.064308 60.273689,111.083534 
	C63.780396,111.091660 65.366348,108.572479 65.433647,105.495415 
	C65.589790,98.356087 65.517258,91.205757 65.305847,84.066750 
	C65.187943,80.085236 62.759651,78.089890 58.805721,78.070381 
	C52.153381,78.037552 45.475620,77.737518 38.862514,78.248413 
	C36.685440,78.416611 32.955475,80.647278 32.871864,82.103447 
	C32.380257,90.665497 32.709457,99.278549 32.920303,107.870522 
	C32.939434,108.650116 34.078506,109.402222 35.387890,110.685799 
M153.898682,176.683899 
	C153.877884,168.783020 152.483521,166.394226 147.177353,166.227692 
	C140.527115,166.018997 133.861984,166.049561 127.209785,166.224274 
	C122.899559,166.337479 120.403557,168.803009 120.322174,173.176514 
	C120.201447,179.664658 120.159340,186.160126 120.330719,192.645950 
	C120.463005,197.652344 122.777283,199.724686 127.940971,199.787643 
	C134.097641,199.862717 140.257050,199.877533 146.413162,199.782303 
	C151.883514,199.697678 153.799225,197.695831 153.881348,192.115311 
	C153.952362,187.290131 153.897675,182.463104 153.898682,176.683899 
M105.248619,155.057449 
	C106.680290,153.056305 109.173790,151.142441 109.346809,149.037811 
	C109.890747,142.421295 109.680664,135.730392 109.531319,129.073486 
	C109.426765,124.412720 106.727219,122.215080 102.102570,122.238235 
	C95.938736,122.269089 89.774597,122.233078 83.610687,122.255356 
	C79.228607,122.271187 76.616165,124.427040 76.504173,128.863647 
	C76.336151,135.520355 76.341637,142.185318 76.452400,148.843781 
	C76.521202,152.979828 78.813309,155.451202 82.987282,155.487488 
	C90.135040,155.549652 97.285240,155.331894 105.248619,155.057449 
M64.894585,171.185684 
	C64.007858,167.854904 61.599850,166.934540 58.454731,166.961624 
	C51.976315,167.017426 45.493408,167.111252 39.019394,166.933182 
	C34.284672,166.802933 32.257179,169.400726 32.099213,173.556534 
	C31.859612,179.860123 31.852932,186.186844 32.102444,192.489670 
	C32.267101,196.649048 34.333706,199.214920 39.058788,199.079620 
	C45.532383,198.894226 52.023224,198.836243 58.491573,199.097504 
	C63.384712,199.295120 65.038116,196.876648 65.025375,192.497482 
	C65.005569,185.686493 65.003036,178.875458 64.894585,171.185684 
M65.834625,135.591446 
	C65.828568,133.432571 65.949165,131.264297 65.789711,129.116806 
	C65.472191,124.840462 63.049175,122.286980 58.798641,122.153099 
	C52.162949,121.944115 45.509396,121.938065 38.875137,122.174744 
	C34.407856,122.334106 31.949205,124.763000 32.047565,129.545212 
	C32.173889,135.687195 32.032761,141.834213 32.090176,147.978271 
	C32.134945,152.769272 34.507862,155.623016 39.163754,155.805710 
	C45.630493,156.059464 52.120853,156.044662 58.589096,155.811615 
	C63.022095,155.651855 65.640648,153.074692 65.795258,148.517242 
	C65.930321,144.536026 65.830353,140.546844 65.834625,135.591446 
M153.807953,83.264420 
	C152.962189,79.916718 150.756363,78.114647 147.363678,78.065033 
	C140.699417,77.967567 134.028397,77.887070 127.368698,78.085777 
	C123.115631,78.212677 120.422104,80.757011 120.251320,84.994499 
	C119.989883,91.481461 119.981819,97.998810 120.300201,104.481941 
	C120.515221,108.860161 122.797867,111.393951 127.770592,111.152573 
	C133.921951,110.853989 140.099045,111.113892 146.264572,111.070786 
	C151.793137,111.032143 153.813339,109.135002 153.905334,103.623581 
	C154.013763,97.126495 153.915527,90.625961 153.807953,83.264420 
z"/>
<path fill="#478CBE" opacity="1.000000" stroke="none" 
	d="
M76.259186,221.005676 
	C79.552277,221.334839 82.845352,221.663986 86.740173,222.303146 
	C89.264084,224.105865 91.359650,226.962936 93.064590,226.746246 
	C95.200691,226.474792 97.016144,223.680344 98.969994,221.974884 
	C102.004539,221.983154 105.039078,221.991440 108.695946,222.309387 
	C111.421379,224.101944 113.524696,226.717941 115.627518,226.717545 
	C117.383965,226.717224 119.139847,223.653580 120.895981,221.946533 
	C134.944321,221.967194 148.992645,221.987854 163.506042,222.033356 
	C163.979095,241.843964 163.817413,261.632294 164.115982,281.413635 
	C164.189377,286.277802 162.459351,287.100494 158.119019,287.087250 
	C113.061020,286.949707 68.002449,287.000366 22.476389,286.992493 
	C22.007853,265.644379 22.006960,244.302567 22.015099,222.495453 
	C22.460567,222.011093 22.897001,221.992065 23.660549,221.952805 
	C37.383343,221.964859 50.779030,221.997131 64.804886,222.354431 
	C66.636414,225.787140 68.948509,228.064285 72.125053,226.704025 
	C73.976906,225.911041 74.911758,222.976608 76.259186,221.005676 
M135.526978,238.054840 
	C132.700790,238.057419 129.874100,238.027161 127.048546,238.070450 
	C123.059845,238.131561 120.649994,240.348785 120.516914,244.154526 
	C120.267395,251.290131 120.336082,258.447723 120.583595,265.585388 
	C120.711250,269.266510 122.929306,271.230042 126.812355,271.189880 
	C133.793915,271.117645 140.776764,271.181671 147.758972,271.157684 
	C151.620453,271.144440 153.687943,268.971924 153.779999,265.305145 
	C153.955170,258.327362 153.937805,251.340042 153.794754,244.360901 
	C153.714188,240.429642 151.419159,238.240524 147.481003,238.098251 
	C143.828217,237.966278 140.167252,238.060349 135.526978,238.054840 
M63.967026,269.351746 
	C64.350357,267.613770 65.025780,265.882202 65.064293,264.136627 
	C65.199936,257.989929 65.147827,251.838242 65.107704,245.688828 
	C65.071671,240.168655 63.177803,238.154526 57.697861,238.053787 
	C51.716415,237.943817 45.730503,237.964523 39.748199,238.047775 
	C34.511322,238.120621 32.343105,239.992935 32.148983,245.167023 
	C31.906130,251.639954 31.920868,258.134644 32.146595,264.608734 
	C32.294788,268.859100 34.516842,271.246490 39.178673,271.117035 
	C45.655766,270.937195 52.142883,271.141541 58.622726,271.021118 
	C60.203747,270.991730 61.773163,270.338135 63.967026,269.351746 
M76.000908,250.614258 
	C76.002876,255.102402 75.878571,259.595123 76.040703,264.077484 
	C76.219116,269.010071 78.304741,270.982513 83.116196,271.017090 
	C89.764977,271.064880 96.420113,270.862457 103.061302,271.092102 
	C106.999435,271.228302 109.579025,269.273132 109.699699,265.879120 
	C109.969521,258.290588 109.471169,250.671356 109.191994,243.068069 
	C109.050621,239.218018 106.429695,238.049561 103.094238,238.023666 
	C96.279343,237.970749 89.463707,238.002823 82.648407,238.015488 
	C79.139236,238.022003 77.006332,239.822403 76.444901,243.228058 
	C76.097122,245.337662 76.135750,247.510956 76.000908,250.614258 
z"/>
<path fill="#F4F9FC" opacity="1.000000" stroke="none" 
	d="
M120.862900,221.714539 
	C119.139847,223.653580 117.383965,226.717224 115.627518,226.717545 
	C113.524696,226.717941 111.421379,224.101944 109.149750,222.307602 
	C110.894508,220.020630 112.525276,217.106186 114.824760,216.414322 
	C116.252663,215.984695 118.694183,218.923981 120.783119,220.684189 
	C120.885498,221.017212 120.829819,221.482559 120.862900,221.714539 
z"/>
<path fill="#FADB6E" opacity="1.000000" stroke="none" 
	d="
M86.236023,199.765915 
	C77.799637,199.672470 76.227974,198.086472 76.199249,190.043320 
	C76.180817,184.882812 76.123802,179.720840 76.216644,174.561905 
	C76.325554,168.509995 78.426720,166.328568 84.282616,166.236130 
	C90.274033,166.141586 96.270645,166.111099 102.260315,166.251648 
	C107.358887,166.371307 109.593193,168.508026 109.747261,173.608170 
	C109.938179,179.928192 109.955559,186.264069 109.739037,192.582504 
	C109.561493,197.763443 107.418884,199.657059 102.184525,199.744873 
	C97.025375,199.831421 91.863670,199.765305 86.236023,199.765915 
z"/>
<path fill="#FCA159" opacity="1.000000" stroke="none" 
	d="
M127.614769,155.733261 
	C122.320335,155.217026 120.249290,152.448853 120.340065,147.650818 
	C120.453400,141.660690 120.271088,135.664688 120.401833,129.675278 
	C120.515335,124.475922 122.559746,122.346420 127.698662,122.215134 
	C134.019623,122.053650 140.352219,122.034653 146.671661,122.224541 
	C151.912888,122.382034 153.758774,124.414581 153.838959,129.721390 
	C153.929489,135.712265 153.907806,141.706039 153.846634,147.697662 
	C153.789352,153.310593 151.651291,155.574554 146.026825,155.709152 
	C140.038010,155.852432 134.043121,155.741516 127.614769,155.733261 
z"/>
<path fill="#FC676D" opacity="1.000000" stroke="none" 
	d="
M104.304985,78.133698 
	C108.502220,79.075432 109.647087,81.912949 109.705193,85.295883 
	C109.813690,91.612457 109.837379,97.934334 109.703300,104.249908 
	C109.608665,108.707291 107.644180,111.372139 102.641220,111.221855 
	C96.162308,111.027229 89.669579,111.042763 83.189629,111.218895 
	C78.772491,111.338943 76.518768,109.120575 76.369186,105.075294 
	C76.117485,98.268295 76.142746,91.440186 76.359039,84.630722 
	C76.495361,80.339325 78.900795,77.990738 83.424438,78.040024 
	C90.240906,78.114281 97.058601,78.076591 104.304985,78.133698 
z"/>
<path fill="#FDDC6B" opacity="1.000000" stroke="none" 
	d="
M35.042694,110.426445 
	C34.078506,109.402222 32.939434,108.650116 32.920303,107.870522 
	C32.709457,99.278549 32.380257,90.665497 32.871864,82.103447 
	C32.955475,80.647278 36.685440,78.416611 38.862514,78.248413 
	C45.475620,77.737518 52.153381,78.037552 58.805721,78.070381 
	C62.759651,78.089890 65.187943,80.085236 65.305847,84.066750 
	C65.517258,91.205757 65.589790,98.356087 65.433647,105.495415 
	C65.366348,108.572479 63.780396,111.091660 60.273689,111.083534 
	C51.978161,111.064308 43.683125,110.831970 35.042694,110.426445 
z"/>
<path fill="#FAFBFC" opacity="1.000000" stroke="none" 
	d="
M153.898621,177.160400 
	C153.897675,182.463104 153.952362,187.290131 153.881348,192.115311 
	C153.799225,197.695831 151.883514,199.697678 146.413162,199.782303 
	C140.257050,199.877533 134.097641,199.862717 127.940971,199.787643 
	C122.777283,199.724686 120.463005,197.652344 120.330719,192.645950 
	C120.159340,186.160126 120.201447,179.664658 120.322174,173.176514 
	C120.403557,168.803009 122.899559,166.337479 127.209785,166.224274 
	C133.861984,166.049561 140.527115,166.018997 147.177353,166.227692 
	C152.483521,166.394226 153.877884,168.783020 153.898621,177.160400 
M126.257187,184.139511 
	C128.073929,185.599594 129.720749,187.932236 131.745041,188.326401 
	C135.261765,189.011185 139.027588,188.703964 142.659088,188.424469 
	C145.767822,188.185196 148.045425,186.564575 148.012085,183.032745 
	C147.979385,179.571075 145.849960,177.869217 142.669266,177.616669 
	C139.362274,177.354111 136.021790,177.344604 132.702789,177.446548 
	C128.928452,177.562469 126.340866,179.223862 126.257187,184.139511 
z"/>
<path fill="#474857" opacity="1.000000" stroke="none" 
	d="
M104.841515,155.144562 
	C97.285240,155.331894 90.135040,155.549652 82.987282,155.487488 
	C78.813309,155.451202 76.521202,152.979828 76.452400,148.843781 
	C76.341637,142.185318 76.336151,135.520355 76.504173,128.863647 
	C76.616165,124.427040 79.228607,122.271187 83.610687,122.255356 
	C89.774597,122.233078 95.938736,122.269089 102.102570,122.238235 
	C106.727219,122.215080 109.426765,124.412720 109.531319,129.073486 
	C109.680664,135.730392 109.890747,142.421295 109.346809,149.037811 
	C109.173790,151.142441 106.680290,153.056305 104.841515,155.144562 
M84.864410,134.054321 
	C83.973320,136.317947 82.022957,138.849274 82.507187,140.765335 
	C82.938904,142.473648 85.919670,144.256165 88.031509,144.656845 
	C91.384995,145.293152 94.978897,145.071274 98.420135,144.717148 
	C101.637207,144.386093 104.009033,142.674698 104.014961,138.943542 
	C104.020912,135.194992 101.560081,133.374557 98.412636,133.185760 
	C94.174057,132.931519 89.887169,133.482513 84.864410,134.054321 
z"/>
<path fill="#488DBF" opacity="1.000000" stroke="none" 
	d="
M64.943878,171.625061 
	C65.003036,178.875458 65.005569,185.686493 65.025375,192.497482 
	C65.038116,196.876648 63.384712,199.295120 58.491573,199.097504 
	C52.023224,198.836243 45.532383,198.894226 39.058788,199.079620 
	C34.333706,199.214920 32.267101,196.649048 32.102444,192.489670 
	C31.852932,186.186844 31.859612,179.860123 32.099213,173.556534 
	C32.257179,169.400726 34.284672,166.802933 39.019394,166.933182 
	C45.493408,167.111252 51.976315,167.017426 58.454731,166.961624 
	C61.599850,166.934540 64.007858,167.854904 64.943878,171.625061 
M58.329945,179.167664 
	C53.523598,178.558899 48.729866,177.649506 43.906467,177.447098 
	C40.692852,177.312225 38.128445,179.005905 37.933155,182.738220 
	C37.720051,186.810989 40.447109,188.377838 43.813873,188.706161 
	C47.251537,189.041367 50.787319,189.078949 54.211956,188.672424 
	C59.287903,188.069839 60.815556,184.830124 58.329945,179.167664 
z"/>
<path fill="#A0D67E" opacity="1.000000" stroke="none" 
	d="
M65.834419,136.076309 
	C65.830353,140.546844 65.930321,144.536026 65.795258,148.517242 
	C65.640648,153.074692 63.022095,155.651855 58.589096,155.811615 
	C52.120853,156.044662 45.630493,156.059464 39.163754,155.805710 
	C34.507862,155.623016 32.134945,152.769272 32.090176,147.978271 
	C32.032761,141.834213 32.173889,135.687195 32.047565,129.545212 
	C31.949205,124.763000 34.407856,122.334106 38.875137,122.174744 
	C45.509396,121.938065 52.162949,121.944115 58.798641,122.153099 
	C63.049175,122.286980 65.472191,124.840462 65.789711,129.116806 
	C65.949165,131.264297 65.828568,133.432571 65.834419,136.076309 
M48.580513,127.963829 
	C41.559669,128.817337 37.639545,133.190765 37.974205,139.796616 
	C38.258610,145.410645 43.023006,149.881058 48.809635,149.963470 
	C54.453648,150.043854 59.707939,145.083496 59.982681,139.415466 
	C60.273781,133.409897 56.029961,128.814926 48.580513,127.963829 
z"/>
<path fill="#06DACC" opacity="1.000000" stroke="none" 
	d="
M153.857422,83.695671 
	C153.915527,90.625961 154.013763,97.126495 153.905334,103.623581 
	C153.813339,109.135002 151.793137,111.032143 146.264572,111.070786 
	C140.099045,111.113892 133.921951,110.853989 127.770592,111.152573 
	C122.797867,111.393951 120.515221,108.860161 120.300201,104.481941 
	C119.981819,97.998810 119.989883,91.481461 120.251320,84.994499 
	C120.422104,80.757011 123.115631,78.212677 127.368698,78.085777 
	C134.028397,77.887070 140.699417,77.967567 147.363678,78.065033 
	C150.756363,78.114647 152.962189,79.916718 153.857422,83.695671 
M129.991913,86.346664 
	C125.498833,91.425964 124.825218,95.938980 127.846397,100.721062 
	C130.406342,104.773071 135.596191,106.850693 139.926025,105.482178 
	C144.212662,104.127304 147.143097,101.363617 147.924225,96.843521 
	C148.689301,92.416298 147.429001,88.539474 143.629196,85.915344 
	C139.373169,82.976151 134.961929,83.061676 129.991913,86.346664 
z"/>
<path fill="#F5F9FC" opacity="1.000000" stroke="none" 
	d="
M98.885063,221.627625 
	C97.016144,223.680344 95.200691,226.474792 93.064590,226.746246 
	C91.359650,226.962936 89.264084,224.105865 87.185066,222.294144 
	C88.899605,220.007141 90.450653,217.028290 92.717987,216.309784 
	C96.060951,215.250397 97.856926,218.232605 98.885063,221.627625 
z"/>
<path fill="#484A5A" opacity="1.000000" stroke="none" 
	d="
M76.150230,220.649231 
	C74.911758,222.976608 73.976906,225.911041 72.125053,226.704025 
	C68.948509,228.064285 66.636414,225.787140 65.281006,222.376846 
	C66.987190,220.105042 68.560638,217.503738 70.844238,216.467682 
	C71.801125,216.033524 74.263405,218.917404 76.150230,220.649231 
z"/>
<path fill="#FD656A" opacity="1.000000" stroke="none" 
	d="
M136.018433,238.054871 
	C140.167252,238.060349 143.828217,237.966278 147.481003,238.098251 
	C151.419159,238.240524 153.714188,240.429642 153.794754,244.360901 
	C153.937805,251.340042 153.955170,258.327362 153.779999,265.305145 
	C153.687943,268.971924 151.620453,271.144440 147.758972,271.157684 
	C140.776764,271.181671 133.793915,271.117645 126.812355,271.189880 
	C122.929306,271.230042 120.711250,269.266510 120.583595,265.585388 
	C120.336082,258.447723 120.267395,251.290131 120.516914,244.154526 
	C120.649994,240.348785 123.059845,238.131561 127.048546,238.070450 
	C129.874100,238.027161 132.700790,238.057419 136.018433,238.054871 
z"/>
<path fill="#01DBCD" opacity="1.000000" stroke="none" 
	d="
M63.657471,269.661652 
	C61.773163,270.338135 60.203747,270.991730 58.622726,271.021118 
	C52.142883,271.141541 45.655766,270.937195 39.178673,271.117035 
	C34.516842,271.246490 32.294788,268.859100 32.146595,264.608734 
	C31.920868,258.134644 31.906130,251.639954 32.148983,245.167023 
	C32.343105,239.992935 34.511322,238.120621 39.748199,238.047775 
	C45.730503,237.964523 51.716415,237.943817 57.697861,238.053787 
	C63.177803,238.154526 65.071671,240.168655 65.107704,245.688828 
	C65.147827,251.838242 65.199936,257.989929 65.064293,264.136627 
	C65.025780,265.882202 64.350357,267.613770 63.657471,269.661652 
z"/>
<path fill="#65B0DA" opacity="1.000000" stroke="none" 
	d="
M76.000916,250.134964 
	C76.135750,247.510956 76.097122,245.337662 76.444901,243.228058 
	C77.006332,239.822403 79.139236,238.022003 82.648407,238.015488 
	C89.463707,238.002823 96.279343,237.970749 103.094238,238.023666 
	C106.429695,238.049561 109.050621,239.218018 109.191994,243.068069 
	C109.471169,250.671356 109.969521,258.290588 109.699699,265.879120 
	C109.579025,269.273132 106.999435,271.228302 103.061302,271.092102 
	C96.420113,270.862457 89.764977,271.064880 83.116196,271.017090 
	C78.304741,270.982513 76.219116,269.010071 76.040703,264.077484 
	C75.878571,259.595123 76.002876,255.102402 76.000916,250.134964 
M103.993919,255.371323 
	C104.268066,250.506058 102.109261,246.377365 97.762642,245.127396 
	C94.370491,244.151901 89.842300,244.616333 86.627388,246.143173 
	C82.179840,248.255417 80.900658,253.814697 82.451202,258.273132 
	C84.043205,262.850769 88.923523,266.202423 93.575615,265.913086 
	C98.762306,265.590515 102.289894,262.284851 103.993919,255.371323 
z"/>
<path fill="#FF6B70" opacity="1.000000" stroke="none" 
	d="
M126.187637,183.763885 
	C126.340866,179.223862 128.928452,177.562469 132.702789,177.446548 
	C136.021790,177.344604 139.362274,177.354111 142.669266,177.616669 
	C145.849960,177.869217 147.979385,179.571075 148.012085,183.032745 
	C148.045425,186.564575 145.767822,188.185196 142.659088,188.424469 
	C139.027588,188.703964 135.261765,189.011185 131.745041,188.326401 
	C129.720749,187.932236 128.073929,185.599594 126.187637,183.763885 
z"/>
<path fill="#4A89B8" opacity="1.000000" stroke="none" 
	d="
M85.242714,133.871124 
	C89.887169,133.482513 94.174057,132.931519 98.412636,133.185760 
	C101.560081,133.374557 104.020912,135.194992 104.014961,138.943542 
	C104.009033,142.674698 101.637207,144.386093 98.420135,144.717148 
	C94.978897,145.071274 91.384995,145.293152 88.031509,144.656845 
	C85.919670,144.256165 82.938904,142.473648 82.507187,140.765335 
	C82.022957,138.849274 83.973320,136.317947 85.242714,133.871124 
z"/>
<path fill="#F4F8FB" opacity="1.000000" stroke="none" 
	d="
M58.578205,179.474182 
	C60.815556,184.830124 59.287903,188.069839 54.211956,188.672424 
	C50.787319,189.078949 47.251537,189.041367 43.813873,188.706161 
	C40.447109,188.377838 37.720051,186.810989 37.933155,182.738220 
	C38.128445,179.005905 40.692852,177.312225 43.906467,177.447098 
	C48.729866,177.649506 53.523598,178.558899 58.578205,179.474182 
z"/>
<path fill="#FDDC6B" opacity="1.000000" stroke="none" 
	d="
M48.993889,127.964401 
	C56.029961,128.814926 60.273781,133.409897 59.982681,139.415466 
	C59.707939,145.083496 54.453648,150.043854 48.809635,149.963470 
	C43.023006,149.881058 38.258610,145.410645 37.974205,139.796616 
	C37.639545,133.190765 41.559669,128.817337 48.993889,127.964401 
z"/>
<path fill="#FA686D" opacity="1.000000" stroke="none" 
	d="
M130.305420,86.117538 
	C134.961929,83.061676 139.373169,82.976151 143.629196,85.915344 
	C147.429001,88.539474 148.689301,92.416298 147.924225,96.843521 
	C147.143097,101.363617 144.212662,104.127304 139.926025,105.482178 
	C135.596191,106.850693 130.406342,104.773071 127.846397,100.721062 
	C124.825218,95.938980 125.498833,91.425964 130.305420,86.117538 
z"/>
<path fill="#FCDB6D" opacity="1.000000" stroke="none" 
	d="
M103.979065,255.774719 
	C102.289894,262.284851 98.762306,265.590515 93.575615,265.913086 
	C88.923523,266.202423 84.043205,262.850769 82.451202,258.273132 
	C80.900658,253.814697 82.179840,248.255417 86.627388,246.143173 
	C89.842300,244.616333 94.370491,244.151901 97.762642,245.127396 
	C102.109261,246.377365 104.268066,250.506058 103.979065,255.774719 
z"/>
</svg>