<svg version="1.1" id="Layer_1" xmlns="http://www.w3.org/2000/svg" xmlns:xlink="http://www.w3.org/1999/xlink" x="0px" y="0px"
	 width="100%" viewBox="0 0 343 317" enable-background="new 0 0 343 317" xml:space="preserve">
<path fill="#F6F6F6" opacity="1.000000" stroke="none" 
	d="
M201.000000,318.000000 
	C134.000000,318.000000 67.500000,318.000000 1.000000,318.000000 
	C1.000000,212.333328 1.000000,106.666664 1.000000,1.000000 
	C115.333336,1.000000 229.666672,1.000000 344.000000,1.000000 
	C344.000000,106.666664 344.000000,212.333328 344.000000,318.000000 
	C296.500000,318.000000 249.000000,318.000000 201.000000,318.000000 
M34.604057,58.972305 
	C21.318615,58.978233 17.420189,62.902889 17.419464,76.293297 
	C17.417320,115.944405 17.406828,155.595520 17.427176,195.246628 
	C17.432823,206.253433 21.965925,210.809052 32.863918,210.824951 
	C49.024208,210.848526 65.184563,210.831039 81.344887,210.831055 
	C88.476433,210.831055 95.607986,210.831055 103.211433,210.831055 
	C102.226692,217.481369 101.314720,223.640274 100.362732,230.069443 
	C87.811806,230.069443 75.666122,229.987930 63.522148,230.097321 
	C55.034439,230.173767 48.431355,235.911942 47.124783,244.026962 
	C46.371662,248.704544 47.552521,250.293365 52.162025,250.296021 
	C101.475990,250.324432 150.790039,250.285049 200.103882,250.366318 
	C204.190460,250.373077 205.331680,248.614197 205.055237,244.879929 
	C204.439545,236.562729 197.490082,230.168594 188.476303,230.093735 
	C176.343933,229.992996 164.210098,230.068756 151.788559,230.068756 
	C150.822876,223.533539 149.914215,217.384308 148.945877,210.831085 
	C151.123825,210.831085 152.766586,210.831085 154.409332,210.831085 
	C176.067505,210.831039 197.725693,210.847595 219.383835,210.823914 
	C230.112640,210.812195 234.823578,206.032379 234.826752,195.179672 
	C234.838531,155.028763 234.837921,114.877846 234.826996,74.726929 
	C234.823975,63.665932 230.095734,58.974369 219.004669,58.973816 
	C157.862000,58.970779 96.719322,58.972328 34.604057,58.972305 
M334.584869,119.500198 
	C334.584839,95.182701 334.592010,70.865204 334.581635,46.547710 
	C334.576569,34.621593 330.171204,30.160353 318.427155,30.157398 
	C297.440765,30.152115 276.454346,30.135382 255.468002,30.165424 
	C245.608734,30.179537 240.834564,34.987663 240.832153,44.918507 
	C240.816742,108.377342 240.815765,171.836182 240.833557,235.295029 
	C240.836304,245.097137 245.738693,249.935150 255.589355,249.944183 
	C276.409180,249.963242 297.229004,249.952377 318.048828,249.949844 
	C330.247620,249.948349 334.579529,245.630630 334.581940,233.426971 
	C334.589355,195.784714 334.584747,158.142471 334.584869,119.500198 
M100.500183,261.379120 
	C82.515388,261.379120 64.530594,261.372467 46.545803,261.382568 
	C39.728165,261.386383 39.695480,261.436218 39.683743,268.438446 
	C39.679352,271.057220 39.683029,273.675964 39.683029,276.766602 
	C37.494492,276.766602 35.845680,276.921448 34.235775,276.736877 
	C29.819750,276.230682 28.176491,278.162170 28.515272,282.483887 
	C28.761782,285.628540 28.559105,288.808075 28.563869,291.972076 
	C28.574423,298.979370 28.576263,298.990387 35.432907,298.990753 
	C93.550545,298.993896 151.668182,298.992706 209.785812,298.992798 
	C223.642654,298.992828 223.642654,298.992798 223.639526,284.907288 
	C223.637802,277.127960 223.637497,277.133179 215.873734,276.667267 
	C215.596054,276.650574 215.337067,276.322601 214.742401,275.916321 
	C214.742401,273.823730 214.743774,271.510437 214.742142,269.197113 
	C214.736771,261.579285 214.544067,261.380798 206.911255,261.380249 
	C171.774231,261.377716 136.637207,261.379150 100.500183,261.379120 
M245.880768,301.846497 
	C260.370819,301.846497 274.861450,301.776825 289.350586,301.892426 
	C293.284576,301.923798 295.233734,300.681458 295.067200,296.431458 
	C294.845581,290.777283 295.095581,285.106384 294.986267,279.445679 
	C294.811737,270.408142 288.350006,263.581757 279.350372,263.271118 
	C271.698303,263.006927 264.022522,263.007538 256.370483,263.272888 
	C247.481857,263.581146 241.133942,270.116089 240.875259,278.978973 
	C240.700424,284.969849 240.895157,290.970734 240.795074,296.964966 
	C240.745377,299.941772 241.675430,301.834778 245.880768,301.846497 
z"/>
<path fill="#090909" opacity="1.000000" stroke="none" 
	d="
M35.090351,58.972301 
	C96.719322,58.972328 157.862000,58.970779 219.004669,58.973816 
	C230.095734,58.974369 234.823975,63.665932 234.826996,74.726929 
	C234.837921,114.877846 234.838531,155.028763 234.826752,195.179672 
	C234.823578,206.032379 230.112640,210.812195 219.383835,210.823914 
	C197.725693,210.847595 176.067505,210.831039 154.409332,210.831085 
	C152.766586,210.831085 151.123825,210.831085 148.945877,210.831085 
	C149.914215,217.384308 150.822876,223.533539 151.788559,230.068756 
	C164.210098,230.068756 176.343933,229.992996 188.476303,230.093735 
	C197.490082,230.168594 204.439545,236.562729 205.055237,244.879929 
	C205.331680,248.614197 204.190460,250.373077 200.103882,250.366318 
	C150.790039,250.285049 101.475990,250.324432 52.162025,250.296021 
	C47.552521,250.293365 46.371662,248.704544 47.124783,244.026962 
	C48.431355,235.911942 55.034439,230.173767 63.522148,230.097321 
	C75.666122,229.987930 87.811806,230.069443 100.362732,230.069443 
	C101.314720,223.640274 102.226692,217.481369 103.211433,210.831055 
	C95.607986,210.831055 88.476433,210.831055 81.344887,210.831055 
	C65.184563,210.831039 49.024208,210.848526 32.863918,210.824951 
	C21.965925,210.809052 17.432823,206.253433 17.427176,195.246628 
	C17.406828,155.595520 17.417320,115.944405 17.419464,76.293297 
	C17.420189,62.902889 21.318615,58.978233 35.090351,58.972301 
M57.500000,204.144867 
	C111.159012,204.144760 164.818024,204.146484 218.477036,204.142685 
	C226.931793,204.142075 228.101685,202.996826 228.102493,194.733948 
	C228.106415,155.072952 228.105484,115.411942 228.103653,75.750938 
	C228.103226,66.649513 226.542892,65.107300 217.299515,65.106850 
	C156.474869,65.103844 95.650223,65.105286 34.825573,65.105560 
	C33.825722,65.105568 32.823582,65.065758 31.826405,65.118355 
	C26.220411,65.414093 23.953203,67.646797 23.949621,73.177193 
	C23.922966,114.337967 23.923130,155.498779 23.949560,196.659531 
	C23.953140,202.232651 25.844324,204.082733 31.503702,204.125900 
	C39.835365,204.189468 48.167862,204.144196 57.500000,204.144867 
M167.500000,236.837646 
	C133.880981,236.837845 100.261971,236.836472 66.642960,236.842499 
	C64.812965,236.842834 62.945885,236.684250 61.160755,236.984390 
	C57.473328,237.604370 54.809319,239.438614 54.385799,243.616150 
	C102.288345,243.616150 149.930573,243.616150 197.705017,243.616150 
	C195.953400,238.477402 194.222412,236.983490 189.469467,236.894592 
	C182.481735,236.763901 175.490021,236.845856 167.500000,236.837646 
M114.605515,229.999390 
	C124.537437,229.999390 134.469360,229.999390 145.033600,229.999390 
	C144.206589,223.813705 143.610901,218.287079 142.584595,212.841599 
	C142.431427,212.029037 140.263840,211.093613 139.012924,211.071350 
	C130.367508,210.917450 121.716515,210.911819 113.071686,211.081406 
	C111.867302,211.105026 109.811768,212.177704 109.638451,213.057831 
	C108.573174,218.467545 107.935738,223.961502 107.074318,229.999390 
	C109.720573,229.999390 111.681526,229.999390 114.605515,229.999390 
z"/>
<path fill="#0A0A0A" opacity="1.000000" stroke="none" 
	d="
M334.584839,120.000206 
	C334.584747,158.142471 334.589355,195.784714 334.581940,233.426971 
	C334.579529,245.630630 330.247620,249.948349 318.048828,249.949844 
	C297.229004,249.952377 276.409180,249.963242 255.589355,249.944183 
	C245.738693,249.935150 240.836304,245.097137 240.833557,235.295029 
	C240.815765,171.836182 240.816742,108.377342 240.832153,44.918507 
	C240.834564,34.987663 245.608734,30.179537 255.468002,30.165424 
	C276.454346,30.135382 297.440765,30.152115 318.427155,30.157398 
	C330.171204,30.160353 334.576569,34.621593 334.581635,46.547710 
	C334.592010,70.865204 334.584839,95.182701 334.584839,120.000206 
M247.033936,217.499847 
	C247.034256,223.160690 247.010086,228.821655 247.041168,234.482330 
	C247.078949,241.360596 248.789185,243.116272 255.506516,243.121277 
	C276.817963,243.137161 298.129425,243.135117 319.440887,243.123749 
	C326.444794,243.120010 328.042053,241.570129 328.046448,234.740128 
	C328.060944,212.263199 328.058441,189.786270 328.039337,167.309357 
	C328.037994,165.710724 327.849762,164.112259 327.740387,162.386337 
	C300.720337,162.386337 274.174103,162.386337 247.033997,162.386337 
	C247.033997,180.634140 247.033997,198.567047 247.033936,217.499847 
M247.058578,43.093830 
	C247.058578,49.543331 247.058578,55.992836 247.058578,62.618271 
	C274.336395,62.618271 301.009521,62.618271 328.049042,62.618271 
	C328.049042,56.343674 328.078033,50.528595 328.040985,44.713932 
	C328.002838,38.731449 326.264648,36.937359 320.340942,36.929401 
	C298.512970,36.900082 276.684540,36.985161 254.857254,36.856972 
	C250.758881,36.832901 248.103210,38.122120 247.058578,43.093830 
M328.055817,115.417862 
	C328.055817,111.481430 328.055817,107.544991 328.055817,103.438736 
	C300.744080,103.438736 274.102936,103.438736 247.030106,103.438736 
	C247.030106,108.297897 247.284271,112.778877 246.955048,117.216560 
	C246.655930,121.248108 248.169800,122.265709 252.042542,122.239647 
	C275.485687,122.081848 298.931732,122.032684 322.373505,122.270035 
	C327.047577,122.317352 328.785828,120.889656 328.055817,115.417862 
M253.627106,96.810898 
	C278.366577,96.810898 303.106018,96.810898 327.861023,96.810898 
	C327.861023,87.454941 327.861023,78.740448 327.861023,70.083984 
	C300.784607,70.083984 274.075409,70.083984 247.363922,70.083984 
	C247.363922,79.096359 247.363922,87.795723 247.363922,96.810837 
	C249.379517,96.810837 251.023087,96.810837 253.627106,96.810898 
M247.007172,152.287537 
	C246.401657,155.649307 248.244293,155.993301 251.029007,155.983627 
	C275.839142,155.897324 300.649658,155.934174 325.460083,155.918610 
	C326.249786,155.918121 327.039368,155.744125 327.880493,155.644928 
	C327.880493,146.666183 327.880493,137.947891 327.880493,129.175018 
	C300.843475,129.175018 274.127167,129.175018 247.006454,129.175018 
	C247.006454,136.747223 247.006454,144.038071 247.007172,152.287537 
z"/>
<path fill="#090B0B" opacity="1.000000" stroke="none" 
	d="
M101.000183,261.379150 
	C136.637207,261.379150 171.774231,261.377716 206.911255,261.380249 
	C214.544067,261.380798 214.736771,261.579285 214.742142,269.197113 
	C214.743774,271.510437 214.742401,273.823730 214.742401,275.916321 
	C215.337067,276.322601 215.596054,276.650574 215.873734,276.667267 
	C223.637497,277.133179 223.637802,277.127960 223.639526,284.907288 
	C223.642654,298.992798 223.642654,298.992828 209.785812,298.992798 
	C151.668182,298.992706 93.550545,298.993896 35.432907,298.990753 
	C28.576263,298.990387 28.574423,298.979370 28.563869,291.972076 
	C28.559105,288.808075 28.761782,285.628540 28.515272,282.483887 
	C28.176491,278.162170 29.819750,276.230682 34.235775,276.736877 
	C35.845680,276.921448 37.494492,276.766602 39.683029,276.766602 
	C39.683029,273.675964 39.679352,271.057220 39.683743,268.438446 
	C39.695480,261.436218 39.728165,261.386383 46.545803,261.382568 
	C64.530594,261.372467 82.515388,261.379120 101.000183,261.379150 
M98.500000,283.037811 
	C77.438126,283.037811 56.376255,283.037811 35.465515,283.037811 
	C35.465515,286.824829 35.465515,289.712708 35.465515,292.561707 
	C96.128532,292.561707 156.327759,292.561707 216.659515,292.561707 
	C216.659515,289.307220 216.659515,286.419220 216.659515,283.037903 
	C177.358353,283.037903 138.429169,283.037903 98.500000,283.037811 
M96.500046,267.780731 
	C85.567688,267.780731 74.635323,267.780731 63.769012,267.780731 
	C63.769012,271.188599 63.769012,273.877136 63.769012,276.442444 
	C94.669594,276.442444 125.094833,276.442444 155.609406,276.442444 
	C155.609406,273.497314 155.609406,270.903412 155.609406,267.780670 
	C136.070084,267.780670 116.785072,267.780670 96.500046,267.780731 
M56.999126,274.240143 
	C56.999126,272.159576 56.999126,270.079010 56.999126,268.193115 
	C52.834038,268.193115 49.445232,268.193115 46.201416,268.193115 
	C46.201416,271.202667 46.201416,273.792694 46.201416,277.536072 
	C50.131718,276.666412 53.548580,275.910339 56.999126,274.240143 
M165.703857,276.794159 
	C168.111603,276.794159 170.519348,276.794159 172.860748,276.794159 
	C172.860748,273.382355 172.860748,270.696625 172.860748,268.138733 
	C169.066360,268.138733 165.694260,268.138733 162.373657,268.138733 
	C161.646469,275.574890 161.646469,275.574890 165.703857,276.794159 
M190.876236,273.316284 
	C190.876236,271.562714 190.876236,269.809143 190.876236,268.164734 
	C186.749512,268.164734 183.357742,268.164734 180.038849,268.164734 
	C180.038849,271.152161 180.038849,273.736023 180.038849,276.777893 
	C183.121735,276.777893 185.930191,276.968048 188.683014,276.660339 
	C189.493530,276.569702 190.146515,275.069824 190.876236,273.316284 
M200.703857,276.794159 
	C203.111603,276.794159 205.519348,276.794159 207.860748,276.794159 
	C207.860748,273.382355 207.860748,270.696625 207.860748,268.138733 
	C204.066360,268.138733 200.694260,268.138733 195.955826,268.138733 
	C198.990463,271.016937 193.807556,275.557037 200.703857,276.794159 
z"/>
<path fill="#0B0B0B" opacity="1.000000" stroke="none" 
	d="
M245.421219,301.844421 
	C241.675430,301.834778 240.745377,299.941772 240.795074,296.964966 
	C240.895157,290.970734 240.700424,284.969849 240.875259,278.978973 
	C241.133942,270.116089 247.481857,263.581146 256.370483,263.272888 
	C264.022522,263.007538 271.698303,263.006927 279.350372,263.271118 
	C288.350006,263.581757 294.811737,270.408142 294.986267,279.445679 
	C295.095581,285.106384 294.845581,290.777283 295.067200,296.431458 
	C295.233734,300.681458 293.284576,301.923798 289.350586,301.892426 
	C274.861450,301.776825 260.370819,301.846497 245.421219,301.844421 
M267.502502,269.904144 
	C264.007721,269.906403 260.510040,270.000061 257.018829,269.889404 
	C251.852539,269.725677 248.300385,272.505188 247.643478,277.104645 
	C246.818832,282.878693 247.444901,288.859894 247.444901,295.071503 
	C260.242798,295.071503 272.545288,295.027527 284.846985,295.105438 
	C287.582947,295.122742 288.228912,293.793091 288.176086,291.403625 
	C288.084137,287.245178 288.233093,283.081024 288.123566,278.923401 
	C287.980469,273.491669 284.490753,270.079590 278.980042,269.930786 
	C275.487701,269.836517 271.990967,269.907196 267.502502,269.904144 
z"/>
<path fill="#454643" opacity="1.000000" stroke="none" 
	d="
M57.000000,204.145065 
	C48.167862,204.144196 39.835365,204.189468 31.503702,204.125900 
	C25.844324,204.082733 23.953140,202.232651 23.949560,196.659531 
	C23.923130,155.498779 23.922966,114.337967 23.949621,73.177193 
	C23.953203,67.646797 26.220411,65.414093 31.826405,65.118355 
	C32.823582,65.065758 33.825722,65.105568 34.825573,65.105560 
	C95.650223,65.105286 156.474869,65.103844 217.299515,65.106850 
	C226.542892,65.107300 228.103226,66.649513 228.103653,75.750938 
	C228.105484,115.411942 228.106415,155.072952 228.102493,194.733948 
	C228.101685,202.996826 226.931793,204.142075 218.477036,204.142685 
	C164.818024,204.146484 111.159012,204.144760 57.000000,204.145065 
M220.056488,157.500000 
	C220.055191,133.682495 220.074921,109.864952 220.041580,86.047493 
	C220.029297,77.268188 214.971725,72.078835 206.107925,72.069756 
	C152.643402,72.014984 99.178757,72.010254 45.714256,72.076759 
	C37.169861,72.087387 32.004581,77.403160 31.996109,85.834145 
	C31.963137,118.645699 31.936342,151.457520 32.075928,184.268509 
	C32.086578,186.772202 32.986973,189.506668 34.214340,191.723953 
	C37.182831,197.086716 42.499817,197.843689 48.011032,197.843811 
	C92.315018,197.844803 136.619003,197.844604 180.922989,197.844467 
	C189.084244,197.844437 197.247192,197.947632 205.406326,197.815475 
	C215.355438,197.654343 220.027924,192.839645 220.050781,182.983765 
	C220.069717,174.822556 220.055893,166.661255 220.056488,157.500000 
z"/>
<path fill="#454643" opacity="1.000000" stroke="none" 
	d="
M168.000000,236.837433 
	C175.490021,236.845856 182.481735,236.763901 189.469467,236.894592 
	C194.222412,236.983490 195.953400,238.477402 197.705017,243.616150 
	C149.930573,243.616150 102.288345,243.616150 54.385799,243.616150 
	C54.809319,239.438614 57.473328,237.604370 61.160755,236.984390 
	C62.945885,236.684250 64.812965,236.842834 66.642960,236.842499 
	C100.261971,236.836472 133.880981,236.837845 168.000000,236.837433 
z"/>
<path fill="#323230" opacity="1.000000" stroke="none" 
	d="
M114.124001,229.999390 
	C111.681526,229.999390 109.720573,229.999390 107.074318,229.999390 
	C107.935738,223.961502 108.573174,218.467545 109.638451,213.057831 
	C109.811768,212.177704 111.867302,211.105026 113.071686,211.081406 
	C121.716515,210.911819 130.367508,210.917450 139.012924,211.071350 
	C140.263840,211.093613 142.431427,212.029037 142.584595,212.841599 
	C143.610901,218.287079 144.206589,223.813705 145.033600,229.999390 
	C134.469360,229.999390 124.537437,229.999390 114.124001,229.999390 
z"/>
<path fill="#484946" opacity="1.000000" stroke="none" 
	d="
M247.033966,216.999893 
	C247.033997,198.567047 247.033997,180.634140 247.033997,162.386337 
	C274.174103,162.386337 300.720337,162.386337 327.740387,162.386337 
	C327.849762,164.112259 328.037994,165.710724 328.039337,167.309357 
	C328.058441,189.786270 328.060944,212.263199 328.046448,234.740128 
	C328.042053,241.570129 326.444794,243.120010 319.440887,243.123749 
	C298.129425,243.135117 276.817963,243.137161 255.506516,243.121277 
	C248.789185,243.116272 247.078949,241.360596 247.041168,234.482330 
	C247.010086,228.821655 247.034256,223.160690 247.033966,216.999893 
M299.764984,199.929474 
	C296.584778,199.481842 294.462372,200.633881 294.338898,204.026749 
	C294.175568,208.513992 294.103577,213.018234 294.311646,217.500351 
	C294.442627,220.321762 296.013702,222.010010 299.191711,221.946198 
	C304.850159,221.832535 310.512543,221.909592 316.173279,221.914474 
	C319.467560,221.917313 321.055054,220.301926 321.019165,216.989029 
	C320.974091,212.827209 320.894012,208.660370 321.044189,204.503479 
	C321.171906,200.968445 319.507141,199.810333 316.191895,199.895248 
	C311.034027,200.027359 305.870270,199.928726 299.764984,199.929474 
z"/>
<path fill="#494A47" opacity="1.000000" stroke="none" 
	d="
M247.093216,42.658379 
	C248.103210,38.122120 250.758881,36.832901 254.857254,36.856972 
	C276.684540,36.985161 298.512970,36.900082 320.340942,36.929401 
	C326.264648,36.937359 328.002838,38.731449 328.040985,44.713932 
	C328.078033,50.528595 328.049042,56.343674 328.049042,62.618271 
	C301.009521,62.618271 274.336395,62.618271 247.058578,62.618271 
	C247.058578,55.992836 247.058578,49.543331 247.093216,42.658379 
z"/>
<path fill="#474845" opacity="1.000000" stroke="none" 
	d="
M328.055847,115.900833 
	C328.785828,120.889656 327.047577,122.317352 322.373505,122.270035 
	C298.931732,122.032684 275.485687,122.081848 252.042542,122.239647 
	C248.169800,122.265709 246.655930,121.248108 246.955048,117.216560 
	C247.284271,112.778877 247.030106,108.297897 247.030106,103.438736 
	C274.102936,103.438736 300.744080,103.438736 328.055817,103.438736 
	C328.055817,107.544991 328.055817,111.481430 328.055847,115.900833 
z"/>
<path fill="#BFBFB9" opacity="1.000000" stroke="none" 
	d="
M253.146881,96.810867 
	C251.023087,96.810837 249.379517,96.810837 247.363922,96.810837 
	C247.363922,87.795723 247.363922,79.096359 247.363922,70.083984 
	C274.075409,70.083984 300.784607,70.083984 327.861023,70.083984 
	C327.861023,78.740448 327.861023,87.454941 327.861023,96.810898 
	C303.106018,96.810898 278.366577,96.810898 253.146881,96.810867 
M308.495361,73.967155 
	C289.788574,73.967155 271.081757,73.967155 252.406174,73.967155 
	C252.406174,80.408409 252.406174,86.125710 252.406174,91.770340 
	C276.121887,91.770340 299.466736,91.770340 322.774597,91.770340 
	C322.774597,85.692360 322.774597,79.984390 322.774597,73.967140 
	C318.091644,73.967140 313.791901,73.967140 308.495361,73.967155 
z"/>
<path fill="#C7C7C0" opacity="1.000000" stroke="none" 
	d="
M247.006805,151.808228 
	C247.006454,144.038071 247.006454,136.747223 247.006454,129.175018 
	C274.127167,129.175018 300.843475,129.175018 327.880493,129.175018 
	C327.880493,137.947891 327.880493,146.666183 327.880493,155.644928 
	C327.039368,155.744125 326.249786,155.918121 325.460083,155.918610 
	C300.649658,155.934174 275.839142,155.897324 251.029007,155.983627 
	C248.244293,155.993301 246.401657,155.649307 247.006805,151.808228 
M294.500000,133.157578 
	C280.419952,133.157578 266.339905,133.157578 252.285355,133.157578 
	C252.285355,139.715286 252.285355,145.475311 252.285355,151.444763 
	C275.964661,151.444763 299.347107,151.444763 322.807007,151.444763 
	C322.807007,145.254593 322.807007,139.386063 322.807007,133.157700 
	C313.434540,133.157700 304.467255,133.157700 294.500000,133.157578 
z"/>
<path fill="#474845" opacity="1.000000" stroke="none" 
	d="
M99.000000,283.037842 
	C138.429169,283.037903 177.358353,283.037903 216.659515,283.037903 
	C216.659515,286.419220 216.659515,289.307220 216.659515,292.561707 
	C156.327759,292.561707 96.128532,292.561707 35.465515,292.561707 
	C35.465515,289.712708 35.465515,286.824829 35.465515,283.037811 
	C56.376255,283.037811 77.438126,283.037811 99.000000,283.037842 
z"/>
<path fill="#63B7D6" opacity="1.000000" stroke="none" 
	d="
M97.000046,267.780701 
	C116.785072,267.780670 136.070084,267.780670 155.609406,267.780670 
	C155.609406,270.903412 155.609406,273.497314 155.609406,276.442444 
	C125.094833,276.442444 94.669594,276.442444 63.769012,276.442444 
	C63.769012,273.877136 63.769012,271.188599 63.769012,267.780731 
	C74.635323,267.780731 85.567688,267.780731 97.000046,267.780701 
z"/>
<path fill="#63B7D5" opacity="1.000000" stroke="none" 
	d="
M56.982285,274.697205 
	C53.548580,275.910339 50.131718,276.666412 46.201416,277.536072 
	C46.201416,273.792694 46.201416,271.202667 46.201416,268.193115 
	C49.445232,268.193115 52.834038,268.193115 56.999126,268.193115 
	C56.999126,270.079010 56.999126,272.159576 56.982285,274.697205 
z"/>
<path fill="#63B6D5" opacity="1.000000" stroke="none" 
	d="
M165.248291,276.792358 
	C161.646469,275.574890 161.646469,275.574890 162.373657,268.138733 
	C165.694260,268.138733 169.066360,268.138733 172.860748,268.138733 
	C172.860748,270.696625 172.860748,273.382355 172.860748,276.794159 
	C170.519348,276.794159 168.111603,276.794159 165.248291,276.792358 
z"/>
<path fill="#62B5D3" opacity="1.000000" stroke="none" 
	d="
M190.873962,273.766022 
	C190.146515,275.069824 189.493530,276.569702 188.683014,276.660339 
	C185.930191,276.968048 183.121735,276.777893 180.038849,276.777893 
	C180.038849,273.736023 180.038849,271.152161 180.038849,268.164734 
	C183.357742,268.164734 186.749512,268.164734 190.876236,268.164734 
	C190.876236,269.809143 190.876236,271.562714 190.873962,273.766022 
z"/>
<path fill="#63B6D5" opacity="1.000000" stroke="none" 
	d="
M200.248291,276.792358 
	C193.807556,275.557037 198.990463,271.016937 195.955826,268.138733 
	C200.694260,268.138733 204.066360,268.138733 207.860748,268.138733 
	C207.860748,270.696625 207.860748,273.382355 207.860748,276.794159 
	C205.519348,276.794159 203.111603,276.794159 200.248291,276.792358 
z"/>
<path fill="#484946" opacity="1.000000" stroke="none" 
	d="
M267.999329,269.904022 
	C271.990967,269.907196 275.487701,269.836517 278.980042,269.930786 
	C284.490753,270.079590 287.980469,273.491669 288.123566,278.923401 
	C288.233093,283.081024 288.084137,287.245178 288.176086,291.403625 
	C288.228912,293.793091 287.582947,295.122742 284.846985,295.105438 
	C272.545288,295.027527 260.242798,295.071503 247.444901,295.071503 
	C247.444901,288.859894 246.818832,282.878693 247.643478,277.104645 
	C248.300385,272.505188 251.852539,269.725677 257.018829,269.889404 
	C260.510040,270.000061 264.007721,269.906403 267.999329,269.904022 
z"/>
<path fill="#050809" opacity="1.000000" stroke="none" 
	d="
M220.056549,158.000000 
	C220.055893,166.661255 220.069717,174.822556 220.050781,182.983765 
	C220.027924,192.839645 215.355438,197.654343 205.406326,197.815475 
	C197.247192,197.947632 189.084244,197.844437 180.922989,197.844467 
	C136.619003,197.844604 92.315018,197.844803 48.011032,197.843811 
	C42.499817,197.843689 37.182831,197.086716 34.214340,191.723953 
	C32.986973,189.506668 32.086578,186.772202 32.075928,184.268509 
	C31.936342,151.457520 31.963137,118.645699 31.996109,85.834145 
	C32.004581,77.403160 37.169861,72.087387 45.714256,72.076759 
	C99.178757,72.010254 152.643402,72.014984 206.107925,72.069756 
	C214.971725,72.078835 220.029297,77.268188 220.041580,86.047493 
	C220.074921,109.864952 220.055191,133.682495 220.056549,158.000000 
M50.970367,191.098572 
	C102.621101,191.119064 154.271835,191.153000 205.922562,191.142365 
	C212.113052,191.141083 213.837143,189.172150 213.841309,182.374832 
	C213.860474,151.050858 213.854691,119.726875 213.847412,88.402901 
	C213.845459,79.980995 212.464218,78.623894 203.905518,78.623009 
	C154.253693,78.617882 104.601860,78.617111 54.950031,78.634636 
	C53.295486,78.635216 51.641014,78.847191 49.114071,78.764618 
	C39.407398,78.608803 38.219971,79.771461 38.218643,89.507416 
	C38.214520,119.749260 38.215275,149.991104 38.218121,180.232941 
	C38.219063,190.205658 39.799309,191.626984 50.970367,191.098572 
z"/>
<path fill="#060303" opacity="1.000000" stroke="none" 
	d="
M300.237000,199.928680 
	C305.870270,199.928726 311.034027,200.027359 316.191895,199.895248 
	C319.507141,199.810333 321.171906,200.968445 321.044189,204.503479 
	C320.894012,208.660370 320.974091,212.827209 321.019165,216.989029 
	C321.055054,220.301926 319.467560,221.917313 316.173279,221.914474 
	C310.512543,221.909592 304.850159,221.832535 299.191711,221.946198 
	C296.013702,222.010010 294.442627,220.321762 294.311646,217.500351 
	C294.103577,213.018234 294.175568,208.513992 294.338898,204.026749 
	C294.462372,200.633881 296.584778,199.481842 300.237000,199.928680 
M314.912567,209.600433 
	C314.059265,208.395691 313.309418,206.260010 312.334259,206.151657 
	C308.636169,205.740738 304.865143,205.986221 301.198547,205.986221 
	C301.198547,209.411926 301.198547,212.139099 301.198547,215.031921 
	C305.790924,215.031921 310.034119,215.031921 314.624634,215.031921 
	C314.728577,213.408905 314.820862,211.968079 314.912567,209.600433 
z"/>
<path fill="#343432" opacity="1.000000" stroke="none" 
	d="
M308.993774,73.967148 
	C313.791901,73.967140 318.091644,73.967140 322.774597,73.967140 
	C322.774597,79.984390 322.774597,85.692360 322.774597,91.770340 
	C299.466736,91.770340 276.121887,91.770340 252.406174,91.770340 
	C252.406174,86.125710 252.406174,80.408409 252.406174,73.967155 
	C271.081757,73.967155 289.788574,73.967155 308.993774,73.967148 
z"/>
<path fill="#383836" opacity="1.000000" stroke="none" 
	d="
M295.000000,133.157639 
	C304.467255,133.157700 313.434540,133.157700 322.807007,133.157700 
	C322.807007,139.386063 322.807007,145.254593 322.807007,151.444763 
	C299.347107,151.444763 275.964661,151.444763 252.285355,151.444763 
	C252.285355,145.475311 252.285355,139.715286 252.285355,133.157578 
	C266.339905,133.157578 280.419952,133.157578 295.000000,133.157639 
z"/>
<path fill="#68C0E0" opacity="1.000000" stroke="none" 
	d="
M49.986507,78.960640 
	C51.641014,78.847191 53.295486,78.635216 54.950031,78.634636 
	C104.601860,78.617111 154.253693,78.617882 203.905518,78.623009 
	C212.464218,78.623894 213.845459,79.980995 213.847412,88.402901 
	C213.854691,119.726875 213.860474,151.050858 213.841309,182.374832 
	C213.837143,189.172150 212.113052,191.141083 205.922562,191.142365 
	C154.271835,191.153000 102.621101,191.119064 50.513992,190.545105 
	C50.033913,152.981308 50.010212,115.970970 49.986507,78.960640 
z"/>
<path fill="#317F9D" opacity="1.000000" stroke="none" 
	d="
M49.550289,78.862625 
	C50.010212,115.970970 50.033913,152.981308 50.056297,190.454712 
	C39.799309,191.626984 38.219063,190.205658 38.218121,180.232941 
	C38.215275,149.991104 38.214520,119.749260 38.218643,89.507416 
	C38.219971,79.771461 39.407398,78.608803 49.550289,78.862625 
z"/>
<path fill="#DE5E4E" opacity="1.000000" stroke="none" 
	d="
M314.912842,210.063843 
	C314.820862,211.968079 314.728577,213.408905 314.624634,215.031921 
	C310.034119,215.031921 305.790924,215.031921 301.198547,215.031921 
	C301.198547,212.139099 301.198547,209.411926 301.198547,205.986221 
	C304.865143,205.986221 308.636169,205.740738 312.334259,206.151657 
	C313.309418,206.260010 314.059265,208.395691 314.912842,210.063843 
z"/>
</svg>