<svg version="1.1" id="Layer_1" xmlns="http://www.w3.org/2000/svg" xmlns:xlink="http://www.w3.org/1999/xlink" x="0px" y="0px"
	 width="100%" viewBox="0 0 345 212" enable-background="new 0 0 345 212" xml:space="preserve">
<path fill="#F6F6F6" opacity="1.000000" stroke="none" 
	d="
M233.000000,213.000000 
	C155.333344,213.000000 78.166687,213.000000 1.000021,213.000000 
	C1.000014,142.333344 1.000014,71.666702 1.000007,1.000040 
	C115.999969,1.000026 230.999939,1.000026 345.999939,1.000013 
	C345.999939,71.666626 345.999939,142.333252 345.999969,212.999939 
	C308.500000,213.000000 271.000000,213.000000 233.000000,213.000000 
M291.981567,17.630415 
	C288.072937,17.653336 284.164307,17.676254 280.176971,16.919670 
	C279.958008,12.773552 276.937531,12.948695 274.040100,12.948397 
	C252.547897,12.946185 231.055710,12.946667 209.563507,12.946699 
	C148.585648,12.946791 87.607796,12.942815 26.629940,12.952567 
	C18.849941,12.953812 16.051794,15.717467 16.001595,23.372169 
	C15.973187,27.703743 15.995377,32.035656 15.996414,36.367416 
	C15.998780,46.247154 17.858372,48.302605 27.986406,49.217377 
	C27.986406,50.817032 27.986383,52.455406 27.986410,54.093777 
	C27.986692,70.920998 28.060169,87.748795 27.929396,104.574997 
	C27.901115,108.214127 28.827518,110.748146 32.617054,112.489616 
	C32.625111,116.236984 32.633171,119.984344 31.924858,123.919167 
	C30.613176,125.746765 28.181131,127.561562 28.160078,129.403915 
	C27.899231,152.230881 27.950274,175.061981 28.019606,197.891724 
	C28.035059,202.979874 30.234518,204.952438 35.504841,205.036697 
	C39.836433,205.105972 44.170078,205.069351 48.502666,205.048569 
	C55.330986,205.015823 57.073269,203.304489 57.079708,196.501846 
	C57.098640,176.504822 57.086761,156.507767 57.086952,136.510727 
	C57.086967,134.756622 57.086956,133.002518 57.086956,131.339874 
	C108.232361,131.339874 158.663040,131.339874 209.417999,131.339874 
	C209.417999,139.765457 209.375336,147.913025 209.429703,156.059952 
	C209.486755,164.609299 211.996567,167.116959 220.484879,167.124771 
	C243.481461,167.145966 266.478088,167.132172 289.474670,167.132248 
	C291.225708,167.132248 292.976776,167.132248 294.913177,167.132248 
	C294.913177,177.039017 294.908722,186.196075 294.914490,195.353134 
	C294.919800,203.825424 296.172729,205.045364 304.844360,205.052750 
	C308.010559,205.055435 311.176758,205.056808 314.342957,205.052353 
	C322.532043,205.040817 324.009644,203.601791 324.010590,195.541702 
	C324.016083,148.548660 324.013397,101.555626 324.013489,54.562588 
	C324.013519,52.758186 324.013489,50.953781 324.013489,49.186710 
	C334.091827,48.354115 336.001221,46.239395 336.003448,36.328098 
	C336.004486,31.662123 336.073334,26.994816 335.985077,22.330502 
	C335.867920,16.140024 332.849945,13.022306 326.821259,12.970101 
	C317.656647,12.890738 308.488586,13.066052 299.326660,12.889945 
	C295.688324,12.820010 293.669525,14.273772 291.981567,17.630415 
z"/>
<path fill="#040302" opacity="1.000000" stroke="none" 
	d="
M32.595177,111.655968 
	C28.827518,110.748146 27.901115,108.214127 27.929396,104.574997 
	C28.060169,87.748795 27.986692,70.920998 27.986410,54.093777 
	C27.986383,52.455406 27.986406,50.817032 27.986406,49.217377 
	C17.858372,48.302605 15.998780,46.247154 15.996414,36.367416 
	C15.995377,32.035656 15.973187,27.703743 16.001595,23.372169 
	C16.051794,15.717467 18.849941,12.953812 26.629940,12.952567 
	C87.607796,12.942815 148.585648,12.946791 209.563507,12.946699 
	C231.055710,12.946667 252.547897,12.946185 274.040100,12.948397 
	C276.937531,12.948695 279.958008,12.773552 280.218475,17.734779 
	C279.266663,23.117533 275.570221,22.042854 272.596039,22.044415 
	C192.289551,22.086538 111.983040,22.078110 31.676525,22.078194 
	C29.606680,22.078196 27.536835,22.078194 25.537365,22.078194 
	C25.537365,28.411480 25.537365,33.823952 25.537365,39.291618 
	C126.079872,39.291618 226.261002,39.291618 326.432983,39.291618 
	C326.432983,33.431202 326.432983,28.013523 326.432983,22.076042 
	C317.302155,22.076042 308.504242,21.965694 299.711487,22.130890 
	C296.242401,22.196066 293.899872,21.134880 292.889313,17.706482 
	C293.669525,14.273772 295.688324,12.820010 299.326660,12.889945 
	C308.488586,13.066052 317.656647,12.890738 326.821259,12.970101 
	C332.849945,13.022306 335.867920,16.140024 335.985077,22.330502 
	C336.073334,26.994816 336.004486,31.662123 336.003448,36.328098 
	C336.001221,46.239395 334.091827,48.354115 324.013489,49.186710 
	C324.013489,50.953781 324.013519,52.758186 324.013489,54.562588 
	C324.013397,101.555626 324.016083,148.548660 324.010590,195.541702 
	C324.009644,203.601791 322.532043,205.040817 314.342957,205.052353 
	C311.176758,205.056808 308.010559,205.055435 304.844360,205.052750 
	C296.172729,205.045364 294.919800,203.825424 294.914490,195.353134 
	C294.908722,186.196075 294.913177,177.039017 294.913177,167.132248 
	C292.976776,167.132248 291.225708,167.132248 289.474670,167.132248 
	C266.478088,167.132172 243.481461,167.145966 220.484879,167.124771 
	C211.996567,167.116959 209.486755,164.609299 209.429703,156.059952 
	C209.375336,147.913025 209.417999,139.765457 209.417999,131.339874 
	C158.663040,131.339874 108.232361,131.339874 57.086956,131.339874 
	C57.086956,133.002518 57.086967,134.756622 57.086952,136.510727 
	C57.086761,156.507767 57.098640,176.504822 57.079708,196.501846 
	C57.073269,203.304489 55.330986,205.015823 48.502666,205.048569 
	C44.170078,205.069351 39.836433,205.105972 35.504841,205.036697 
	C30.234518,204.952438 28.035059,202.979874 28.019606,197.891724 
	C27.950274,175.061981 27.899231,152.230881 28.160078,129.403915 
	C28.181131,127.561562 30.613176,125.746765 32.674133,123.954788 
	C37.000267,124.945480 37.105175,127.717346 37.098980,130.706131 
	C37.057880,150.533524 37.078178,170.361069 37.078491,190.188553 
	C37.078522,191.957809 37.078495,193.727051 37.078495,195.631058 
	C40.989830,195.631058 44.234413,195.631058 47.983917,195.631058 
	C47.983917,186.567413 47.995159,177.779831 47.981949,168.992279 
	C47.928360,133.339691 47.867260,97.687103 47.878258,61.571117 
	C47.947582,57.204399 47.947582,53.301075 47.947582,49.345505 
	C44.035046,49.345505 40.707451,49.345505 37.263161,49.345505 
	C37.263161,53.852127 37.263161,57.949104 37.189888,62.506344 
	C37.103359,76.957375 37.003658,90.948967 37.137180,104.938339 
	C37.170879,108.469193 35.970039,110.671944 32.595177,111.655968 
M304.057373,62.960159 
	C304.057373,107.163284 304.057373,151.366409 304.057373,195.585449 
	C308.002014,195.585449 311.243134,195.585449 314.917023,195.585449 
	C314.917023,193.469299 314.917053,191.673706 314.917053,189.878098 
	C314.917053,170.735077 314.940521,151.592026 314.911041,132.449051 
	C314.874878,108.982010 314.794403,85.515053 314.879761,61.121120 
	C314.879761,57.217091 314.879761,53.313061 314.879761,49.339386 
	C310.977478,49.339386 307.647827,49.339386 304.194702,49.339386 
	C304.194702,53.841053 304.194702,57.938892 304.057373,62.960159 
M219.001801,78.555244 
	C219.328262,78.636627 219.654724,78.718018 220.910797,78.944611 
	C241.266602,78.892448 261.622406,78.840294 282.899658,78.944519 
	C286.809387,78.944519 290.719116,78.944519 294.615540,78.944519 
	C294.615540,68.620331 294.615540,58.932732 294.615540,49.115990 
	C290.207428,49.115990 286.096649,49.115990 281.063049,48.951214 
	C260.378082,48.951214 239.693115,48.951214 219.067032,48.951214 
	C219.067032,59.106068 219.067032,68.558846 219.001801,78.555244 
M219.033142,157.546341 
	C219.348953,157.625885 219.664764,157.705429 220.908676,157.940887 
	C241.264816,157.883179 261.620941,157.825470 282.895874,157.940994 
	C286.803131,157.940994 290.710388,157.940994 294.617340,157.940994 
	C294.617340,147.612366 294.617340,137.929825 294.617340,128.119736 
	C290.205688,128.119736 286.095428,128.119736 281.061890,127.958717 
	C260.376160,127.958717 239.690430,127.958717 219.085373,127.958717 
	C219.085373,138.109451 219.085373,147.560287 219.033142,157.546341 
M281.014282,88.247086 
	C260.451660,88.247086 239.889038,88.247086 219.082214,88.247086 
	C219.082214,98.425011 219.082214,108.132912 219.082214,118.026230 
	C240.222000,118.026230 261.109161,118.026230 282.903473,118.268738 
	C286.810516,118.268738 290.717560,118.268738 294.595032,118.268738 
	C294.595032,107.913521 294.595032,98.225586 294.595032,88.443367 
	C290.143646,88.443367 286.032928,88.443367 281.014282,88.247086 
M57.086182,65.502090 
	C57.086182,84.081329 57.086182,102.660568 57.086182,121.292427 
	C108.195145,121.292427 158.571564,121.292427 208.985992,121.292427 
	C208.985992,97.027496 208.985992,73.149170 208.985992,49.261093 
	C158.215103,49.261093 107.828613,49.261093 57.086205,49.261093 
	C57.086205,54.561783 57.086205,59.532776 57.086182,65.502090 
z"/>
<path fill="#9C5428" opacity="1.000000" stroke="none" 
	d="
M292.435425,17.668449 
	C293.899872,21.134880 296.242401,22.196066 299.711487,22.130890 
	C308.504242,21.965694 317.302155,22.076042 326.432983,22.076042 
	C326.432983,28.013523 326.432983,33.431202 326.432983,39.291618 
	C226.261002,39.291618 126.079872,39.291618 25.537365,39.291618 
	C25.537365,33.823952 25.537365,28.411480 25.537365,22.078194 
	C27.536835,22.078194 29.606680,22.078196 31.676525,22.078194 
	C111.983040,22.078110 192.289551,22.086538 272.596039,22.044415 
	C275.570221,22.042854 279.266663,23.117533 280.257812,18.124531 
	C284.164307,17.676254 288.072937,17.653336 292.435425,17.668449 
z"/>
<path fill="#C56B35" opacity="1.000000" stroke="none" 
	d="
M32.606117,112.072792 
	C35.970039,110.671944 37.170879,108.469193 37.137180,104.938339 
	C37.003658,90.948967 37.103359,76.957375 37.626167,62.494316 
	C41.360123,62.026188 44.584530,62.030350 47.808933,62.034512 
	C47.867260,97.687103 47.928360,133.339691 47.981949,168.992279 
	C47.995159,177.779831 47.983917,186.567413 47.983917,195.631058 
	C44.234413,195.631058 40.989830,195.631058 37.078495,195.631058 
	C37.078495,193.727051 37.078522,191.957809 37.078491,190.188553 
	C37.078178,170.361069 37.057880,150.533524 37.098980,130.706131 
	C37.105175,127.717346 37.000267,124.945480 33.032318,123.861053 
	C32.633171,119.984344 32.625111,116.236984 32.606117,112.072792 
z"/>
<path fill="#DA8657" opacity="1.000000" stroke="none" 
	d="
M57.086193,65.002930 
	C57.086205,59.532776 57.086205,54.561783 57.086205,49.261093 
	C107.828613,49.261093 158.215103,49.261093 208.985992,49.261093 
	C208.985992,73.149170 208.985992,97.027496 208.985992,121.292427 
	C158.571564,121.292427 108.195145,121.292427 57.086182,121.292427 
	C57.086182,102.660568 57.086182,84.081329 57.086193,65.002930 
z"/>
<path fill="#F1D4C5" opacity="1.000000" stroke="none" 
	d="
M281.996338,118.026230 
	C261.109161,118.026230 240.222000,118.026230 219.082214,118.026230 
	C219.082214,108.132912 219.082214,98.425011 219.082214,88.247086 
	C239.889038,88.247086 260.451660,88.247086 281.479156,88.785042 
	C281.961487,98.890739 281.978912,108.458488 281.996338,118.026230 
M242.411285,105.900887 
	C243.834946,106.617966 245.239456,107.905891 246.685547,107.954399 
	C253.340302,108.177696 260.006744,108.073845 266.668854,108.048569 
	C269.847687,108.036514 271.866028,106.383751 271.792358,103.220444 
	C271.716553,99.964111 269.432281,98.740364 266.336273,98.755447 
	C260.007294,98.786278 253.677994,98.757347 247.348816,98.764282 
	C243.047928,98.768990 241.263962,100.887253 242.411285,105.900887 
z"/>
<path fill="#E9B9A1" opacity="1.000000" stroke="none" 
	d="
M281.977051,157.767761 
	C261.620941,157.825470 241.264816,157.883179 220.341705,157.686310 
	C219.589722,157.218170 219.359940,157.077972 219.085373,157.011139 
	C219.085373,147.560287 219.085373,138.109451 219.085373,127.958717 
	C239.690430,127.958717 260.376160,127.958717 281.528473,128.500061 
	C281.989075,138.616852 281.983063,148.192291 281.977051,157.767761 
M242.233826,146.914169 
	C243.917374,147.778519 245.569321,149.306366 247.290146,149.388367 
	C253.565079,149.687424 259.863434,149.545837 266.152100,149.484268 
	C269.317932,149.453278 271.911743,148.208313 271.790466,144.656067 
	C271.673767,141.239105 269.239594,139.970566 265.975067,139.995178 
	C259.851501,140.041351 253.727325,140.013535 247.603409,140.006271 
	C243.489258,140.001389 241.377930,141.820663 242.233826,146.914169 
z"/>
<path fill="#EBBAA2" opacity="1.000000" stroke="none" 
	d="
M281.978210,78.788132 
	C261.622406,78.840294 241.266602,78.892448 220.338104,78.694260 
	C219.578766,78.225281 219.345978,78.081184 219.067032,78.011627 
	C219.067032,68.558846 219.067032,59.106068 219.067032,48.951214 
	C239.693115,48.951214 260.378082,48.951214 281.528076,49.494678 
	C281.988129,59.621471 281.983185,69.204803 281.978210,78.788132 
M254.567902,68.719795 
	C258.871246,68.674385 263.241272,69.047386 267.445007,68.377220 
	C269.122131,68.109848 271.569427,65.555397 271.592194,64.011490 
	C271.615417,62.436810 269.175323,59.544949 267.668274,59.446091 
	C260.416412,58.970367 253.098221,58.985954 245.846375,59.469280 
	C244.398636,59.565773 242.256363,62.371483 242.075745,64.099518 
	C241.937042,65.426537 244.128769,67.804985 245.731247,68.317314 
	C248.151047,69.090950 250.960297,68.646484 254.567902,68.719795 
z"/>
<path fill="#C76C36" opacity="1.000000" stroke="none" 
	d="
M314.733093,62.048061 
	C314.794403,85.515053 314.874878,108.982010 314.911041,132.449051 
	C314.940521,151.592026 314.917053,170.735077 314.917053,189.878098 
	C314.917053,191.673706 314.917023,193.469299 314.917023,195.585449 
	C311.243134,195.585449 308.002014,195.585449 304.057373,195.585449 
	C304.057373,151.366409 304.057373,107.163284 304.565826,62.487656 
	C308.293884,62.026123 311.513489,62.037094 314.733093,62.048061 
z"/>
<path fill="#DEB29C" opacity="1.000000" stroke="none" 
	d="
M282.449890,118.147484 
	C281.978912,108.458488 281.961487,98.890739 281.933105,88.883179 
	C286.032928,88.443367 290.143646,88.443367 294.595032,88.443367 
	C294.595032,98.225586 294.595032,107.913521 294.595032,118.268738 
	C290.717560,118.268738 286.810516,118.268738 282.449890,118.147484 
z"/>
<path fill="#E4AB8C" opacity="1.000000" stroke="none" 
	d="
M282.438934,78.866325 
	C281.983185,69.204803 281.988129,59.621471 281.989441,49.577065 
	C286.096649,49.115990 290.207428,49.115990 294.615540,49.115990 
	C294.615540,58.932732 294.615540,68.620331 294.615540,78.944519 
	C290.719116,78.944519 286.809387,78.944519 282.438934,78.866325 
z"/>
<path fill="#E2AA8B" opacity="1.000000" stroke="none" 
	d="
M282.436462,157.854370 
	C281.983063,148.192291 281.989075,138.616852 281.990112,128.580566 
	C286.095428,128.119736 290.205688,128.119736 294.617340,128.119736 
	C294.617340,137.929825 294.617340,147.612366 294.617340,157.940994 
	C290.710388,157.940994 286.803131,157.940994 282.436462,157.854370 
z"/>
<path fill="#AA5D2E" opacity="1.000000" stroke="none" 
	d="
M314.806427,61.584591 
	C311.513489,62.037094 308.293884,62.026123 304.634491,62.025948 
	C304.194702,57.938892 304.194702,53.841053 304.194702,49.339386 
	C307.647827,49.339386 310.977478,49.339386 314.879761,49.339386 
	C314.879761,53.313061 314.879761,57.217091 314.806427,61.584591 
z"/>
<path fill="#AA5D2D" opacity="1.000000" stroke="none" 
	d="
M47.878258,61.571117 
	C44.584530,62.030350 41.360123,62.026188 37.699440,62.034054 
	C37.263161,57.949104 37.263161,53.852127 37.263161,49.345505 
	C40.707451,49.345505 44.035046,49.345505 47.947582,49.345505 
	C47.947582,53.301075 47.947582,57.204399 47.878258,61.571117 
z"/>
<path fill="#E4AB8C" opacity="1.000000" stroke="none" 
	d="
M219.034424,78.283432 
	C219.345978,78.081184 219.578766,78.225281 219.873306,78.621658 
	C219.654724,78.718018 219.328262,78.636627 219.034424,78.283432 
z"/>
<path fill="#E2AA8B" opacity="1.000000" stroke="none" 
	d="
M219.059265,157.278748 
	C219.359940,157.077972 219.589722,157.218170 219.877655,157.608368 
	C219.664764,157.705429 219.348953,157.625885 219.059265,157.278748 
z"/>
<path fill="#050504" opacity="1.000000" stroke="none" 
	d="
M242.229218,105.517075 
	C241.263962,100.887253 243.047928,98.768990 247.348816,98.764282 
	C253.677994,98.757347 260.007294,98.786278 266.336273,98.755447 
	C269.432281,98.740364 271.716553,99.964111 271.792358,103.220444 
	C271.866028,106.383751 269.847687,108.036514 266.668854,108.048569 
	C260.006744,108.073845 253.340302,108.177696 246.685547,107.954399 
	C245.239456,107.905891 243.834946,106.617966 242.229218,105.517075 
z"/>
<path fill="#060504" opacity="1.000000" stroke="none" 
	d="
M242.102020,146.524078 
	C241.377930,141.820663 243.489258,140.001389 247.603409,140.006271 
	C253.727325,140.013535 259.851501,140.041351 265.975067,139.995178 
	C269.239594,139.970566 271.673767,141.239105 271.790466,144.656067 
	C271.911743,148.208313 269.317932,149.453278 266.152100,149.484268 
	C259.863434,149.545837 253.565079,149.687424 247.290146,149.388367 
	C245.569321,149.306366 243.917374,147.778519 242.102020,146.524078 
z"/>
<path fill="#110E0C" opacity="1.000000" stroke="none" 
	d="
M254.085968,68.719749 
	C250.960297,68.646484 248.151047,69.090950 245.731247,68.317314 
	C244.128769,67.804985 241.937042,65.426537 242.075745,64.099518 
	C242.256363,62.371483 244.398636,59.565773 245.846375,59.469280 
	C253.098221,58.985954 260.416412,58.970367 267.668274,59.446091 
	C269.175323,59.544949 271.615417,62.436810 271.592194,64.011490 
	C271.569427,65.555397 269.122131,68.109848 267.445007,68.377220 
	C263.241272,69.047386 258.871246,68.674385 254.085968,68.719749 
z"/>
</svg>