<svg version="1.1" id="Layer_1" xmlns="http://www.w3.org/2000/svg" xmlns:xlink="http://www.w3.org/1999/xlink" x="0px" y="0px"
	 width="100%" viewBox="0 0 345 350" enable-background="new 0 0 345 350" xml:space="preserve">
<path fill="#F7F7F7" opacity="1.000000" stroke="none" 
	d="
M224.000000,351.000000 
	C149.333344,351.000000 75.166695,351.000000 1.000030,351.000000 
	C1.000020,234.333374 1.000020,117.666733 1.000010,1.000077 
	C115.999947,1.000051 230.999893,1.000051 345.999878,1.000026 
	C345.999939,117.666595 345.999939,234.333191 345.999969,350.999878 
	C305.500000,351.000000 265.000000,351.000000 224.000000,351.000000 
M38.105591,223.794159 
	C44.865158,232.446869 51.631611,241.094208 58.382847,249.753418 
	C72.185921,267.457367 85.980835,285.167694 98.872116,302.949371 
	C90.207199,302.978882 81.536629,302.819336 72.878578,303.078339 
	C56.302368,303.574310 42.321022,316.631958 40.997364,332.580261 
	C40.305134,340.920715 42.231667,342.997498 50.726322,342.998199 
	C101.885338,343.002594 153.044357,343.003143 204.203369,342.997589 
	C212.404648,342.996704 214.978012,339.959381 213.692383,331.863922 
	C210.968430,314.711670 197.595291,303.131744 180.075958,303.026489 
	C159.080078,302.900330 138.083069,302.961792 116.745399,302.361084 
	C103.326111,285.268127 89.943932,268.145844 76.474525,251.092468 
	C67.436340,239.649384 58.274506,228.303986 49.375282,216.165375 
	C55.066593,208.583145 54.945232,200.494308 52.190414,192.103058 
	C78.610237,181.340469 105.022148,170.558380 131.452713,159.822266 
	C148.652939,152.835541 165.880325,145.915695 183.118835,139.860489 
	C180.572266,159.826172 185.500519,177.439194 199.579361,192.174438 
	C204.880569,197.722809 207.681427,197.728439 213.259521,192.212387 
	C222.837311,182.741135 232.421341,173.276169 242.640656,164.139694 
	C257.045685,172.423340 273.758698,170.260406 284.573578,158.712891 
	C295.084045,147.490433 296.485199,130.914948 288.322510,117.263634 
	C298.069397,107.478821 307.839905,97.717407 317.551483,87.897690 
	C321.437164,83.968735 321.781219,80.522346 318.404083,77.014977 
	C309.141296,67.395020 298.046204,60.653610 284.715973,59.119549 
	C276.245300,58.144733 267.559021,59.043133 258.784210,58.448055 
	C251.977112,51.604862 245.253311,44.676319 238.346817,37.934948 
	C219.765701,19.798069 189.636810,17.744160 168.654922,33.088066 
	C147.949951,48.229462 140.600616,77.694778 153.072281,100.529419 
	C157.663773,108.936096 165.284958,115.682472 171.475388,123.226242 
	C172.680206,124.694443 173.658844,126.348244 174.018417,127.966545 
	C162.489197,132.662933 150.950043,137.335098 139.432648,142.060333 
	C105.951225,155.796677 72.478516,169.554276 38.097832,183.253448 
	C36.768456,183.174789 35.439068,183.028091 34.109707,183.028336 
	C24.502758,183.030106 16.467253,189.545151 14.414718,198.962738 
	C12.452163,207.967468 17.036509,217.467667 25.819897,221.018860 
	C29.540398,222.523102 33.886375,222.480316 38.105591,223.794159 
M320.169708,191.734665 
	C319.539307,189.316406 319.594482,186.324249 318.144501,184.592072 
	C314.427368,180.151581 310.093658,176.216660 305.905365,172.184616 
	C302.843628,169.237106 299.392120,168.839554 296.113556,171.729462 
	C293.105011,174.381348 293.370056,178.335464 296.717438,181.834030 
	C300.623230,185.916229 304.600494,189.938919 308.707214,193.817520 
	C312.675446,197.565353 316.352783,197.030930 320.169708,191.734665 
M257.654358,208.881683 
	C263.739136,210.425797 266.986389,208.264252 267.280487,202.124893 
	C267.485809,197.838333 267.396698,193.520645 267.144379,189.234222 
	C266.916382,185.361176 264.556458,183.074127 260.699890,183.097748 
	C256.613770,183.122772 254.248489,185.590729 254.061996,189.644745 
	C253.856934,194.101990 253.728210,198.603760 254.153290,203.029770 
	C254.335358,204.925323 256.001129,206.678375 257.654358,208.881683 
M319.540771,129.771820 
	C317.548309,129.799103 315.552063,129.758331 313.564148,129.867905 
	C309.502380,130.091766 307.454590,132.681137 307.418030,136.361969 
	C307.383453,139.837601 309.492554,142.559860 313.113647,142.824890 
	C318.068695,143.187561 323.091766,143.218048 328.043274,142.838272 
	C331.825836,142.548172 334.045105,139.936295 333.911072,136.057785 
	C333.785645,132.429398 331.641541,130.217972 327.970276,129.897934 
	C325.495728,129.682220 322.991913,129.801956 319.540771,129.771820 
z"/>
<path fill="#465B64" opacity="1.000000" stroke="none" 
	d="
M258.969452,59.101517 
	C267.559021,59.043133 276.245300,58.144733 284.715973,59.119549 
	C298.046204,60.653610 309.141296,67.395020 318.404083,77.014977 
	C321.781219,80.522346 321.437164,83.968735 317.551483,87.897690 
	C307.839905,97.717407 298.069397,107.478821 287.863495,117.698105 
	C272.270569,133.357895 257.136658,148.583221 242.002747,163.808563 
	C232.421341,173.276169 222.837311,182.741135 213.259521,192.212387 
	C207.681427,197.728439 204.880569,197.722809 199.579361,192.174438 
	C185.500519,177.439194 180.572266,159.826172 183.371552,139.184143 
	C183.740448,137.343521 183.856644,136.179230 184.127441,134.682922 
	C188.143784,122.436981 194.512482,112.228226 203.753479,103.602966 
	C213.350220,94.645630 222.118652,84.794991 231.797852,75.934212 
	C237.112442,71.068993 243.442627,67.260162 249.544037,63.330814 
	C252.406525,61.487339 255.810745,60.485031 258.969452,59.101517 
z"/>
<path fill="#556F7B" opacity="1.000000" stroke="none" 
	d="
M258.876831,58.774788 
	C255.810745,60.485031 252.406525,61.487339 249.544037,63.330814 
	C243.442627,67.260162 237.112442,71.068993 231.797852,75.934212 
	C222.118652,84.794991 213.350220,94.645630 203.753479,103.602966 
	C194.512482,112.228226 188.143784,122.436981 183.833115,134.530579 
	C180.503387,132.445648 177.622604,130.181046 174.741821,127.916428 
	C173.658844,126.348244 172.680206,124.694443 171.475388,123.226242 
	C165.284958,115.682472 157.663773,108.936096 153.072281,100.529419 
	C140.600616,77.694778 147.949951,48.229462 168.654922,33.088066 
	C189.636810,17.744160 219.765701,19.798069 238.346817,37.934948 
	C245.253311,44.676319 251.977112,51.604862 258.876831,58.774788 
z"/>
<path fill="#465A64" opacity="1.000000" stroke="none" 
	d="
M117.086548,302.942017 
	C138.083069,302.961792 159.080078,302.900330 180.075958,303.026489 
	C197.595291,303.131744 210.968430,314.711670 213.692383,331.863922 
	C214.978012,339.959381 212.404648,342.996704 204.203369,342.997589 
	C153.044357,343.003143 101.885338,343.002594 50.726322,342.998199 
	C42.231667,342.997498 40.305134,340.920715 40.997364,332.580261 
	C42.321022,316.631958 56.302368,303.574310 72.878578,303.078339 
	C81.536629,302.819336 90.207199,302.978882 99.806961,302.951843 
	C106.190056,302.950195 111.638306,302.946106 117.086548,302.942017 
z"/>
<path fill="#63808D" opacity="1.000000" stroke="none" 
	d="
M174.380127,127.941483 
	C177.622604,130.181046 180.503387,132.445648 183.678497,134.862610 
	C183.856644,136.179230 183.740448,137.343521 183.359894,138.736847 
	C165.880325,145.915695 148.652939,152.835541 131.452713,159.822266 
	C105.022148,170.558380 78.610237,181.340469 51.497986,191.959076 
	C46.871166,188.977905 42.936779,186.140717 39.002388,183.303528 
	C72.478516,169.554276 105.951225,155.796677 139.432648,142.060333 
	C150.950043,137.335098 162.489197,132.662933 174.380127,127.941483 
z"/>
<path fill="#63808D" opacity="1.000000" stroke="none" 
	d="
M116.915970,302.651550 
	C111.638306,302.946106 106.190056,302.950195 100.260460,302.914856 
	C85.980835,285.167694 72.185921,267.457367 58.382847,249.753418 
	C51.631611,241.094208 44.865158,232.446869 38.251232,223.182007 
	C41.987247,220.684875 45.577621,218.799866 49.167992,216.914871 
	C58.274506,228.303986 67.436340,239.649384 76.474525,251.092468 
	C89.943932,268.145844 103.326111,285.268127 116.915970,302.651550 
z"/>
<path fill="#FEC10A" opacity="1.000000" stroke="none" 
	d="
M242.321686,163.974121 
	C257.136658,148.583221 272.270569,133.357895 287.716431,117.988037 
	C296.485199,130.914948 295.084045,147.490433 284.573578,158.712891 
	C273.758698,170.260406 257.045685,172.423340 242.321686,163.974121 
z"/>
<path fill="#475C66" opacity="1.000000" stroke="none" 
	d="
M49.271637,216.540131 
	C45.577621,218.799866 41.987247,220.684875 38.172470,222.855255 
	C33.886375,222.480316 29.540398,222.523102 25.819897,221.018860 
	C17.036509,217.467667 12.452163,207.967468 14.414718,198.962738 
	C16.467253,189.545151 24.502758,183.030106 34.109707,183.028336 
	C35.439068,183.028091 36.768456,183.174789 38.550110,183.278488 
	C42.936779,186.140717 46.871166,188.977905 51.138573,191.964188 
	C54.945232,200.494308 55.066593,208.583145 49.271637,216.540131 
z"/>
<path fill="#FFC30F" opacity="1.000000" stroke="none" 
	d="
M320.066345,192.098312 
	C316.352783,197.030930 312.675446,197.565353 308.707214,193.817520 
	C304.600494,189.938919 300.623230,185.916229 296.717438,181.834030 
	C293.370056,178.335464 293.105011,174.381348 296.113556,171.729462 
	C299.392120,168.839554 302.843628,169.237106 305.905365,172.184616 
	C310.093658,176.216660 314.427368,180.151581 318.144501,184.592072 
	C319.594482,186.324249 319.539307,189.316406 320.066345,192.098312 
z"/>
<path fill="#FFC20D" opacity="1.000000" stroke="none" 
	d="
M257.323547,208.688934 
	C256.001129,206.678375 254.335358,204.925323 254.153290,203.029770 
	C253.728210,198.603760 253.856934,194.101990 254.061996,189.644745 
	C254.248489,185.590729 256.613770,183.122772 260.699890,183.097748 
	C264.556458,183.074127 266.916382,185.361176 267.144379,189.234222 
	C267.396698,193.520645 267.485809,197.838333 267.280487,202.124893 
	C266.986389,208.264252 263.739136,210.425797 257.323547,208.688934 
z"/>
<path fill="#FFC20D" opacity="1.000000" stroke="none" 
	d="
M320.020996,129.771729 
	C322.991913,129.801956 325.495728,129.682220 327.970276,129.897934 
	C331.641541,130.217972 333.785645,132.429398 333.911072,136.057785 
	C334.045105,139.936295 331.825836,142.548172 328.043274,142.838272 
	C323.091766,143.218048 318.068695,143.187561 313.113647,142.824890 
	C309.492554,142.559860 307.383453,139.837601 307.418030,136.361969 
	C307.454590,132.681137 309.502380,130.091766 313.564148,129.867905 
	C315.552063,129.758331 317.548309,129.799103 320.020996,129.771729 
z"/>
</svg>