<svg version="1.1" id="Layer_1" xmlns="http://www.w3.org/2000/svg" xmlns:xlink="http://www.w3.org/1999/xlink" x="0px" y="0px"
	 width="100%" viewBox="0 0 336 270" enable-background="new 0 0 336 270" xml:space="preserve">
<path fill="#F5F5F5" opacity="1.000000" stroke="none" 
	d="
M206.000000,271.000000 
	C137.333328,271.000000 69.166664,271.000000 1.000000,271.000000 
	C1.000000,181.000000 1.000000,91.000000 1.000000,1.000000 
	C113.000000,1.000000 225.000000,1.000000 337.000000,1.000000 
	C337.000000,91.000000 337.000000,181.000000 337.000000,271.000000 
	C293.500000,271.000000 250.000000,271.000000 206.000000,271.000000 
M233.581207,36.027088 
	C229.745743,36.042622 225.910263,36.058151 221.836060,35.378807 
	C220.661713,31.385868 217.463837,31.463234 214.191925,31.464661 
	C163.705368,31.486673 113.218819,31.470085 62.732273,31.488672 
	C53.176136,31.492191 49.282028,35.507408 49.274639,45.270985 
	C49.257988,67.265114 49.287052,89.259315 49.235016,111.253326 
	C49.230831,113.021820 49.058117,114.909904 48.428680,116.535210 
	C46.234066,122.202095 43.507206,127.678833 41.589180,133.430130 
	C40.631165,136.302780 39.530735,138.232498 36.743111,139.719711 
	C28.602737,144.062592 22.913660,150.732651 20.782005,159.789688 
	C19.542419,165.056488 19.315565,170.561646 18.624922,176.023560 
	C9.017300,178.258514 6.992033,180.870499 6.989603,191.220993 
	C6.988116,197.552643 6.984616,203.884293 6.990483,210.215942 
	C6.998693,219.077087 9.103957,221.872025 17.976513,224.532181 
	C17.976513,234.427734 17.925900,244.411591 17.993282,254.394653 
	C18.042969,261.755829 22.413368,266.110352 29.783024,266.259186 
	C33.280693,266.329834 36.780918,266.275513 40.279984,266.275543 
	C53.192059,266.275665 55.496239,264.107117 56.366554,251.181015 
	C56.385094,250.905609 56.710571,250.650894 56.849144,250.449921 
	C130.439499,250.449921 203.978088,250.449921 277.629059,250.449921 
	C277.687164,251.632904 277.747589,252.450790 277.764435,253.269562 
	C277.955200,262.551941 281.633850,266.229980 290.811218,266.271973 
	C295.143280,266.291809 299.476135,266.319824 303.807587,266.262238 
	C311.795654,266.156067 315.983795,261.890442 316.015594,253.796936 
	C316.054138,243.981979 316.024719,234.166763 316.024719,224.443344 
	C324.828217,221.993393 327.001556,219.095764 327.009552,210.111740 
	C327.015045,203.946716 327.011230,197.781693 327.010529,191.616669 
	C327.009277,180.831726 325.188202,178.430405 314.989227,175.893234 
	C314.915649,175.286697 314.741364,174.631439 314.771729,173.985809 
	C315.512024,158.243668 309.743927,146.143723 295.362335,138.650848 
	C294.175232,138.032379 293.483276,136.125748 292.936829,134.676071 
	C290.956055,129.421158 289.097656,124.118896 287.270081,118.807991 
	C286.339142,116.102722 284.867126,113.347374 284.842468,110.603844 
	C284.643219,88.444862 284.766357,66.283226 284.710846,44.122597 
	C284.689911,35.760883 280.466339,31.556326 272.114075,31.497902 
	C261.784027,31.425646 251.452423,31.544754 241.122803,31.445772 
	C237.694016,31.412914 235.278824,32.454460 233.581207,36.027088 
z"/>
<path fill="#070707" opacity="1.000000" stroke="none" 
	d="
M234.430557,36.007072 
	C235.278824,32.454460 237.694016,31.412914 241.122803,31.445772 
	C251.452423,31.544754 261.784027,31.425646 272.114075,31.497902 
	C280.466339,31.556326 284.689911,35.760883 284.710846,44.122597 
	C284.766357,66.283226 284.643219,88.444862 284.842468,110.603844 
	C284.867126,113.347374 286.339142,116.102722 287.270081,118.807991 
	C289.097656,124.118896 290.956055,129.421158 292.936829,134.676071 
	C293.483276,136.125748 294.175232,138.032379 295.362335,138.650848 
	C309.743927,146.143723 315.512024,158.243668 314.771729,173.985809 
	C314.741364,174.631439 314.915649,175.286697 314.989227,175.893234 
	C325.188202,178.430405 327.009277,180.831726 327.010529,191.616669 
	C327.011230,197.781693 327.015045,203.946716 327.009552,210.111740 
	C327.001556,219.095764 324.828217,221.993393 316.024719,224.443344 
	C316.024719,234.166763 316.054138,243.981979 316.015594,253.796936 
	C315.983795,261.890442 311.795654,266.156067 303.807587,266.262238 
	C299.476135,266.319824 295.143280,266.291809 290.811218,266.271973 
	C281.633850,266.229980 277.955200,262.551941 277.764435,253.269562 
	C277.747589,252.450790 277.687164,251.632904 277.629059,250.449921 
	C203.978088,250.449921 130.439499,250.449921 56.849144,250.449921 
	C56.710571,250.650894 56.385094,250.905609 56.366554,251.181015 
	C55.496239,264.107117 53.192059,266.275665 40.279984,266.275543 
	C36.780918,266.275513 33.280693,266.329834 29.783024,266.259186 
	C22.413368,266.110352 18.042969,261.755829 17.993282,254.394653 
	C17.925900,244.411591 17.976513,234.427734 17.976513,224.532181 
	C9.103957,221.872025 6.998693,219.077087 6.990483,210.215942 
	C6.984616,203.884293 6.988116,197.552643 6.989603,191.220993 
	C6.992033,180.870499 9.017300,178.258514 18.624922,176.023560 
	C19.315565,170.561646 19.542419,165.056488 20.782005,159.789688 
	C22.913660,150.732651 28.602737,144.062592 36.743111,139.719711 
	C39.530735,138.232498 40.631165,136.302780 41.589180,133.430130 
	C43.507206,127.678833 46.234066,122.202095 48.428680,116.535210 
	C49.058117,114.909904 49.230831,113.021820 49.235016,111.253326 
	C49.287052,89.259315 49.257988,67.265114 49.274639,45.270985 
	C49.282028,35.507408 53.176136,31.492191 62.732273,31.488672 
	C113.218819,31.470085 163.705368,31.486673 214.191925,31.464661 
	C217.463837,31.463234 220.661713,31.385868 221.841324,36.073608 
	C220.760483,41.064499 217.406952,41.021603 213.948410,41.019920 
	C164.312851,40.995731 114.677269,41.003452 65.041695,41.003506 
	C63.116272,41.003506 61.190853,41.003506 59.086639,41.003506 
	C59.086639,64.333817 59.086639,86.922745 59.086639,109.494667 
	C63.770363,109.268585 68.185730,109.055450 72.925919,108.826645 
	C72.925919,100.512077 72.910583,92.548111 72.929947,84.584229 
	C72.952209,75.435280 77.106224,71.303001 86.401970,71.287575 
	C105.056900,71.256622 123.711945,71.263359 142.366852,71.302910 
	C144.181808,71.306755 146.066315,71.396965 147.797058,71.881241 
	C152.438477,73.179955 155.429977,77.455498 155.844086,82.791679 
	C156.144424,86.661713 155.213989,89.727608 150.730835,90.782860 
	C148.456024,87.862190 146.505325,85.095757 144.554626,82.329323 
	C144.927322,81.912445 145.300003,81.495575 145.672699,81.078705 
	C143.105835,81.078705 140.538986,81.078705 137.515045,80.976227 
	C120.424210,80.862000 103.790443,80.840126 87.156700,80.850487 
	C84.920448,80.851875 82.239243,80.197823 82.257027,83.959343 
	C82.302643,93.606804 82.166855,103.257393 82.419235,112.898468 
	C82.447952,113.995644 84.479874,115.963257 85.593903,115.971092 
	C103.051247,116.094048 120.510376,115.961090 138.413864,115.986816 
	C141.121704,116.086586 143.384766,116.086586 145.603699,116.086586 
	C147.081696,111.128693 143.914703,104.829521 151.361084,103.206352 
	C153.460815,105.111382 155.250778,106.851669 157.207886,108.754456 
	C163.792648,108.754456 170.876709,108.754456 178.159088,108.754456 
	C178.159088,100.430443 178.110901,92.449020 178.172012,84.468430 
	C178.239349,75.677032 182.615448,71.312950 191.449081,71.292374 
	C210.270004,71.248528 229.091187,71.249077 247.912125,71.291664 
	C256.859467,71.311913 261.041077,75.526291 261.068451,84.403015 
	C261.093506,92.527214 261.073761,100.651543 261.073761,108.898483 
	C263.379852,108.898483 265.183594,108.898483 267.404572,108.986069 
	C270.109039,109.232704 272.396210,109.391762 274.774475,109.557144 
	C274.774475,86.775024 274.774475,64.078423 274.774475,41.187439 
	C271.910187,41.187439 269.445129,41.187439 266.518738,41.107452 
	C257.773743,41.018753 249.489288,40.940090 241.206772,41.033447 
	C237.548172,41.074692 235.144226,39.767891 234.430557,36.007072 
M285.816467,145.313599 
	C285.206696,145.288620 284.596954,145.263657 283.073914,145.020111 
	C281.242889,144.983795 279.411865,144.915848 277.580841,144.915710 
	C203.640259,144.910446 129.697952,145.174454 55.760551,144.689713 
	C40.943188,144.592575 25.556854,155.197769 29.353462,176.414627 
	C30.879185,176.414627 32.496353,176.414536 34.113522,176.414642 
	C45.437756,176.415314 56.762520,176.477859 68.085907,176.380356 
	C71.637695,176.349762 74.362038,177.134918 74.910583,181.786209 
	C74.035797,185.546677 71.197044,185.989105 67.992966,185.983505 
	C52.676182,185.956741 37.359310,185.963745 22.042503,185.983902 
	C20.287083,185.986206 18.531868,186.145569 16.255535,186.257812 
	C16.255535,193.715805 16.254095,200.672241 16.255938,207.628677 
	C16.257828,214.767426 16.259232,214.770523 23.213724,214.770584 
	C116.946083,214.771301 210.678436,214.771988 304.410797,214.764526 
	C306.238831,214.764374 308.066833,214.665787 310.751312,214.850021 
	C317.874817,214.955399 317.876190,214.955399 317.879944,207.888763 
	C317.882507,203.068604 317.881226,198.248428 317.880341,193.428268 
	C317.878906,185.528687 317.878448,185.528687 309.033081,185.988770 
	C250.489685,185.983292 191.946289,185.977707 133.402893,185.972443 
	C120.596512,185.971298 107.789970,185.934723 94.983864,185.994049 
	C91.329277,186.010971 88.325089,185.336227 87.872406,180.321640 
	C89.002174,175.820435 92.640747,176.424988 95.920273,176.424347 
	C160.632553,176.411804 225.344818,176.417450 290.057098,176.402481 
	C292.041962,176.402023 294.026733,176.220047 296.914612,176.383255 
	C299.523193,176.383255 302.131744,176.383255 304.667908,176.383255 
	C307.123627,160.326019 299.828308,148.485504 286.059906,145.939621 
	C286.059906,145.939621 286.187317,145.814621 285.816467,145.313599 
M39.083012,224.050720 
	C35.312748,224.050720 31.542482,224.050720 27.360298,224.050720 
	C27.360298,231.421478 27.360294,238.219604 27.360298,245.017746 
	C27.360308,257.518890 27.360310,257.518890 40.831818,256.860291 
	C43.030060,256.272400 46.825378,258.616760 46.906174,254.071381 
	C47.082325,244.161621 46.960609,234.246552 46.960609,224.189575 
	C44.263020,224.189575 42.132336,224.189575 39.083012,224.050720 
M299.031586,224.065720 
	C295.123138,224.065720 291.214691,224.065720 287.035492,224.065720 
	C287.035492,231.446075 287.035492,238.212570 287.035492,244.979065 
	C287.035492,257.459991 287.035492,257.459991 300.766815,256.882599 
	C305.168335,257.621765 307.388611,256.178650 306.736755,251.324692 
	C306.430603,249.045059 306.684326,246.690216 306.684326,244.369461 
	C306.684326,237.661819 306.684357,230.954178 306.684357,224.192749 
	C303.892883,224.192749 301.920227,224.192749 299.031586,224.065720 
M243.858475,116.104530 
	C252.336746,116.151680 251.744644,117.042480 251.754578,108.493973 
	C251.762299,101.840652 251.756470,95.187317 251.756042,88.533989 
	C251.755524,80.475754 251.755219,80.475243 243.473740,80.945732 
	C243.310394,80.955017 243.150253,81.020470 242.069839,80.868385 
	C224.152863,80.868385 206.235901,80.868385 188.246613,80.868385 
	C188.246613,92.949112 188.246613,104.317757 188.246613,115.904839 
	C206.758240,115.904839 224.871628,115.904839 243.858475,116.104530 
M265.123444,118.677948 
	C263.089478,119.347710 260.401459,119.426552 259.154236,120.807076 
	C256.335602,123.927010 253.153244,125.377350 249.087936,125.374519 
	C229.425903,125.360840 209.763123,125.446701 190.102798,125.261963 
	C187.601151,125.238449 183.916107,124.602753 182.840195,122.927284 
	C179.499390,117.724716 174.757355,118.599480 170.037781,118.590248 
	C166.038727,118.582428 162.034103,118.470963 158.043701,118.657242 
	C156.705124,118.719734 154.819778,119.164467 154.182449,120.108383 
	C151.041245,124.760696 146.530853,125.434219 141.475739,125.411339 
	C123.480309,125.329895 105.484047,125.329170 87.488632,125.412231 
	C82.285637,125.436249 77.468285,124.979797 74.405930,119.959572 
	C74.034966,119.351448 73.166176,118.874290 72.437180,118.683052 
	C60.604591,115.578949 51.351982,122.852936 51.682888,135.296768 
	C52.980152,135.296768 54.288822,135.296768 55.597488,135.296753 
	C126.247658,135.296585 196.897827,135.297806 267.548004,135.286957 
	C269.041595,135.286728 270.535156,135.147125 272.933411,135.232346 
	C276.174591,135.232346 279.415741,135.232346 282.706360,135.232346 
	C281.312927,122.697563 276.525116,118.164619 265.123444,118.677948 
M56.997620,224.264511 
	C56.646381,229.626648 56.295147,234.988785 55.927349,240.603729 
	C130.285507,240.603729 203.811340,240.603729 277.504883,240.603729 
	C277.504883,235.017822 277.504883,229.770172 277.504883,224.071869 
	C204.127930,224.071869 131.018173,224.071869 56.997620,224.264511 
z"/>
<path fill="#FECD8A" opacity="1.000000" stroke="none" 
	d="
M234.005890,36.017082 
	C235.144226,39.767891 237.548172,41.074692 241.206772,41.033447 
	C249.489288,40.940090 257.773743,41.018753 266.523682,41.563965 
	C266.989044,64.366478 266.988190,86.632477 266.987305,108.898483 
	C265.183594,108.898483 263.379852,108.898483 261.073761,108.898483 
	C261.073761,100.651543 261.093506,92.527214 261.068451,84.403015 
	C261.041077,75.526291 256.859467,71.311913 247.912125,71.291664 
	C229.091187,71.249077 210.270004,71.248528 191.449081,71.292374 
	C182.615448,71.312950 178.239349,75.677032 178.172012,84.468430 
	C178.110901,92.449020 178.159088,100.430443 178.159088,108.754456 
	C170.876709,108.754456 163.792648,108.754456 157.207886,108.754456 
	C155.250778,106.851669 153.460815,105.111382 151.358200,102.742111 
	C151.048691,98.387779 151.051834,94.662430 151.054977,90.937088 
	C155.213989,89.727608 156.144424,86.661713 155.844086,82.791679 
	C155.429977,77.455498 152.438477,73.179955 147.797058,71.881241 
	C146.066315,71.396965 144.181808,71.306755 142.366852,71.302910 
	C123.711945,71.263359 105.056900,71.256622 86.401970,71.287575 
	C77.106224,71.303001 72.952209,75.435280 72.929947,84.584229 
	C72.910583,92.548111 72.925919,100.512077 72.925919,108.826645 
	C68.185730,109.055450 63.770363,109.268585 59.086639,109.494667 
	C59.086639,86.922745 59.086639,64.333817 59.086639,41.003506 
	C61.190853,41.003506 63.116272,41.003506 65.041695,41.003506 
	C114.677269,41.003452 164.312851,40.995731 213.948410,41.019920 
	C217.406952,41.021603 220.760483,41.064499 221.960693,36.421051 
	C225.910263,36.058151 229.745743,36.042622 234.005890,36.017082 
z"/>
<path fill="#FECD8B" opacity="1.000000" stroke="none" 
	d="
M87.638557,181.063354 
	C88.325089,185.336227 91.329277,186.010971 94.983864,185.994049 
	C107.789970,185.934723 120.596512,185.971298 133.402893,185.972443 
	C191.946289,185.977707 250.489685,185.983292 309.545105,186.503296 
	C310.003021,196.216278 309.948944,205.414703 309.894867,214.613144 
	C308.066833,214.665787 306.238831,214.764374 304.410797,214.764526 
	C210.678436,214.771988 116.946083,214.771301 23.213724,214.770584 
	C16.259232,214.770523 16.257828,214.767426 16.255938,207.628677 
	C16.254095,200.672241 16.255535,193.715805 16.255535,186.257812 
	C18.531868,186.145569 20.287083,185.986206 22.042503,185.983902 
	C37.359310,185.963745 52.676182,185.956741 67.992966,185.983505 
	C71.197044,185.989105 74.035797,185.546677 75.472610,181.424042 
	C79.902603,181.062378 83.770584,181.062866 87.638557,181.063354 
z"/>
<path fill="#C9F0FC" opacity="1.000000" stroke="none" 
	d="
M87.755478,180.692505 
	C83.770584,181.062866 79.902603,181.062378 75.584030,181.068207 
	C74.362038,177.134918 71.637695,176.349762 68.085907,176.380356 
	C56.762520,176.477859 45.437756,176.415314 34.113522,176.414642 
	C32.496353,176.414536 30.879185,176.414627 29.353462,176.414627 
	C25.556854,155.197769 40.943188,144.592575 55.760551,144.689713 
	C129.697952,145.174454 203.640259,144.910446 277.580841,144.915710 
	C279.411865,144.915848 281.242889,144.983795 283.742920,145.352875 
	C285.003754,145.728638 285.595520,145.771622 286.187317,145.814621 
	C286.187317,145.814621 286.059906,145.939621 286.079498,146.222244 
	C293.474792,155.014801 297.365570,164.691086 296.011566,176.122681 
	C294.026733,176.220047 292.041962,176.402023 290.057098,176.402481 
	C225.344818,176.417450 160.632553,176.411804 95.920273,176.424347 
	C92.640747,176.424988 89.002174,175.820435 87.755478,180.692505 
z"/>
<path fill="#83ADDF" opacity="1.000000" stroke="none" 
	d="
M57.453018,224.168182 
	C131.018173,224.071869 204.127930,224.071869 277.504883,224.071869 
	C277.504883,229.770172 277.504883,235.017822 277.504883,240.603729 
	C203.811340,240.603729 130.285507,240.603729 55.927349,240.603729 
	C56.295147,234.988785 56.646381,229.626648 57.453018,224.168182 
z"/>
<path fill="#538ED1" opacity="1.000000" stroke="none" 
	d="
M272.028748,135.072540 
	C270.535156,135.147125 269.041595,135.286728 267.548004,135.286957 
	C196.897827,135.297806 126.247658,135.296585 55.597488,135.296753 
	C54.288822,135.296768 52.980152,135.296768 51.682888,135.296768 
	C51.351982,122.852936 60.604591,115.578949 72.437180,118.683052 
	C73.166176,118.874290 74.034966,119.351448 74.405930,119.959572 
	C77.468285,124.979797 82.285637,125.436249 87.488632,125.412231 
	C105.484047,125.329170 123.480309,125.329895 141.475739,125.411339 
	C146.530853,125.434219 151.041245,124.760696 154.182449,120.108383 
	C154.819778,119.164467 156.705124,118.719734 158.043701,118.657242 
	C162.034103,118.470963 166.038727,118.582428 170.037781,118.590248 
	C174.757355,118.599480 179.499390,117.724716 182.840195,122.927284 
	C183.916107,124.602753 187.601151,125.238449 190.102798,125.261963 
	C209.763123,125.446701 229.425903,125.360840 249.087936,125.374519 
	C253.153244,125.377350 256.335602,123.927010 259.154236,120.807076 
	C260.401459,119.426552 263.089478,119.347710 265.690277,119.097549 
	C268.181000,124.702278 270.104858,129.887405 272.028748,135.072540 
z"/>
<path fill="#C8EFFB" opacity="1.000000" stroke="none" 
	d="
M137.969101,115.887039 
	C120.510376,115.961090 103.051247,116.094048 85.593903,115.971092 
	C84.479874,115.963257 82.447952,113.995644 82.419235,112.898468 
	C82.166855,103.257393 82.302643,93.606804 82.257027,83.959343 
	C82.239243,80.197823 84.920448,80.851875 87.156700,80.850487 
	C103.790443,80.840126 120.424210,80.862000 137.519836,81.439804 
	C137.977493,93.299583 137.973297,104.593307 137.969101,115.887039 
z"/>
<path fill="#C9F0FC" opacity="1.000000" stroke="none" 
	d="
M242.985016,115.904839 
	C224.871628,115.904839 206.758240,115.904839 188.246613,115.904839 
	C188.246613,104.317757 188.246613,92.949112 188.246613,80.868385 
	C206.235901,80.868385 224.152863,80.868385 242.535294,81.428810 
	C242.995499,93.294434 242.990250,104.599640 242.985016,115.904839 
z"/>
<path fill="#FDC16C" opacity="1.000000" stroke="none" 
	d="
M267.404572,108.986069 
	C266.988190,86.632477 266.989044,64.366478 266.984985,41.643955 
	C269.445129,41.187439 271.910187,41.187439 274.774475,41.187439 
	C274.774475,64.078423 274.774475,86.775024 274.774475,109.557144 
	C272.396210,109.391762 270.109039,109.232704 267.404572,108.986069 
z"/>
<path fill="#FDAE4F" opacity="1.000000" stroke="none" 
	d="
M299.922241,256.695129 
	C287.035492,257.459991 287.035492,257.459991 287.035492,244.979065 
	C287.035492,238.212570 287.035492,231.446075 287.035492,224.065720 
	C291.214691,224.065720 295.123138,224.065720 299.510071,224.584946 
	C299.966431,235.634491 299.944336,246.164810 299.922241,256.695129 
z"/>
<path fill="#F6A94D" opacity="1.000000" stroke="none" 
	d="
M39.978508,256.695190 
	C27.360310,257.518890 27.360308,257.518890 27.360298,245.017746 
	C27.360294,238.219604 27.360298,231.421478 27.360298,224.050720 
	C31.542482,224.050720 35.312748,224.050720 39.549992,224.576324 
	C40.004150,235.633011 39.991329,246.164093 39.978508,256.695190 
z"/>
<path fill="#9CE4F9" opacity="1.000000" stroke="none" 
	d="
M138.413864,115.986816 
	C137.973297,104.593307 137.977493,93.299583 137.976913,81.542282 
	C140.538986,81.078705 143.105835,81.078705 145.672699,81.078705 
	C145.300003,81.495575 144.927322,81.912445 144.554626,82.329323 
	C146.505325,85.095757 148.456024,87.862190 150.730835,90.782860 
	C151.051834,94.662430 151.048691,98.387779 151.048431,102.577362 
	C143.914703,104.829521 147.081696,111.128693 145.603699,116.086586 
	C143.384766,116.086586 141.121704,116.086586 138.413864,115.986816 
z"/>
<path fill="#97DEF2" opacity="1.000000" stroke="none" 
	d="
M243.421753,116.004684 
	C242.990250,104.599640 242.995499,93.294434 242.994690,81.524475 
	C243.150253,81.020470 243.310394,80.955017 243.473740,80.945732 
	C251.755219,80.475243 251.755524,80.475754 251.756042,88.533989 
	C251.756470,95.187317 251.762299,101.840652 251.754578,108.493973 
	C251.744644,117.042480 252.336746,116.151680 243.421753,116.004684 
z"/>
<path fill="#9AE2F6" opacity="1.000000" stroke="none" 
	d="
M296.463074,176.252960 
	C297.365570,164.691086 293.474792,155.014801 286.122009,146.143768 
	C299.828308,148.485504 307.123627,160.326019 304.667908,176.383255 
	C302.131744,176.383255 299.523193,176.383255 296.463074,176.252960 
z"/>
<path fill="#CDA063" opacity="1.000000" stroke="none" 
	d="
M310.323090,214.731583 
	C309.948944,205.414703 310.003021,196.216278 310.008423,186.557465 
	C317.878448,185.528687 317.878906,185.528687 317.880341,193.428268 
	C317.881226,198.248428 317.882507,203.068604 317.879944,207.888763 
	C317.876190,214.955399 317.874817,214.955399 310.323090,214.731583 
z"/>
<path fill="#F49127" opacity="1.000000" stroke="none" 
	d="
M40.405163,256.777740 
	C39.991329,246.164093 40.004150,235.633011 40.009312,224.645752 
	C42.132336,224.189575 44.263020,224.189575 46.960609,224.189575 
	C46.960609,234.246552 47.082325,244.161621 46.906174,254.071381 
	C46.825378,258.616760 43.030060,256.272400 40.405163,256.777740 
z"/>
<path fill="#E68822" opacity="1.000000" stroke="none" 
	d="
M300.344543,256.788879 
	C299.944336,246.164810 299.966431,235.634491 299.968018,224.648468 
	C301.920227,224.192749 303.892883,224.192749 306.684357,224.192749 
	C306.684357,230.954178 306.684326,237.661819 306.684326,244.369461 
	C306.684326,246.690216 306.430603,249.045059 306.736755,251.324692 
	C307.388611,256.178650 305.168335,257.621765 300.344543,256.788879 
z"/>
<path fill="#1473C8" opacity="1.000000" stroke="none" 
	d="
M272.481079,135.152435 
	C270.104858,129.887405 268.181000,124.702278 266.100006,119.195496 
	C276.525116,118.164619 281.312927,122.697563 282.706360,135.232346 
	C279.415741,135.232346 276.174591,135.232346 272.481079,135.152435 
z"/>
<path fill="#9AE2F6" opacity="1.000000" stroke="none" 
	d="
M286.001892,145.564117 
	C285.595520,145.771622 285.003754,145.728638 284.199585,145.462158 
	C284.596954,145.263657 285.206696,145.288620 286.001892,145.564117 
z"/>
</svg>