<svg version="1.1" id="Layer_1" xmlns="http://www.w3.org/2000/svg" xmlns:xlink="http://www.w3.org/1999/xlink" x="0px" y="0px"
	 width="100%" viewBox="0 0 512 512" enable-background="new 0 0 512 512" xml:space="preserve">
<path fill="#010000" opacity="1.000000" stroke="none" 
	d="
M513.000000,172.000000 
	C513.000000,285.972290 513.000000,399.444580 513.000000,512.958435 
	C342.402710,512.958435 171.805389,512.958435 1.104040,512.958435 
	C1.104040,342.444397 1.104040,171.888733 1.104040,1.166524 
	C171.666534,1.166524 342.333252,1.166524 513.000000,1.166524 
	C513.000000,57.861240 513.000000,114.680618 513.000000,172.000000 
M396.893036,497.951660 
	C399.821960,497.951660 402.750916,497.951660 405.750244,497.951660 
	C405.750244,336.977051 405.750244,176.725540 405.750244,16.165445 
	C402.237640,16.165445 399.109863,16.165445 395.054382,16.041344 
	C299.499176,16.041344 203.943985,16.041344 107.846649,16.041344 
	C107.846649,18.934570 107.846642,21.225130 107.846642,23.515690 
	C107.846634,113.134117 107.846931,202.752548 107.844627,292.370972 
	C107.844582,294.203064 108.365906,296.285095 107.674324,297.811035 
	C106.520622,300.356628 104.586128,302.549438 102.971764,304.884796 
	C101.988884,306.306671 100.389725,307.616058 100.129761,309.155396 
	C99.664864,311.908295 99.890434,314.803741 100.065231,317.624847 
	C100.127487,318.629547 100.683304,320.274628 101.349236,320.467163 
	C107.950508,322.375458 107.875153,327.532166 107.871048,332.890076 
	C107.830597,385.694946 107.846657,438.499878 107.846680,491.304779 
	C107.846680,493.411407 107.846680,495.518036 107.846680,497.847198 
	C110.370018,497.847198 112.174500,497.847198 114.893600,497.965179 
	C118.004265,497.965179 121.114929,497.965179 124.836212,497.965179 
	C124.836212,495.079254 124.836197,492.794128 124.836197,490.508972 
	C124.836189,342.978760 124.837425,195.448563 124.825104,47.918365 
	C124.824905,45.593441 124.658257,43.268532 124.771271,40.200142 
	C126.322327,34.482861 128.192551,33.015678 134.356735,33.014584 
	C216.013367,33.000076 297.669983,32.999973 379.326630,33.012550 
	C386.765686,33.013699 389.164764,35.411007 389.165802,42.906696 
	C389.180481,149.893539 389.153473,256.880432 389.240570,363.867188 
	C389.245026,369.340393 387.409241,372.847198 381.244476,373.910156 
	C375.145996,371.767426 374.164337,370.219482 374.164093,362.583069 
	C374.160889,259.872467 374.161835,157.161865 374.161713,54.451263 
	C374.161713,52.369862 374.161682,50.288464 374.161682,48.170719 
	C370.255890,48.170719 367.110291,48.170719 363.041626,48.026867 
	C288.793060,48.026867 214.544495,48.026867 140.066101,48.026867 
	C140.066101,198.144745 140.066101,347.812408 140.066101,498.000580 
	C142.011078,498.000580 143.799469,498.000580 145.587875,498.000580 
	C216.718170,498.000580 287.848480,498.001770 358.978760,497.993408 
	C360.640747,497.993195 362.302765,497.886383 364.881592,497.973175 
	C367.826935,497.973175 370.772247,497.973175 374.161652,497.973175 
	C374.161652,495.716095 374.161652,493.930878 374.161652,492.145660 
	C374.162018,461.073853 374.150787,430.002075 374.171906,398.930267 
	C374.176453,392.253632 375.753448,390.251007 382.633789,388.951202 
	C387.914215,390.049286 389.224274,393.692444 389.213013,398.570190 
	C389.141235,429.695984 389.177765,460.822083 389.178650,491.948059 
	C389.178711,493.856873 389.178650,495.765717 389.178650,497.834595 
	C392.023163,497.834595 394.002686,497.834595 396.893036,497.951660 
z"/>
<path fill="#EA956D" opacity="1.000000" stroke="none" 
	d="
M363.964752,497.829285 
	C362.302765,497.886383 360.640747,497.993195 358.978760,497.993408 
	C287.848480,498.001770 216.718170,498.000580 145.587875,498.000580 
	C143.799469,498.000580 142.011078,498.000580 140.066101,498.000580 
	C140.066101,347.812408 140.066101,198.144745 140.066101,48.026867 
	C214.544495,48.026867 288.793060,48.026867 363.507812,48.556606 
	C363.977295,73.721848 363.995483,98.357353 363.980743,122.992844 
	C363.952789,169.766342 363.905975,216.539825 363.548157,263.161285 
	C356.814178,258.092957 349.862488,256.987854 345.125732,261.600464 
	C341.223938,265.399963 337.141022,265.535461 332.521820,265.426819 
	C330.033539,265.368256 327.541382,265.365509 325.053314,265.429504 
	C319.004639,265.585052 315.891266,268.109192 315.811279,272.846100 
	C315.727814,277.788452 318.918701,280.441101 325.264008,280.564148 
	C329.411957,280.644592 333.568176,280.461151 337.709198,280.648712 
	C339.231323,280.717621 341.049316,281.114471 342.172180,282.040771 
	C350.389130,288.819244 355.168457,289.019318 363.880737,283.121216 
	C363.925751,355.018097 363.945251,426.423676 363.964752,497.829285 
M173.939377,154.860931 
	C173.977631,159.364960 174.015869,163.869003 173.427795,168.659012 
	C167.729340,169.500595 166.401382,173.401932 166.410751,178.421951 
	C166.451553,200.253662 166.421585,222.085480 166.429825,243.917267 
	C166.433517,253.727249 168.305450,255.592682 178.162827,255.593735 
	C230.659103,255.599304 283.155396,255.598724 335.651672,255.594299 
	C345.747772,255.593460 347.570343,253.757523 347.571106,243.596375 
	C347.575043,190.933441 347.573029,138.270508 347.572266,85.607567 
	C347.572235,84.441017 347.620697,83.270866 347.548187,82.108528 
	C347.195923,76.461586 344.700623,73.833893 339.093018,73.828812 
	C284.430298,73.779266 229.767471,73.780266 175.104721,73.824188 
	C169.202499,73.828926 166.511292,76.434196 166.479599,82.406113 
	C166.369110,103.237358 166.425018,124.069557 166.444855,144.901367 
	C166.449600,149.895081 168.883118,152.974869 173.939377,154.860931 
M166.430710,452.484161 
	C166.430710,454.984100 166.429413,457.484039 166.430893,459.983978 
	C166.437164,470.576569 168.041107,472.203491 178.515472,472.203888 
	C231.012558,472.205780 283.509644,472.206818 336.006744,472.202789 
	C345.751587,472.202026 347.565796,470.361511 347.566742,460.455200 
	C347.571869,407.791443 347.571045,355.127716 347.567719,302.463959 
	C347.567078,292.203308 345.807281,290.409912 335.725006,290.409088 
	C283.394562,290.404938 231.064148,290.406006 178.733719,290.408081 
	C168.116608,290.408508 166.432816,292.060577 166.432144,302.497894 
	C166.428970,352.161804 166.430740,401.825714 166.430710,452.484161 
z"/>
<path fill="#A75018" opacity="1.000000" stroke="none" 
	d="
M381.943665,374.097870 
	C387.409241,372.847198 389.245026,369.340393 389.240570,363.867188 
	C389.153473,256.880432 389.180481,149.893539 389.165802,42.906696 
	C389.164764,35.411007 386.765686,33.013699 379.326630,33.012550 
	C297.669983,32.999973 216.013367,33.000076 134.356735,33.014584 
	C128.192551,33.015678 126.322327,34.482861 124.254593,40.579453 
	C114.442497,41.090042 114.020523,41.525772 114.008621,51.012871 
	C114.006531,52.678917 114.008369,54.344971 114.008263,56.011021 
	C113.998505,203.289749 113.988747,350.568481 113.978981,497.847198 
	C112.174500,497.847198 110.370018,497.847198 107.846680,497.847198 
	C107.846680,495.518036 107.846680,493.411407 107.846680,491.304779 
	C107.846657,438.499878 107.830597,385.694946 107.871048,332.890076 
	C107.875153,327.532166 107.950508,322.375458 101.349236,320.467163 
	C100.683304,320.274628 100.127487,318.629547 100.065231,317.624847 
	C99.890434,314.803741 99.664864,311.908295 100.129761,309.155396 
	C100.389725,307.616058 101.988884,306.306671 102.971764,304.884796 
	C104.586128,302.549438 106.520622,300.356628 107.674324,297.811035 
	C108.365906,296.285095 107.844582,294.203064 107.844627,292.370972 
	C107.846931,202.752548 107.846634,113.134117 107.846642,23.515690 
	C107.846642,21.225130 107.846649,18.934570 107.846649,16.041344 
	C203.943985,16.041344 299.499176,16.041344 395.522522,16.561016 
	C395.987854,177.331985 395.985016,337.583282 395.982208,497.834595 
	C394.002686,497.834595 392.023163,497.834595 389.178650,497.834595 
	C389.178650,495.765717 389.178711,493.856873 389.178650,491.948059 
	C389.177765,460.822083 389.141235,429.695984 389.213013,398.570190 
	C389.224274,393.692444 387.914215,390.049286 382.262085,388.405579 
	C381.908112,383.272583 381.925903,378.685211 381.943665,374.097870 
z"/>
<path fill="#954716" opacity="1.000000" stroke="none" 
	d="
M114.436295,497.906189 
	C113.988747,350.568481 113.998505,203.289749 114.008263,56.011021 
	C114.008369,54.344971 114.006531,52.678917 114.008621,51.012871 
	C114.020523,41.525772 114.442497,41.090042 124.153595,40.951187 
	C124.658257,43.268532 124.824905,45.593441 124.825104,47.918365 
	C124.837425,195.448563 124.836189,342.978760 124.836197,490.508972 
	C124.836197,492.794128 124.836212,495.079254 124.836212,497.965179 
	C121.114929,497.965179 118.004265,497.965179 114.436295,497.906189 
z"/>
<path fill="#994916" opacity="1.000000" stroke="none" 
	d="
M396.437622,497.893127 
	C395.985016,337.583282 395.987854,177.331985 395.986389,16.623066 
	C399.109863,16.165445 402.237640,16.165445 405.750244,16.165445 
	C405.750244,176.725540 405.750244,336.977051 405.750244,497.951660 
	C402.750916,497.951660 399.821960,497.951660 396.437622,497.893127 
z"/>
<path fill="#E8834D" opacity="1.000000" stroke="none" 
	d="
M381.594055,374.004028 
	C381.925903,378.685211 381.908112,383.272583 381.893921,388.310120 
	C375.753448,390.251007 374.176453,392.253632 374.171906,398.930267 
	C374.150787,430.002075 374.162018,461.073853 374.161652,492.145660 
	C374.161652,493.930878 374.161652,495.716095 374.161652,497.973175 
	C370.772247,497.973175 367.826935,497.973175 364.423157,497.901245 
	C363.945251,426.423676 363.925751,355.018097 363.996368,282.791138 
	C368.720917,275.695557 367.941589,269.485046 363.867004,263.313324 
	C363.905975,216.539825 363.952789,169.766342 363.980743,122.992844 
	C363.995483,98.357353 363.977295,73.721848 363.969330,48.628532 
	C367.110291,48.170719 370.255890,48.170719 374.161682,48.170719 
	C374.161682,50.288464 374.161713,52.369862 374.161713,54.451263 
	C374.161835,157.161865 374.160889,259.872467 374.164093,362.583069 
	C374.164337,370.219482 375.145996,371.767426 381.594055,374.004028 
z"/>
<path fill="#D56723" opacity="1.000000" stroke="none" 
	d="
M174.054123,168.373032 
	C174.015869,163.869003 173.977631,159.364960 174.239990,154.244278 
	C180.016006,152.580719 181.631592,148.871063 181.610535,143.777328 
	C181.543686,127.619881 181.587662,111.461983 181.588745,95.304253 
	C181.588867,93.358955 181.588760,91.413658 181.588760,88.904953 
	C184.159317,88.904953 186.112396,88.904953 188.065475,88.904953 
	C213.051651,88.904938 238.037872,88.879753 263.024017,88.912949 
	C282.675476,88.939064 302.326904,89.037231 321.983215,89.565300 
	C321.999359,140.046875 322.010651,190.066559 321.561798,240.191742 
	C274.770355,240.297272 228.439026,240.297272 181.579681,240.297272 
	C181.579681,237.637848 181.579773,235.679092 181.579666,233.720337 
	C181.578629,215.258163 181.614349,196.795853 181.556412,178.333862 
	C181.536240,171.909088 180.171799,170.242737 174.054123,168.373032 
z"/>
<path fill="#090503" opacity="1.000000" stroke="none" 
	d="
M166.430740,451.986877 
	C166.430740,401.825714 166.428970,352.161804 166.432144,302.497894 
	C166.432816,292.060577 168.116608,290.408508 178.733719,290.408081 
	C231.064148,290.406006 283.394562,290.404938 335.725006,290.409088 
	C345.807281,290.409912 347.567078,292.203308 347.567719,302.463959 
	C347.571045,355.127716 347.571869,407.791443 347.566742,460.455200 
	C347.565796,470.361511 345.751587,472.202026 336.006744,472.202789 
	C283.509644,472.206818 231.012558,472.205780 178.515472,472.203888 
	C168.041107,472.203491 166.437164,470.576569 166.430893,459.983978 
	C166.429413,457.484039 166.430710,454.984100 166.430740,451.986877 
M321.260345,305.579132 
	C276.778748,305.540039 232.296707,305.583557 187.816147,305.348022 
	C182.755768,305.321259 181.432281,306.665070 181.454605,311.738251 
	C181.659134,358.219452 181.574966,404.701874 181.574982,451.183960 
	C181.574982,452.964355 181.574982,454.744751 181.574982,457.097961 
	C183.969086,457.097961 185.754898,457.097992 187.540695,457.097992 
	C211.198242,457.098022 234.855820,457.122131 258.513336,457.090912 
	C279.668030,457.063019 300.822693,456.974091 322.891602,457.057983 
	C325.839325,457.057983 328.787048,457.057983 332.415161,457.057983 
	C332.415161,454.378418 332.415161,452.268616 332.415161,450.158844 
	C332.415192,405.021790 332.415344,359.884705 332.415161,314.747650 
	C332.415131,304.851807 332.414459,304.851807 321.260345,305.579132 
z"/>
<path fill="#0A0603" opacity="1.000000" stroke="none" 
	d="
M321.978333,89.103401 
	C302.326904,89.037231 282.675476,88.939064 263.024017,88.912949 
	C238.037872,88.879753 213.051651,88.904938 188.065475,88.904953 
	C186.112396,88.904953 184.159317,88.904953 181.588760,88.904953 
	C181.588760,91.413658 181.588867,93.358955 181.588745,95.304253 
	C181.587662,111.461983 181.543686,127.619881 181.610535,143.777328 
	C181.631592,148.871063 180.016006,152.580719 174.201569,153.772903 
	C168.883118,152.974869 166.449600,149.895081 166.444855,144.901367 
	C166.425018,124.069557 166.369110,103.237358 166.479599,82.406113 
	C166.511292,76.434196 169.202499,73.828926 175.104721,73.824188 
	C229.767471,73.780266 284.430298,73.779266 339.093018,73.828812 
	C344.700623,73.833893 347.195923,76.461586 347.548187,82.108528 
	C347.620697,83.270866 347.572235,84.441017 347.572266,85.607567 
	C347.573029,138.270508 347.575043,190.933441 347.571106,243.596375 
	C347.570343,253.757523 345.747772,255.593460 335.651672,255.594299 
	C283.155396,255.598724 230.659103,255.599304 178.162827,255.593735 
	C168.305450,255.592682 166.433517,253.727249 166.429825,243.917267 
	C166.421585,222.085480 166.451553,200.253662 166.410751,178.421951 
	C166.401382,173.401932 167.729340,169.500595 173.740967,168.516022 
	C180.171799,170.242737 181.536240,171.909088 181.556412,178.333862 
	C181.614349,196.795853 181.578629,215.258163 181.579666,233.720337 
	C181.579773,235.679092 181.579681,237.637848 181.579681,240.297272 
	C228.439026,240.297272 274.770355,240.297272 322.014862,240.284592 
	C334.259338,240.428314 332.336945,241.166977 332.354340,231.269974 
	C332.433929,185.994537 332.394012,140.718887 332.374054,95.443321 
	C332.373138,93.367928 332.150360,91.292633 332.024384,89.103401 
	C328.260895,89.103401 325.119598,89.103401 321.978333,89.103401 
z"/>
<path fill="#060403" opacity="1.000000" stroke="none" 
	d="
M363.548157,263.161285 
	C367.941589,269.485046 368.720917,275.695557 363.970856,282.299866 
	C355.168457,289.019318 350.389130,288.819244 342.172180,282.040771 
	C341.049316,281.114471 339.231323,280.717621 337.709198,280.648712 
	C333.568176,280.461151 329.411957,280.644592 325.264008,280.564148 
	C318.918701,280.441101 315.727814,277.788452 315.811279,272.846100 
	C315.891266,268.109192 319.004639,265.585052 325.053314,265.429504 
	C327.541382,265.365509 330.033539,265.368256 332.521820,265.426819 
	C337.141022,265.535461 341.223938,265.399963 345.125732,261.600464 
	C349.862488,256.987854 356.814178,258.092957 363.548157,263.161285 
z"/>
<path fill="#B6591E" opacity="1.000000" stroke="none" 
	d="
M321.983215,89.565300 
	C325.119598,89.103401 328.260895,89.103401 332.024384,89.103401 
	C332.150360,91.292633 332.373138,93.367928 332.374054,95.443321 
	C332.394012,140.718887 332.433929,185.994537 332.354340,231.269974 
	C332.336945,241.166977 334.259338,240.428314 322.475006,240.179077 
	C322.010651,190.066559 321.999359,140.046875 321.983215,89.565300 
z"/>
<path fill="#D56723" opacity="1.000000" stroke="none" 
	d="
M321.977356,456.912079 
	C300.822693,456.974091 279.668030,457.063019 258.513336,457.090912 
	C234.855820,457.122131 211.198242,457.098022 187.540695,457.097992 
	C185.754898,457.097992 183.969086,457.097961 181.574982,457.097961 
	C181.574982,454.744751 181.574982,452.964355 181.574982,451.183960 
	C181.574966,404.701874 181.659134,358.219452 181.454605,311.738251 
	C181.432281,306.665070 182.755768,305.321259 187.816147,305.348022 
	C232.296707,305.583557 276.778748,305.540039 321.651672,306.178467 
	C322.021088,356.822540 321.999237,406.867310 321.977356,456.912079 
z"/>
<path fill="#B0561D" opacity="1.000000" stroke="none" 
	d="
M322.434479,456.985046 
	C321.999237,406.867310 322.021088,356.822540 322.053833,306.295837 
	C332.414459,304.851807 332.415131,304.851807 332.415161,314.747650 
	C332.415344,359.884705 332.415192,405.021790 332.415161,450.158844 
	C332.415161,452.268616 332.415161,454.378418 332.415161,457.057983 
	C328.787048,457.057983 325.839325,457.057983 322.434479,456.985046 
z"/>
</svg>