<svg version="1.1" id="Layer_1" xmlns="http://www.w3.org/2000/svg" xmlns:xlink="http://www.w3.org/1999/xlink" x="0px" y="0px"
	 width="100%" viewBox="0 0 322 307" enable-background="new 0 0 322 307" xml:space="preserve">
<path fill="#F6F6F6" opacity="1.000000" stroke="none" 
	d="
M32.999996,308.000000 
	C22.337088,308.000000 11.674174,308.000000 1.008446,308.000000 
	C1.005630,205.706436 1.005630,103.412865 1.005630,1.059648 
	C108.255768,1.059648 215.511581,1.059648 322.883698,1.059648 
	C322.883698,103.219673 322.883698,205.439514 322.883698,308.000000 
	C231.646057,308.000000 140.291687,308.000000 48.671661,307.624756 
	C53.018135,306.698273 57.729618,306.572479 62.225353,305.522705 
	C82.614296,300.761841 101.485260,292.099640 120.061501,282.676727 
	C121.860352,281.764221 124.630119,281.449646 126.471863,282.136841 
	C150.963593,291.274841 175.314514,291.156219 199.503906,281.275848 
	C202.365311,280.107056 204.345901,280.595062 206.890533,281.785278 
	C218.330780,287.136444 229.699799,292.707916 241.428665,297.356842 
	C256.169647,303.199615 271.379303,307.497040 287.533600,306.861298 
	C303.012421,306.252075 313.064087,299.196533 316.503754,284.940857 
	C319.029694,274.472076 320.854950,263.703827 321.606201,252.971970 
	C322.450043,240.917419 320.615479,229.008163 313.635773,218.552414 
	C305.880890,206.935379 287.338715,200.064209 274.438049,216.614685 
	C273.653046,217.621796 272.710449,218.506042 272.189209,219.070557 
	C268.405762,214.980881 264.774780,211.149155 261.269806,207.205414 
	C260.331146,206.149231 259.375427,204.832138 259.106995,203.498093 
	C255.479218,185.469269 246.173218,170.740417 232.427109,158.922302 
	C225.316727,152.809219 217.315308,147.732590 209.751236,142.213074 
	C229.019333,127.248505 239.127548,107.532249 237.527634,82.523911 
	C256.542145,77.363281 265.063080,68.434113 266.421387,52.494354 
	C267.452698,40.391708 260.174164,28.187443 248.584869,22.587061 
	C235.028687,16.036198 223.125366,19.351179 208.382095,33.764812 
	C179.066681,15.420447 149.312500,14.695122 118.192818,32.007202 
	C117.364639,30.868397 116.567924,29.350170 115.394020,28.225708 
	C106.227951,19.445642 92.352959,16.900227 81.101746,22.235315 
	C68.984772,27.980930 62.635944,37.834236 62.512493,51.207325 
	C62.394295,64.010979 70.659233,75.575897 82.885582,79.868935 
	C86.476891,81.129951 87.129791,82.921509 87.025040,86.311478 
	C86.349670,108.168892 95.415207,125.578835 111.791367,139.545822 
	C113.138977,140.695175 114.504692,141.823303 115.801651,142.910706 
	C115.435371,143.488937 115.386330,143.658279 115.275131,143.726959 
	C114.568100,144.163513 113.849709,144.581894 113.130775,144.998917 
	C89.825279,158.517548 72.809830,176.927902 67.040642,204.129761 
	C66.816704,205.185638 66.159904,206.234909 65.463737,207.091263 
	C61.647289,211.785904 57.755550,216.419312 53.821472,221.155869 
	C52.919495,220.056183 51.719337,218.477341 50.401138,217.004150 
	C40.197182,205.600372 26.177250,205.274719 15.373470,216.214691 
	C9.528799,222.133041 6.759770,229.587006 5.262124,237.543777 
	C1.976258,255.001175 4.726414,272.059998 9.424939,288.841919 
	C11.752479,297.155273 17.525263,302.893127 25.627237,306.025635 
	C27.986582,306.937866 30.537100,307.355621 32.999996,308.000000 
z"/>
<path fill="#4D4B49" opacity="1.000000" stroke="none" 
	d="
M33.466110,308.000000 
	C30.537100,307.355621 27.986582,306.937866 25.627237,306.025635 
	C17.525263,302.893127 11.752479,297.155273 9.424939,288.841919 
	C4.726414,272.059998 1.976258,255.001175 5.262124,237.543777 
	C6.759770,229.587006 9.528799,222.133041 15.373470,216.214691 
	C26.177250,205.274719 40.197182,205.600372 50.401138,217.004150 
	C51.719337,218.477341 52.919495,220.056183 53.821472,221.155869 
	C57.755550,216.419312 61.647289,211.785904 65.463737,207.091263 
	C66.159904,206.234909 66.816704,205.185638 67.040642,204.129761 
	C72.809830,176.927902 89.825279,158.517548 113.130775,144.998917 
	C113.849709,144.581894 114.568100,144.163513 115.275131,143.726959 
	C115.386330,143.658279 115.435371,143.488937 115.801651,142.910706 
	C114.504692,141.823303 113.138977,140.695175 111.791367,139.545822 
	C95.415207,125.578835 86.349670,108.168892 87.025040,86.311478 
	C87.129791,82.921509 86.476891,81.129951 82.885582,79.868935 
	C70.659233,75.575897 62.394295,64.010979 62.512493,51.207325 
	C62.635944,37.834236 68.984772,27.980930 81.101746,22.235315 
	C92.352959,16.900227 106.227951,19.445642 115.394020,28.225708 
	C116.567924,29.350170 117.364639,30.868397 118.192818,32.007202 
	C149.312500,14.695122 179.066681,15.420447 208.382095,33.764812 
	C223.125366,19.351179 235.028687,16.036198 248.584869,22.587061 
	C260.174164,28.187443 267.452698,40.391708 266.421387,52.494354 
	C265.063080,68.434113 256.542145,77.363281 237.527634,82.523911 
	C239.127548,107.532249 229.019333,127.248505 209.751236,142.213074 
	C217.315308,147.732590 225.316727,152.809219 232.427109,158.922302 
	C246.173218,170.740417 255.479218,185.469269 259.106995,203.498093 
	C259.375427,204.832138 260.331146,206.149231 261.269806,207.205414 
	C264.774780,211.149155 268.405762,214.980881 272.189209,219.070557 
	C272.710449,218.506042 273.653046,217.621796 274.438049,216.614685 
	C287.338715,200.064209 305.880890,206.935379 313.635773,218.552414 
	C320.615479,229.008163 322.450043,240.917419 321.606201,252.971970 
	C320.854950,263.703827 319.029694,274.472076 316.503754,284.940857 
	C313.064087,299.196533 303.012421,306.252075 287.533600,306.861298 
	C271.379303,307.497040 256.169647,303.199615 241.428665,297.356842 
	C229.699799,292.707916 218.330780,287.136444 206.890533,281.785278 
	C204.345901,280.595062 202.365311,280.107056 199.503906,281.275848 
	C175.314514,291.156219 150.963593,291.274841 126.471863,282.136841 
	C124.630119,281.449646 121.860352,281.764221 120.061501,282.676727 
	C101.485260,292.099640 82.614296,300.761841 62.225353,305.522705 
	C57.729618,306.572479 53.018135,306.698273 48.203003,307.624756 
	C43.310745,308.000000 38.621487,308.000000 33.466110,308.000000 
M308.997345,221.001984 
	C308.997345,221.001984 309.050385,220.989777 308.801605,220.359039 
	C299.265167,208.015854 285.691315,208.138367 276.581909,221.352737 
	C272.398468,227.421326 269.830688,234.615356 266.639404,241.350754 
	C265.294159,244.189972 264.820831,245.825241 260.649353,243.516922 
	C254.319382,240.014175 246.987442,238.322128 241.448196,236.348068 
	C236.910477,245.012405 233.874664,253.276199 228.742645,259.921021 
	C223.506866,266.700165 216.211334,271.888519 209.324829,278.226837 
	C220.686035,283.152313 231.888824,288.714142 243.591248,292.868530 
	C253.690125,296.453583 264.357513,298.437195 275.079620,301.457062 
	C275.079620,301.457062 275.483032,301.644775 275.483032,301.644775 
	C275.483032,301.644775 275.925232,301.596558 276.589844,301.727753 
	C277.039154,301.704529 277.488434,301.681305 278.864899,301.860413 
	C282.352325,301.901764 285.847626,302.114075 289.325714,301.953430 
	C301.286499,301.400970 309.477020,294.699219 312.498962,283.090332 
	C313.291199,280.046967 314.017822,276.977997 314.585480,273.886108 
	C317.612915,257.396515 319.131195,240.979004 311.661499,224.487473 
	C311.089142,223.654678 310.516785,222.821899 309.770905,221.527466 
	C309.576019,221.245361 309.315216,221.052368 308.997345,221.001984 
M125.580032,158.007858 
	C125.285789,158.190674 125.198021,158.444733 125.374405,159.594543 
	C125.561333,161.700943 125.748253,163.807343 125.821014,166.649551 
	C126.205719,167.788376 126.590416,168.927185 127.017426,170.782593 
	C128.676117,175.569427 132.103867,177.467575 137.058762,177.137894 
	C142.647324,176.766037 147.361038,174.844971 150.538345,170.011627 
	C150.651520,169.839478 150.102554,169.232086 149.906860,168.166580 
	C149.604446,167.092911 149.302017,166.019241 149.113617,164.114029 
	C149.052750,162.719147 148.991898,161.324280 149.107681,159.161026 
	C149.068329,158.113708 149.028961,157.066406 149.276199,155.426514 
	C148.796753,154.235184 148.620529,152.330185 147.785599,151.975418 
	C144.069977,150.396591 140.246460,148.859543 136.309021,148.069672 
	C131.604187,147.125900 128.412262,149.420670 126.825127,154.750778 
	C126.523445,155.823761 126.221771,156.896744 125.984451,157.999130 
	C125.984451,157.999130 126.010040,157.933182 125.580032,158.007858 
M174.752274,156.857773 
	C174.821854,157.911118 174.891434,158.964462 174.809952,160.784714 
	C174.789581,161.825623 174.769226,162.866531 174.239029,164.385590 
	C174.222153,165.560181 174.205276,166.734787 174.052414,168.605469 
	C176.897064,173.771851 181.475800,176.258530 187.119339,177.248901 
	C193.484680,178.365967 196.872467,176.337692 199.401321,169.327011 
	C199.634460,168.106201 199.867599,166.885391 200.352081,165.040741 
	C200.254517,162.795197 200.156952,160.549637 200.093140,157.581467 
	C199.566757,156.309555 199.040359,155.037643 198.368820,153.029190 
	C196.835770,149.012375 193.775467,147.422226 189.707687,148.064499 
	C183.883392,148.984116 177.898178,149.807419 174.752274,156.857773 
M109.833046,38.849258 
	C111.384201,37.483261 112.935356,36.117260 114.638016,34.617844 
	C107.142036,25.343786 97.552757,22.988192 87.324181,25.383184 
	C76.810478,27.844938 70.051781,35.213451 68.014626,46.071766 
	C65.940201,57.128674 69.896622,66.049652 78.904137,72.562172 
	C86.762985,78.244186 88.191452,77.551170 90.581291,67.525665 
	C94.610153,56.636776 101.022934,47.318604 109.833046,38.849258 
M218.119888,41.809540 
	C218.588806,42.213276 219.057724,42.617008 219.918976,43.611725 
	C224.925217,52.081017 229.931458,60.550308 234.996994,69.806885 
	C237.005035,78.095665 238.057343,78.596703 245.976273,75.034592 
	C260.723846,68.400818 266.359558,51.336201 258.220123,37.459457 
	C252.997925,28.556240 244.900070,23.951080 234.704849,24.268269 
	C225.476517,24.555374 217.909988,28.643755 212.712250,37.265186 
	C214.568817,38.766708 216.210541,40.094479 218.119888,41.809540 
M219.892426,51.474060 
	C219.632904,51.235958 219.373398,50.997856 218.820084,50.169567 
	C217.557999,48.629032 216.409897,46.975990 215.016907,45.564659 
	C190.032074,20.250721 146.773575,17.168837 117.922569,38.614319 
	C80.672173,66.303223 83.962067,120.104332 124.302628,142.243286 
	C125.958015,143.151764 128.213120,144.223877 129.797241,143.790024 
	C136.945633,141.832184 143.217178,143.799255 149.454712,146.987228 
	C150.732697,147.640396 152.766586,148.088257 153.904404,147.524841 
	C159.258759,144.873459 164.536499,145.492004 170.287338,147.758698 
	C172.161179,147.739685 174.408966,148.387497 175.842590,147.583496 
	C181.357452,144.490631 187.014343,142.763123 193.425461,142.990204 
	C196.315811,143.092575 199.705460,142.669540 202.093399,141.213562 
	C219.410629,130.654846 230.171402,115.347153 232.636292,95.105209 
	C234.578445,79.156105 230.727493,64.444679 219.996201,51.996632 
	C219.996201,51.996632 220.033920,51.989262 219.892426,51.474060 
M217.806793,153.456970 
	C217.384552,153.493073 216.962311,153.529160 216.540070,153.565262 
	C216.931915,153.826416 217.323776,154.087585 217.769196,155.051147 
	C217.941849,155.517792 218.023651,156.048233 218.300171,156.441910 
	C233.425613,177.977203 242.295227,201.473831 241.058426,228.217117 
	C241.004501,229.383240 241.989136,231.334595 242.947174,231.690933 
	C249.282806,234.047302 255.743607,236.067184 262.425232,238.283386 
	C265.146210,231.504471 270.806824,225.646530 264.631317,218.359833 
	C262.699463,216.080383 261.093811,213.420059 258.828613,211.553131 
	C255.770554,209.032745 254.796707,205.869324 253.884140,202.238861 
	C248.608521,181.251144 236.281097,165.369888 217.806793,153.456970 
M15.410385,223.419983 
	C14.907029,224.577408 14.403672,225.734818 13.393133,227.396423 
	C12.306495,230.355209 10.754237,233.231033 10.209774,236.286438 
	C6.991001,254.349503 9.069125,272.055603 14.749255,289.346008 
	C16.849703,295.739777 21.814989,299.709961 28.137503,301.861206 
	C36.761398,304.795532 45.741051,304.506714 54.187233,302.272522 
	C68.116425,298.587952 81.827415,293.959686 95.395721,289.077087 
	C102.774414,286.421844 109.669426,282.422455 117.166443,278.846252 
	C111.987656,275.202026 107.522270,272.059814 102.714256,268.353882 
	C93.628670,260.173279 87.225578,250.316071 84.523788,238.016632 
	C78.441422,240.030151 72.917007,241.801956 67.445343,243.723938 
	C66.482918,244.062012 65.660370,244.951202 64.917862,245.724701 
	C63.929871,246.753922 63.083672,247.919281 62.176571,249.026154 
	C61.291164,247.743393 60.214741,246.551697 59.552525,245.162537 
	C56.202232,238.134445 53.688900,230.588577 49.531219,224.088287 
	C40.160511,209.437744 26.524910,209.267441 15.410385,223.419983 
M204.934631,156.802643 
	C205.129074,158.456116 205.529800,160.115524 205.482468,161.762039 
	C205.270752,169.125443 204.204346,176.621765 197.200653,180.476852 
	C190.643509,184.086121 183.242462,183.137726 177.405487,178.566483 
	C172.998322,175.114975 169.140259,173.163467 163.806046,175.717316 
	C162.991623,176.107254 161.679337,176.107986 160.858246,175.726761 
	C155.887527,173.418762 152.439941,176.005600 148.402008,178.585175 
	C135.938965,186.547058 123.440475,181.826431 121.325241,168.182632 
	C120.520805,162.993820 122.119316,157.437180 122.580536,152.044571 
	C122.715759,150.463562 122.706184,148.870148 122.762962,147.282425 
	C121.317802,148.040512 119.515312,148.472305 118.480690,149.605286 
	C100.970963,168.779724 90.602119,191.232452 88.207367,217.156616 
	C86.135406,239.586411 95.974686,261.012817 116.179375,271.683441 
	C117.602211,272.533875 118.968414,273.502136 120.456314,274.217163 
	C145.990341,286.488159 171.883514,287.346893 198.270966,276.946899 
	C222.359848,267.452850 240.195618,246.692810 236.136749,214.028961 
	C233.317291,191.339081 224.285034,171.613388 210.251434,153.921204 
	C208.172195,151.299896 205.646408,149.032776 203.327225,146.601776 
	C202.812469,146.939560 202.297729,147.277328 201.782974,147.615097 
	C202.810104,150.398346 203.837250,153.181595 204.934631,156.802643 
M64.932106,214.467422 
	C55.433933,226.474197 57.200703,227.229263 63.777374,239.900879 
	C68.750381,238.249741 73.700058,236.296188 78.816849,235.004684 
	C82.983879,233.952881 84.265701,231.953934 83.951180,227.652267 
	C82.491737,207.692139 87.671616,189.187927 97.061066,171.735413 
	C99.603477,167.009720 102.385071,162.412704 105.311661,157.312622 
	C104.099281,157.312622 103.567001,157.158035 103.211784,157.343155 
	C102.334366,157.800476 101.469421,158.333344 100.719429,158.975876 
	C87.425781,170.364761 76.841171,183.674057 72.981575,201.126770 
	C71.790932,206.510742 69.456879,210.562592 64.932106,214.467422 
M154.028870,164.878098 
	C154.992142,169.811234 158.520187,171.068054 162.874680,170.818741 
	C168.471924,170.498276 170.139725,167.643372 170.001160,159.070557 
	C169.901077,152.878189 167.567276,150.494156 161.698547,150.589157 
	C156.047653,150.680634 154.046783,152.874359 153.995331,159.053665 
	C153.981567,160.706772 153.998413,162.360153 154.028870,164.878098 
z"/>
<path fill="#D79860" opacity="1.000000" stroke="none" 
	d="
M115.776695,271.109070 
	C95.974686,261.012817 86.135406,239.586411 88.207367,217.156616 
	C90.602119,191.232452 100.970963,168.779724 118.480690,149.605286 
	C119.515312,148.472305 121.317802,148.040512 122.762970,147.282425 
	C122.706184,148.870148 122.715759,150.463562 122.580536,152.044571 
	C122.119316,157.437180 120.520805,162.993820 121.325241,168.182632 
	C123.440475,181.826431 135.938965,186.547058 148.402008,178.585175 
	C152.439941,176.005600 155.887527,173.418762 160.858246,175.726761 
	C161.679337,176.107986 162.991623,176.107254 163.806046,175.717316 
	C169.140259,173.163467 172.998322,175.114975 177.405487,178.566483 
	C183.242462,183.137726 190.643509,184.086121 197.200653,180.476852 
	C204.204346,176.621765 205.270752,169.125443 205.482468,161.762039 
	C205.529800,160.115524 205.129074,158.456116 205.196320,156.576019 
	C208.346054,162.325317 211.631821,168.145126 214.049591,174.305603 
	C222.196259,195.063309 226.332153,216.324020 219.912903,238.402786 
	C215.319778,254.200653 206.812469,266.989258 191.154739,273.964325 
	C175.099884,281.116302 158.431946,279.980835 141.805298,277.301758 
	C133.024475,275.886841 124.446335,273.213989 115.776695,271.109070 
M157.550049,253.639389 
	C161.890488,253.043427 160.561340,250.014313 159.792419,247.674255 
	C159.557419,246.959045 157.558090,246.823563 156.366760,246.422577 
	C156.300247,248.498199 156.211334,250.573715 156.200317,252.649643 
	C156.199142,252.868118 156.656754,253.089050 157.550049,253.639389 
M155.693741,230.236969 
	C155.547852,232.648773 155.401962,235.060593 155.256073,237.472397 
	C156.266846,237.304230 157.958893,237.425232 158.173676,236.919220 
	C159.259918,234.360016 160.203522,231.574097 155.693741,230.236969 
M157.368835,198.999847 
	C156.457718,200.953476 155.546600,202.907104 154.635483,204.860733 
	C155.945023,205.139542 157.254547,205.418335 158.564087,205.697144 
	C158.988235,203.472549 161.405014,201.112762 157.368835,198.999847 
M159.625854,183.219131 
	C158.521759,185.249130 157.388596,187.265884 156.433441,189.363708 
	C156.399750,189.437714 158.133102,190.316284 159.042892,190.819870 
	C159.684372,188.821686 160.370972,186.835831 160.923981,184.813446 
	C161.018967,184.466095 160.544800,183.963120 159.625854,183.219131 
M157.945435,263.865845 
	C157.968750,264.527069 157.754715,265.341858 158.063141,265.818665 
	C158.779678,266.926361 159.666397,267.975372 160.693588,268.781158 
	C160.869431,268.919098 162.767197,267.624359 162.695160,267.183197 
	C162.391678,265.324707 161.643219,263.538910 161.057587,261.726501 
	C160.053558,262.179413 159.049530,262.632355 157.945435,263.865845 
M153.935913,218.588501 
	C154.765961,219.694351 155.596008,220.800201 156.426056,221.906052 
	C156.974609,220.683670 157.954117,219.460876 157.952927,218.239044 
	C157.951675,216.967438 157.003464,215.696777 156.469330,214.425690 
	C155.625183,215.538071 154.781021,216.650452 153.935913,218.588501 
z"/>
<path fill="#D79860" opacity="1.000000" stroke="none" 
	d="
M169.910049,147.137131 
	C164.536499,145.492004 159.258759,144.873459 153.904404,147.524841 
	C152.766586,148.088257 150.732697,147.640396 149.454712,146.987228 
	C143.217178,143.799255 136.945633,141.832184 129.797241,143.790024 
	C128.213120,144.223877 125.958015,143.151764 124.302628,142.243286 
	C83.962067,120.104332 80.672173,66.303223 117.922569,38.614319 
	C146.773575,17.168837 190.032074,20.250721 215.016907,45.564659 
	C216.409897,46.975990 217.557999,48.629032 219.019623,50.735798 
	C219.490738,51.531109 219.762329,51.760189 220.033920,51.989265 
	C220.033920,51.989262 219.996201,51.996632 219.990387,52.388840 
	C220.740036,55.651890 221.478790,58.527256 222.253876,61.392803 
	C225.971191,75.136452 227.923325,88.824997 222.718994,102.746155 
	C215.673431,121.592506 201.802490,133.283951 183.841980,140.931183 
	C179.165085,142.922531 174.552292,145.064392 169.910049,147.137131 
M156.105881,83.175468 
	C151.383591,85.119469 146.212433,86.379852 142.020828,89.132088 
	C127.871361,98.422745 127.945061,115.201202 141.810745,124.883827 
	C153.552032,133.082962 172.398529,133.091187 184.164841,124.902298 
	C192.751541,118.926331 196.760605,109.632004 193.618134,100.833511 
	C190.706390,92.680992 184.377655,87.210854 176.132278,85.112579 
	C169.976730,83.546127 163.387131,83.685341 156.105881,83.175468 
M187.802124,80.564430 
	C187.637482,82.338654 187.020096,84.217155 187.399872,85.865982 
	C188.263626,89.616127 192.267029,91.204041 195.102539,89.234383 
	C197.902847,87.289177 198.672501,82.223625 196.316925,79.408829 
	C193.534882,76.084442 190.685699,76.501160 187.802124,80.564430 
M135.332565,89.011230 
	C135.964508,87.886925 137.288055,86.624306 137.096146,85.664764 
	C136.562317,82.995636 135.762634,80.202141 134.257614,78.015495 
	C133.819336,77.378700 129.404831,78.098404 128.991150,79.097878 
	C127.973244,81.557121 127.464172,84.750412 128.160507,87.256767 
	C128.944839,90.079857 131.820480,90.777405 135.332565,89.011230 
z"/>
<path fill="#CF9051" opacity="1.000000" stroke="none" 
	d="
M277.937744,301.658051 
	C277.488434,301.681305 277.039154,301.704529 276.100616,301.517761 
	C275.353760,301.147064 275.074493,301.087433 274.773560,301.128845 
	C264.357513,298.437195 253.690125,296.453583 243.591248,292.868530 
	C231.888824,288.714142 220.686035,283.152313 209.324829,278.226837 
	C216.211334,271.888519 223.506866,266.700165 228.742645,259.921021 
	C233.874664,253.276199 236.910477,245.012405 241.448196,236.348068 
	C246.987442,238.322128 254.319382,240.014175 260.649353,243.516922 
	C264.820831,245.825241 265.294159,244.189972 266.639404,241.350754 
	C269.830688,234.615356 272.398468,227.421326 276.581909,221.352737 
	C285.691315,208.138367 299.265167,208.015854 308.517090,220.703247 
	C306.124939,221.684479 304.017242,222.321503 301.546509,222.966873 
	C300.457092,222.982300 299.730774,222.989365 298.697021,222.848663 
	C293.747864,222.198486 291.804596,224.434952 291.952820,229.194031 
	C291.553467,230.000336 291.278290,230.532867 290.633606,231.057648 
	C286.183014,232.248779 284.818573,234.896149 286.047333,239.308807 
	C286.020508,240.435532 286.007141,241.186798 285.615967,241.954971 
	C281.001251,243.986710 280.268860,246.592667 282.975037,250.428162 
	C282.989899,251.541962 282.995575,252.284546 282.621094,253.026367 
	C278.006226,254.744827 277.205536,257.557037 279.947327,261.510376 
	C279.954498,262.861267 279.944336,263.843872 279.559143,264.919312 
	C275.986420,267.620697 275.607239,270.309021 278.964844,273.463196 
	C278.980621,274.544617 278.986694,275.265625 278.616943,276.048828 
	C274.552612,278.985596 275.019806,281.985962 277.975586,285.420197 
	C277.976898,286.496521 277.972931,287.214081 277.641907,288.128418 
	C275.198273,291.402679 274.931152,294.334808 277.998474,297.396118 
	C277.979095,299.077606 277.958435,300.367828 277.937744,301.658051 
z"/>
<path fill="#C07D42" opacity="1.000000" stroke="none" 
	d="
M103.056877,268.917603 
	C107.522270,272.059814 111.987656,275.202026 117.166443,278.846252 
	C109.669426,282.422455 102.774414,286.421844 95.395721,289.077087 
	C81.827415,293.959686 68.116425,298.587952 54.187233,302.272522 
	C45.741051,304.506714 36.761398,304.795532 28.137503,301.861206 
	C21.814989,299.709961 16.849703,295.739777 14.749255,289.346008 
	C9.069125,272.055603 6.991001,254.349503 10.209774,236.286438 
	C10.754237,233.231033 12.306495,230.355209 13.967596,227.321564 
	C18.984287,229.928070 21.857924,228.822495 23.359127,223.987122 
	C24.463406,224.328278 25.232018,224.665970 26.007288,225.368744 
	C27.336180,228.873978 28.201681,232.627625 33.308327,231.174347 
	C33.692619,231.908112 33.847069,232.460861 34.000542,233.418854 
	C34.122551,237.280655 33.968365,240.930313 38.988396,241.347717 
	C38.997467,242.455841 39.001961,243.194611 38.863029,244.269958 
	C37.733139,248.016769 38.255543,250.755905 42.022217,252.425110 
	C42.012356,253.554016 42.009876,254.306686 42.006020,255.479828 
	C42.396923,258.579987 40.544041,262.208740 45.050144,263.516632 
	C45.036850,264.888824 45.039597,265.886963 44.762817,267.167908 
	C44.121483,270.397583 42.347996,273.817963 47.027145,275.451172 
	C47.028805,276.849030 47.042305,277.865692 46.675041,278.988251 
	C44.644020,282.191040 43.108467,285.263428 48.057560,287.342468 
	C49.762550,287.979767 51.599548,288.871918 52.977985,288.406372 
	C66.445465,283.857819 79.880432,279.202148 93.219154,274.290497 
	C96.687599,273.013336 99.787621,270.735687 103.056877,268.917603 
M49.474720,295.946228 
	C49.616146,295.142822 50.137512,294.115570 49.822567,293.581085 
	C49.091129,292.339752 47.956074,291.336243 46.984608,290.236359 
	C46.348579,292.244659 45.712551,294.252960 45.076530,296.261261 
	C46.420662,296.388611 47.764793,296.515961 49.474720,295.946228 
z"/>
<path fill="#D08F50" opacity="1.000000" stroke="none" 
	d="
M102.885559,268.635742 
	C99.787621,270.735687 96.687599,273.013336 93.219154,274.290497 
	C79.880432,279.202148 66.445465,283.857819 52.977985,288.406372 
	C51.599548,288.871918 49.762550,287.979767 48.241623,286.996094 
	C48.812923,283.653961 50.624638,280.799011 47.055801,278.882355 
	C47.042305,277.865692 47.028805,276.849030 47.342564,275.265259 
	C49.746284,271.100952 49.727673,268.208344 45.042343,266.885101 
	C45.039597,265.886963 45.036850,264.888824 45.348106,263.317444 
	C47.658997,258.414673 46.474373,255.923737 42.007393,255.059341 
	C42.009876,254.306686 42.012356,253.554016 42.323708,252.241272 
	C44.633846,247.486725 43.472183,245.004639 39.006451,243.933365 
	C39.001961,243.194611 38.997467,242.455841 39.131687,241.041855 
	C39.448498,236.529510 38.724869,233.338531 34.001518,233.013596 
	C33.847069,232.460861 33.692619,231.908112 33.302078,230.780060 
	C33.020454,225.333633 29.877308,224.670410 26.000626,225.003662 
	C25.232018,224.665970 24.463406,224.328278 23.030926,223.839401 
	C20.214590,223.471008 18.062124,223.253799 15.909658,223.036591 
	C26.524910,209.267441 40.160511,209.437744 49.531219,224.088287 
	C53.688900,230.588577 56.202232,238.134445 59.552525,245.162537 
	C60.214741,246.551697 61.291164,247.743393 62.176567,249.026154 
	C63.083672,247.919281 63.929871,246.753922 64.917862,245.724701 
	C65.660370,244.951202 66.482918,244.062012 67.445343,243.723938 
	C72.917007,241.801956 78.441422,240.030151 84.523788,238.016632 
	C87.225578,250.316071 93.628670,260.173279 102.885559,268.635742 
z"/>
<path fill="#C07D42" opacity="1.000000" stroke="none" 
	d="
M283.001282,253.027145 
	C282.995575,252.284546 282.989899,251.541962 283.334778,250.369064 
	C287.185425,248.059692 287.668060,245.310028 285.993744,241.938065 
	C286.007141,241.186798 286.020508,240.435532 286.412903,239.323883 
	C291.047302,237.851303 292.780457,235.394241 291.003113,231.065399 
	C291.278290,230.532867 291.553467,230.000336 292.329285,229.219910 
	C296.744965,228.898880 298.771423,226.874207 299.004456,222.996429 
	C299.730774,222.989365 300.457092,222.982300 301.722839,223.274506 
	C304.941315,227.266556 308.276947,226.781784 311.804871,225.073639 
	C319.131195,240.979004 317.612915,257.396515 314.585480,273.886108 
	C314.017822,276.977997 313.291199,280.046967 312.498962,283.090332 
	C309.477020,294.699219 301.286499,301.400970 289.325714,301.953430 
	C285.847626,302.114075 282.352325,301.901764 278.401306,301.759216 
	C277.958435,300.367828 277.979095,299.077606 278.326904,297.208008 
	C280.773651,293.544708 281.084656,290.603210 277.968994,287.931641 
	C277.972931,287.214081 277.976898,286.496521 278.297546,285.241638 
	C281.707886,281.927277 282.279541,279.040741 278.992767,275.986664 
	C278.986694,275.265625 278.980621,274.544617 279.283081,273.282135 
	C282.548187,270.225647 283.326263,267.616333 279.934204,264.826477 
	C279.944336,263.843872 279.954498,262.861267 280.311554,261.429932 
	C283.902832,259.055420 284.433472,256.330353 283.001282,253.027145 
z"/>
<path fill="#BF7D43" opacity="1.000000" stroke="none" 
	d="
M115.978035,271.396240 
	C124.446335,273.213989 133.024475,275.886841 141.805298,277.301758 
	C158.431946,279.980835 175.099884,281.116302 191.154739,273.964325 
	C206.812469,266.989258 215.319778,254.200653 219.912903,238.402786 
	C226.332153,216.324020 222.196259,195.063309 214.049591,174.305603 
	C211.631821,168.145126 208.346054,162.325317 205.161194,156.157104 
	C203.837250,153.181595 202.810104,150.398346 201.782974,147.615097 
	C202.297729,147.277328 202.812469,146.939560 203.327225,146.601776 
	C205.646408,149.032776 208.172195,151.299896 210.251434,153.921204 
	C224.285034,171.613388 233.317291,191.339081 236.136749,214.028961 
	C240.195618,246.692810 222.359848,267.452850 198.270966,276.946899 
	C171.883514,287.346893 145.990341,286.488159 120.456314,274.217163 
	C118.968414,273.502136 117.602211,272.533875 115.978035,271.396240 
z"/>
<path fill="#BE7D42" opacity="1.000000" stroke="none" 
	d="
M218.121445,153.850571 
	C236.281097,165.369888 248.608521,181.251144 253.884140,202.238861 
	C254.796707,205.869324 255.770554,209.032745 258.828613,211.553131 
	C261.093811,213.420059 262.699463,216.080383 264.631317,218.359833 
	C270.806824,225.646530 265.146210,231.504471 262.425232,238.283386 
	C255.743607,236.067184 249.282806,234.047302 242.947174,231.690933 
	C241.989136,231.334595 241.004501,229.383240 241.058426,228.217117 
	C242.295227,201.473831 233.425613,177.977203 218.300171,156.441910 
	C218.023651,156.048233 217.941849,155.517792 217.842667,154.574432 
	C217.916138,154.097702 218.121445,153.850571 218.121445,153.850571 
z"/>
<path fill="#CD8E51" opacity="1.000000" stroke="none" 
	d="
M65.174561,214.203461 
	C69.456879,210.562592 71.790932,206.510742 72.981575,201.126770 
	C76.841171,183.674057 87.425781,170.364761 100.719429,158.975876 
	C101.469421,158.333344 102.334366,157.800476 103.211784,157.343155 
	C103.567001,157.158035 104.099281,157.312622 105.311661,157.312622 
	C102.385071,162.412704 99.603477,167.009720 97.061066,171.735413 
	C87.671616,189.187927 82.491737,207.692139 83.951180,227.652267 
	C84.265701,231.953934 82.983879,233.952881 78.816849,235.004684 
	C73.700058,236.296188 68.750381,238.249741 63.777374,239.900879 
	C57.200703,227.229263 55.433933,226.474197 65.174561,214.203461 
z"/>
<path fill="#BE7D43" opacity="1.000000" stroke="none" 
	d="
M170.098694,147.447906 
	C174.552292,145.064392 179.165085,142.922531 183.841980,140.931183 
	C201.802490,133.283951 215.673431,121.592506 222.718994,102.746155 
	C227.923325,88.824997 225.971191,75.136452 222.253876,61.392803 
	C221.478790,58.527256 220.740036,55.651890 220.002991,52.374176 
	C230.727493,64.444679 234.578445,79.156105 232.636292,95.105209 
	C230.171402,115.347153 219.410629,130.654846 202.093399,141.213562 
	C199.705460,142.669540 196.315811,143.092575 193.425461,142.990204 
	C187.014343,142.763123 181.357452,144.490631 175.842590,147.583496 
	C174.408966,148.387497 172.161179,147.739685 170.098694,147.447906 
z"/>
<path fill="#C07D42" opacity="1.000000" stroke="none" 
	d="
M234.937714,69.019592 
	C229.931458,60.550308 224.925217,52.081017 220.132034,43.282837 
	C223.560806,42.201477 224.225357,39.888191 224.243378,36.900536 
	C225.025574,36.523163 225.541916,36.261959 226.382126,36.143097 
	C230.117126,37.238029 232.831161,36.642475 234.511749,32.951389 
	C235.859146,32.954010 236.839172,32.941261 237.908600,33.290539 
	C239.712250,36.501808 241.976685,37.638851 245.442841,35.996063 
	C246.168137,36.410713 246.599625,36.779800 247.029968,37.525055 
	C247.357117,41.631931 248.250183,44.887390 252.964874,45.310089 
	C252.998840,46.423950 253.018753,47.166611 252.710449,48.111534 
	C252.269821,50.918728 252.157394,53.523655 252.034805,56.493843 
	C252.003845,57.589607 251.983063,58.320110 251.592133,59.038261 
	C247.375320,59.750530 245.672943,62.073963 245.765686,66.079666 
	C244.684952,66.483360 243.895493,66.760445 242.844681,66.770248 
	C239.940781,65.623848 237.627762,65.480293 236.627106,69.014694 
	C235.838837,69.012787 235.388275,69.016190 234.937714,69.019592 
z"/>
<path fill="#CD8D4F" opacity="1.000000" stroke="none" 
	d="
M243.106033,67.037529 
	C243.895493,66.760445 244.684952,66.483360 246.126190,66.096764 
	C249.915604,64.728508 253.552628,63.842983 251.962296,59.050617 
	C251.983063,58.320110 252.003845,57.589607 252.424393,56.459534 
	C253.863358,54.744808 255.703018,53.440720 255.721420,52.111439 
	C255.740616,50.723354 254.006363,49.311012 253.038666,47.909271 
	C253.018753,47.166611 252.998840,46.423950 253.102859,45.010666 
	C253.735199,39.725628 251.464966,37.505203 247.031113,37.148888 
	C246.599625,36.779800 246.168137,36.410713 245.411743,35.623550 
	C243.632584,31.355864 241.446777,29.841209 237.819183,32.928513 
	C236.839172,32.941261 235.859146,32.954010 234.392487,32.599510 
	C229.389725,30.074823 227.097351,31.175648 226.058258,36.000755 
	C225.541916,36.261959 225.025574,36.523163 223.855484,36.881538 
	C221.418579,38.459896 219.635422,39.941078 217.852264,41.422256 
	C216.210541,40.094479 214.568817,38.766708 212.712250,37.265186 
	C217.909988,28.643755 225.476517,24.555374 234.704849,24.268269 
	C244.900070,23.951080 252.997925,28.556240 258.220123,37.459457 
	C266.359558,51.336201 260.723846,68.400818 245.976273,75.034592 
	C238.057343,78.596703 237.005035,78.095665 234.967346,69.413239 
	C235.388275,69.016190 235.838837,69.012787 236.803604,69.318436 
	C240.785187,72.201309 242.529953,70.925369 243.106033,67.037529 
z"/>
<path fill="#CD8D4F" opacity="1.000000" stroke="none" 
	d="
M90.117775,68.033974 
	C88.191452,77.551170 86.762985,78.244186 78.904137,72.562172 
	C69.896622,66.049652 65.940201,57.128674 68.014626,46.071766 
	C70.051781,35.213451 76.810478,27.844938 87.324181,25.383184 
	C97.552757,22.988192 107.142036,25.343786 114.638016,34.617844 
	C112.935356,36.117260 111.384201,37.483261 109.225983,38.854042 
	C106.796616,37.555824 104.974327,36.252827 103.111473,34.587517 
	C101.165527,30.630575 98.773422,28.799236 94.632530,31.997009 
	C93.549782,31.982309 92.828026,31.966215 91.839706,31.683369 
	C88.114731,30.633743 85.156754,30.907469 83.740952,35.122173 
	C82.982948,35.832848 82.491417,36.421280 81.626358,37.006706 
	C76.943886,38.118507 75.179840,40.585197 77.012695,45.302040 
	C77.001259,46.082352 76.999390,46.528316 76.616364,47.030769 
	C75.516457,49.169594 74.340836,51.242695 74.298485,53.338688 
	C74.280975,54.205727 76.691856,55.121819 77.994705,56.388485 
	C77.993713,57.507164 77.996330,58.252956 77.862640,59.296326 
	C77.853249,63.910400 80.050636,65.803558 84.315140,65.141953 
	C86.455154,66.197578 88.286461,67.115776 90.117775,68.033974 
z"/>
<path fill="#C07D42" opacity="1.000000" stroke="none" 
	d="
M92.106270,31.950119 
	C92.828026,31.966215 93.549782,31.982309 94.684830,32.358410 
	C97.198555,35.570812 99.716202,36.917316 103.152031,34.949829 
	C104.974327,36.252827 106.796616,37.555824 108.933472,39.026672 
	C101.022934,47.318604 94.610153,56.636776 90.349533,67.779816 
	C88.286461,67.115776 86.455154,66.197578 84.308464,64.771210 
	C83.341316,60.975361 81.552284,58.982601 77.998947,58.998753 
	C77.996330,58.252956 77.993713,57.507164 78.142014,56.035732 
	C77.861122,52.531490 77.429321,49.752884 76.997520,46.974277 
	C76.999390,46.528316 77.001259,46.082352 77.356705,45.271519 
	C80.778687,43.164387 83.578735,41.276352 81.999878,37.009712 
	C82.491417,36.421280 82.982948,35.832848 84.080673,35.279812 
	C88.066895,36.193062 91.215340,36.560299 92.106270,31.950119 
z"/>
<path fill="#F49BCE" opacity="1.000000" stroke="none" 
	d="
M154.015030,164.445740 
	C153.998413,162.360153 153.981567,160.706772 153.995331,159.053665 
	C154.046783,152.874359 156.047653,150.680634 161.698547,150.589157 
	C167.567276,150.494156 169.901077,152.878189 170.001160,159.070557 
	C170.139725,167.643372 168.471924,170.498276 162.874680,170.818741 
	C158.520187,171.068054 154.992142,169.811234 154.015030,164.445740 
z"/>
<path fill="#E17EBB" opacity="1.000000" stroke="none" 
	d="
M174.748856,163.907440 
	C174.769226,162.866531 174.789581,161.825623 175.288208,160.367599 
	C183.768005,157.983719 191.776230,156.115738 200.059372,158.304092 
	C200.156952,160.549637 200.254517,162.795197 199.799347,165.440369 
	C190.840225,168.243942 182.778198,166.282791 174.748856,163.907440 
z"/>
<path fill="#E07CBA" opacity="1.000000" stroke="none" 
	d="
M148.931030,159.929398 
	C148.991898,161.324280 149.052750,162.719147 148.646484,164.552689 
	C140.764633,165.298813 133.349915,165.606277 125.935181,165.913742 
	C125.748253,163.807343 125.561333,161.700943 125.495743,159.074844 
	C125.787689,158.372864 125.918671,158.165543 126.010040,157.933182 
	C126.010040,157.933182 125.984451,157.999130 126.421616,158.048065 
	C134.216187,158.707794 141.573608,159.318604 148.931030,159.929398 
z"/>
<path fill="#DC79B6" opacity="1.000000" stroke="none" 
	d="
M198.974197,169.939423 
	C196.872467,176.337692 193.484680,178.365967 187.119339,177.248901 
	C181.475800,176.258530 176.897064,173.771851 174.496002,168.323715 
	C182.821442,170.317047 190.729294,172.262970 198.974197,169.939423 
z"/>
<path fill="#DD7AB7" opacity="1.000000" stroke="none" 
	d="
M149.862183,168.827560 
	C150.102554,169.232086 150.651520,169.839478 150.538345,170.011627 
	C147.361038,174.844971 142.647324,176.766037 137.058762,177.137894 
	C132.103867,177.467575 128.676117,175.569427 127.410324,170.468201 
	C135.156204,169.711746 142.509201,169.269653 149.862183,168.827560 
z"/>
<path fill="#DD7DB8" opacity="1.000000" stroke="none" 
	d="
M127.178177,154.168335 
	C128.412262,149.420670 131.604187,147.125900 136.309021,148.069672 
	C140.246460,148.859543 144.069977,150.396591 147.785599,151.975418 
	C148.620529,152.330185 148.796753,154.235184 148.746155,155.654419 
	C141.203461,155.310989 134.190826,154.739670 127.178177,154.168335 
z"/>
<path fill="#FBF3F8" opacity="1.000000" stroke="none" 
	d="
M199.187759,169.633209 
	C190.729294,172.262970 182.821442,170.317047 174.563995,167.975677 
	C174.205276,166.734787 174.222153,165.560181 174.493942,164.146515 
	C182.778198,166.282791 190.840225,168.243942 199.673676,165.752289 
	C199.867599,166.885391 199.634460,168.106201 199.187759,169.633209 
z"/>
<path fill="#FBF2F7" opacity="1.000000" stroke="none" 
	d="
M200.076263,157.942780 
	C191.776230,156.115738 183.768005,157.983719 175.363739,159.984146 
	C174.891434,158.964462 174.821854,157.911118 175.243362,156.421509 
	C183.191116,153.844315 190.709747,152.339432 198.513977,153.765732 
	C199.040359,155.037643 199.566757,156.309555 200.076263,157.942780 
z"/>
<path fill="#D87BB5" opacity="1.000000" stroke="none" 
	d="
M198.441406,153.397461 
	C190.709747,152.339432 183.191116,153.844315 175.331665,156.031387 
	C177.898178,149.807419 183.883392,148.984116 189.707687,148.064499 
	C193.775467,147.422226 196.835770,149.012375 198.441406,153.397461 
z"/>
<path fill="#FBF1F7" opacity="1.000000" stroke="none" 
	d="
M127.001648,154.459564 
	C134.190826,154.739670 141.203461,155.310989 148.602844,155.950699 
	C149.028961,157.066406 149.068329,158.113708 149.019348,159.545212 
	C141.573608,159.318604 134.216187,158.707794 126.389435,158.033356 
	C126.221771,156.896744 126.523445,155.823761 127.001648,154.459564 
z"/>
<path fill="#FBF4F8" opacity="1.000000" stroke="none" 
	d="
M149.884521,168.497070 
	C142.509201,169.269653 135.156204,169.711746 127.389160,170.109924 
	C126.590416,168.927185 126.205719,167.788376 125.878098,166.281647 
	C133.349915,165.606277 140.764633,165.298813 148.589478,164.968460 
	C149.302017,166.019241 149.604446,167.092911 149.884521,168.497070 
z"/>
<path fill="#A3642F" opacity="1.000000" stroke="none" 
	d="
M15.660021,223.228287 
	C18.062124,223.253799 20.214590,223.471008 22.695259,223.835938 
	C21.857924,228.822495 18.984287,229.928070 14.221188,227.069458 
	C14.403672,225.734818 14.907029,224.577408 15.660021,223.228287 
z"/>
<path fill="#A2642F" opacity="1.000000" stroke="none" 
	d="
M311.733185,224.780548 
	C308.276947,226.781784 304.941315,227.266556 302.085938,223.266144 
	C304.017242,222.321503 306.124939,221.684479 308.641479,221.018616 
	C309.050385,220.989777 308.997345,221.001984 309.086365,221.202271 
	C309.367035,221.682877 309.623383,221.878387 309.944427,221.989105 
	C310.516785,222.821899 311.089142,223.654678 311.733185,224.780548 
z"/>
<path fill="#A4632E" opacity="1.000000" stroke="none" 
	d="
M217.986084,41.615898 
	C219.635422,39.941078 221.418579,38.459896 223.589630,36.997711 
	C224.225357,39.888191 223.560806,42.201477 219.935867,42.987350 
	C219.057724,42.617008 218.588806,42.213276 217.986084,41.615898 
z"/>
<path fill="#BE7D42" opacity="1.000000" stroke="none" 
	d="
M217.815887,154.223221 
	C217.323776,154.087585 216.931915,153.826416 216.540070,153.565262 
	C216.962311,153.529160 217.384552,153.493073 217.964111,153.653778 
	C218.121445,153.850571 217.916138,154.097702 217.815887,154.223221 
z"/>
<path fill="#CF9051" opacity="1.000000" stroke="none" 
	d="
M309.857666,221.758286 
	C309.623383,221.878387 309.367035,221.682877 309.081909,221.175537 
	C309.315216,221.052368 309.576019,221.245361 309.857666,221.758286 
z"/>
<path fill="#FBF1F7" opacity="1.000000" stroke="none" 
	d="
M125.795036,157.970520 
	C125.918671,158.165543 125.787689,158.372864 125.466911,158.662598 
	C125.198021,158.444733 125.285789,158.190674 125.795036,157.970520 
z"/>
<path fill="#BE7D43" opacity="1.000000" stroke="none" 
	d="
M219.963165,51.731667 
	C219.762329,51.760189 219.490738,51.531109 219.166519,51.030891 
	C219.373398,50.997856 219.632904,51.235958 219.963165,51.731667 
z"/>
<path fill="#C07D42" opacity="1.000000" stroke="none" 
	d="
M274.926575,301.292969 
	C275.074493,301.087433 275.353760,301.147064 275.768311,301.452148 
	C275.925232,301.596558 275.483032,301.644775 275.483032,301.644775 
	C275.483032,301.644775 275.079620,301.457062 274.926575,301.292969 
z"/>
<path fill="#A56530" opacity="1.000000" stroke="none" 
	d="
M157.225769,253.474121 
	C156.656754,253.089050 156.199142,252.868118 156.200317,252.649643 
	C156.211334,250.573715 156.300247,248.498199 156.366760,246.422577 
	C157.558090,246.823563 159.557419,246.959045 159.792419,247.674255 
	C160.561340,250.014313 161.890488,253.043427 157.225769,253.474121 
z"/>
<path fill="#A56530" opacity="1.000000" stroke="none" 
	d="
M156.087311,230.173920 
	C160.203522,231.574097 159.259918,234.360016 158.173676,236.919220 
	C157.958893,237.425232 156.266846,237.304230 155.256073,237.472397 
	C155.401962,235.060593 155.547852,232.648773 156.087311,230.173920 
z"/>
<path fill="#A56530" opacity="1.000000" stroke="none" 
	d="
M157.744034,199.069855 
	C161.405014,201.112762 158.988235,203.472549 158.564087,205.697144 
	C157.254547,205.418335 155.945023,205.139542 154.635483,204.860733 
	C155.546600,202.907104 156.457718,200.953476 157.744034,199.069855 
z"/>
<path fill="#A56530" opacity="1.000000" stroke="none" 
	d="
M159.979691,183.375580 
	C160.544800,183.963120 161.018967,184.466095 160.923981,184.813446 
	C160.370972,186.835831 159.684372,188.821686 159.042892,190.819870 
	C158.133102,190.316284 156.399750,189.437714 156.433441,189.363708 
	C157.388596,187.265884 158.521759,185.249130 159.979691,183.375580 
z"/>
<path fill="#A4642F" opacity="1.000000" stroke="none" 
	d="
M157.995483,263.475586 
	C159.049530,262.632355 160.053558,262.179413 161.057587,261.726501 
	C161.643219,263.538910 162.391678,265.324707 162.695160,267.183197 
	C162.767197,267.624359 160.869431,268.919098 160.693588,268.781158 
	C159.666397,267.975372 158.779678,266.926361 158.063141,265.818665 
	C157.754715,265.341858 157.968750,264.527069 157.995483,263.475586 
z"/>
<path fill="#A3632E" opacity="1.000000" stroke="none" 
	d="
M153.936386,218.175659 
	C154.781021,216.650452 155.625183,215.538071 156.469330,214.425690 
	C157.003464,215.696777 157.951675,216.967438 157.952927,218.239044 
	C157.954117,219.460876 156.974609,220.683670 156.426056,221.906052 
	C155.596008,220.800201 154.765961,219.694351 153.936386,218.175659 
z"/>
<path fill="#FECC9B" opacity="1.000000" stroke="none" 
	d="
M156.548340,83.120239 
	C163.387131,83.685341 169.976730,83.546127 176.132278,85.112579 
	C184.377655,87.210854 190.706390,92.680992 193.618134,100.833511 
	C196.760605,109.632004 192.751541,118.926331 184.164841,124.902298 
	C172.398529,133.091187 153.552032,133.082962 141.810745,124.883827 
	C127.945061,115.201202 127.871361,98.422745 142.020828,89.132088 
	C146.212433,86.379852 151.383591,85.119469 156.548340,83.120239 
M163.253281,94.902817 
	C161.602341,94.990738 159.888641,94.824295 158.311951,95.213219 
	C153.122040,96.493416 150.416534,101.194641 152.347504,105.269516 
	C153.998276,108.753113 159.584564,110.966141 164.577087,109.810333 
	C168.269653,108.955460 171.754425,107.255821 171.979462,102.905365 
	C172.249664,97.681572 168.390793,95.961372 163.253281,94.902817 
z"/>
<path fill="#4D4946" opacity="1.000000" stroke="none" 
	d="
M187.970398,80.216507 
	C190.685699,76.501160 193.534882,76.084442 196.316925,79.408829 
	C198.672501,82.223625 197.902847,87.289177 195.102539,89.234383 
	C192.267029,91.204041 188.263626,89.616127 187.399872,85.865982 
	C187.020096,84.217155 187.637482,82.338654 187.970398,80.216507 
z"/>
<path fill="#4B4845" opacity="1.000000" stroke="none" 
	d="
M135.027985,89.251953 
	C131.820480,90.777405 128.944839,90.079857 128.160507,87.256767 
	C127.464172,84.750412 127.973244,81.557121 128.991150,79.097878 
	C129.404831,78.098404 133.819336,77.378700 134.257614,78.015495 
	C135.762634,80.202141 136.562317,82.995636 137.096146,85.664764 
	C137.288055,86.624306 135.964508,87.886925 135.027985,89.251953 
z"/>
<path fill="#A4642E" opacity="1.000000" stroke="none" 
	d="
M278.616943,276.048828 
	C282.279541,279.040741 281.707886,281.927277 278.292267,284.882874 
	C275.019806,281.985962 274.552612,278.985596 278.616943,276.048828 
z"/>
<path fill="#A5652F" opacity="1.000000" stroke="none" 
	d="
M290.633606,231.057648 
	C292.780457,235.394241 291.047302,237.851303 286.426331,238.948425 
	C284.818573,234.896149 286.183014,232.248779 290.633606,231.057648 
z"/>
<path fill="#A4642E" opacity="1.000000" stroke="none" 
	d="
M285.615967,241.954971 
	C287.668060,245.310028 287.185425,248.059692 283.325653,249.997864 
	C280.268860,246.592667 281.001251,243.986710 285.615967,241.954971 
z"/>
<path fill="#A4642E" opacity="1.000000" stroke="none" 
	d="
M282.621094,253.026367 
	C284.433472,256.330353 283.902832,259.055420 280.294250,261.061646 
	C277.205536,257.557037 278.006226,254.744827 282.621094,253.026367 
z"/>
<path fill="#A3632D" opacity="1.000000" stroke="none" 
	d="
M279.559143,264.919312 
	C283.326263,267.616333 282.548187,270.225647 279.273376,272.921753 
	C275.607239,270.309021 275.986420,267.620697 279.559143,264.919312 
z"/>
<path fill="#A4632E" opacity="1.000000" stroke="none" 
	d="
M298.697021,222.848663 
	C298.771423,226.874207 296.744965,228.898880 292.453430,228.946136 
	C291.804596,224.434952 293.747864,222.198486 298.697021,222.848663 
z"/>
<path fill="#A2622D" opacity="1.000000" stroke="none" 
	d="
M277.641907,288.128418 
	C281.084656,290.603210 280.773651,293.544708 278.325623,296.816772 
	C274.931152,294.334808 275.198273,291.402679 277.641907,288.128418 
z"/>
<path fill="#A4642E" opacity="1.000000" stroke="none" 
	d="
M38.863029,244.269958 
	C43.472183,245.004639 44.633846,247.486725 42.331081,251.865021 
	C38.255543,250.755905 37.733139,248.016769 38.863029,244.269958 
z"/>
<path fill="#A3632D" opacity="1.000000" stroke="none" 
	d="
M26.007286,225.368744 
	C29.877308,224.670410 33.020454,225.333633 33.072239,230.599030 
	C28.201681,232.627625 27.336180,228.873978 26.007286,225.368744 
z"/>
<path fill="#A3632D" opacity="1.000000" stroke="none" 
	d="
M44.762817,267.167908 
	C49.727673,268.208344 49.746284,271.100952 47.354404,274.884094 
	C42.347996,273.817963 44.121483,270.397583 44.762817,267.167908 
z"/>
<path fill="#A3632D" opacity="1.000000" stroke="none" 
	d="
M49.291824,296.294739 
	C47.764793,296.515961 46.420662,296.388611 45.076530,296.261261 
	C45.712551,294.252960 46.348579,292.244659 46.984612,290.236359 
	C47.956074,291.336243 49.091129,292.339752 49.822567,293.581085 
	C50.137512,294.115570 49.616146,295.142822 49.291824,296.294739 
z"/>
<path fill="#A3632D" opacity="1.000000" stroke="none" 
	d="
M34.000538,233.418854 
	C38.724869,233.338531 39.448498,236.529510 39.127113,240.672485 
	C33.968365,240.930313 34.122551,237.280655 34.000538,233.418854 
z"/>
<path fill="#A2622D" opacity="1.000000" stroke="none" 
	d="
M42.006020,255.479828 
	C46.474373,255.923737 47.658997,258.414673 45.364147,262.943359 
	C40.544041,262.208740 42.396923,258.579987 42.006020,255.479828 
z"/>
<path fill="#A2622C" opacity="1.000000" stroke="none" 
	d="
M46.675041,278.988251 
	C50.624638,280.799011 48.812923,283.653961 48.160843,286.620941 
	C43.108467,285.263428 44.644020,282.191040 46.675041,278.988251 
z"/>
<path fill="#A5652E" opacity="1.000000" stroke="none" 
	d="
M226.382126,36.143097 
	C227.097351,31.175648 229.389725,30.074823 234.025101,32.584145 
	C232.831161,36.642475 230.117126,37.238029 226.382126,36.143097 
z"/>
<path fill="#A4642E" opacity="1.000000" stroke="none" 
	d="
M247.029968,37.525059 
	C251.464966,37.505203 253.735199,39.725628 253.088806,44.639465 
	C248.250183,44.887390 247.357117,41.631931 247.029968,37.525059 
z"/>
<path fill="#A5652F" opacity="1.000000" stroke="none" 
	d="
M252.710449,48.111534 
	C254.006363,49.311012 255.740616,50.723354 255.721420,52.111439 
	C255.703018,53.440720 253.863358,54.744808 252.434570,56.094276 
	C252.157394,53.523655 252.269821,50.918728 252.710449,48.111534 
z"/>
<path fill="#A2622D" opacity="1.000000" stroke="none" 
	d="
M251.592133,59.038261 
	C253.552628,63.842983 249.915604,64.728508 246.417450,65.970154 
	C245.672943,62.073963 247.375320,59.750530 251.592133,59.038261 
z"/>
<path fill="#A4632E" opacity="1.000000" stroke="none" 
	d="
M237.908600,33.290539 
	C241.446777,29.841209 243.632584,31.355864 245.117950,35.577988 
	C241.976685,37.638851 239.712250,36.501808 237.908600,33.290539 
z"/>
<path fill="#A4642E" opacity="1.000000" stroke="none" 
	d="
M242.844681,66.770248 
	C242.529953,70.925369 240.785187,72.201309 237.141296,69.323746 
	C237.627762,65.480293 239.940781,65.623848 242.844681,66.770248 
z"/>
<path fill="#A4642E" opacity="1.000000" stroke="none" 
	d="
M76.616364,47.030769 
	C77.429321,49.752884 77.861122,52.531490 78.145630,55.662849 
	C76.691856,55.121819 74.280975,54.205727 74.298485,53.338688 
	C74.340836,51.242695 75.516457,49.169594 76.616364,47.030769 
z"/>
<path fill="#A4632E" opacity="1.000000" stroke="none" 
	d="
M81.626358,37.006706 
	C83.578735,41.276352 80.778687,43.164387 77.366272,44.937164 
	C75.179840,40.585197 76.943886,38.118507 81.626358,37.006706 
z"/>
<path fill="#A4632E" opacity="1.000000" stroke="none" 
	d="
M103.111473,34.587517 
	C99.716202,36.917316 97.198555,35.570812 95.045822,32.357018 
	C98.773422,28.799236 101.165527,30.630575 103.111473,34.587517 
z"/>
<path fill="#A2622D" opacity="1.000000" stroke="none" 
	d="
M91.839706,31.683369 
	C91.215340,36.560299 88.066895,36.193062 84.347137,35.157570 
	C85.156754,30.907469 88.114731,30.633743 91.839706,31.683369 
z"/>
<path fill="#A2622C" opacity="1.000000" stroke="none" 
	d="
M77.862640,59.296326 
	C81.552284,58.982601 83.341316,60.975361 83.999763,64.633789 
	C80.050636,65.803558 77.853249,63.910400 77.862640,59.296326 
z"/>
<path fill="#4A4947" opacity="1.000000" stroke="none" 
	d="
M163.672531,94.929588 
	C168.390793,95.961372 172.249664,97.681572 171.979462,102.905365 
	C171.754425,107.255821 168.269653,108.955460 164.577087,109.810333 
	C159.584564,110.966141 153.998276,108.753113 152.347504,105.269516 
	C150.416534,101.194641 153.122040,96.493416 158.311951,95.213219 
	C159.888641,94.824295 161.602341,94.990738 163.672531,94.929588 
z"/>
</svg>