<?xml version="1.0" standalone="no"?>
<!DOCTYPE svg PUBLIC "-//W3C//DTD SVG 20010904//EN"
 "http://www.w3.org/TR/2001/REC-SVG-20010904/DTD/svg10.dtd">
<svg version="1.0" xmlns="http://www.w3.org/2000/svg"
 width="512.000000pt" height="512.000000pt" viewBox="0 0 512.000000 512.000000"
 preserveAspectRatio="xMidYMid meet">

<g transform="translate(0.000000,512.000000) scale(0.100000,-0.100000)"
fill="#000000" stroke="none">
<path d="M3525 4271 c-39 -18 -112 -88 -134 -129 -6 -11 -28 -31 -48 -44 -37
-22 -46 -23 -323 -28 -281 -5 -286 -5 -335 -30 -122 -63 -159 -212 -82 -327
45 -67 101 -93 217 -101 l92 -7 50 -93 c27 -51 47 -99 44 -107 -5 -13 -71 -15
-488 -15 -552 0 -520 -5 -596 90 l-45 54 51 11 c185 42 242 273 97 393 -51 42
-96 52 -227 52 -140 0 -184 12 -267 73 -79 58 -152 81 -237 74 -173 -13 -301
-146 -312 -323 -6 -92 15 -157 66 -207 53 -51 97 -67 192 -67 l80 0 62 -82
c90 -122 122 -196 122 -283 0 -78 -18 -128 -82 -228 -41 -65 -26 -62 -167 -32
-107 23 -294 23 -405 0 -159 -32 -329 -111 -455 -213 -74 -59 -92 -91 -73
-129 13 -27 11 -31 -40 -100 -50 -66 -57 -71 -83 -66 -46 9 -73 -17 -112 -110
-65 -155 -82 -242 -81 -417 1 -192 26 -299 109 -465 143 -289 394 -487 710
-561 118 -28 370 -25 478 4 239 65 429 187 573 365 60 75 144 224 172 305 6
19 15 32 19 30 5 -2 22 -10 39 -17 30 -12 35 -22 93 -191 37 -109 61 -196 61
-222 0 -104 79 -196 188 -219 83 -17 307 -8 353 15 140 67 178 236 79 348 -42
49 -91 74 -162 83 l-47 6 -51 154 c-48 143 -50 155 -36 177 48 74 63 212 32
306 l-18 52 122 188 c103 160 120 191 115 216 -3 16 -13 38 -22 48 -19 21 -72
24 -95 6 -14 -11 -87 -120 -192 -286 l-27 -43 -46 28 c-25 14 -71 34 -103 42
l-56 16 209 324 c116 181 211 338 214 356 7 44 -20 101 -59 125 -31 19 -50 20
-349 20 -311 0 -317 0 -349 -22 -22 -16 -111 -144 -278 -403 -268 -416 -275
-430 -233 -498 35 -57 54 -61 284 -65 155 -3 207 -6 203 -15 -3 -7 -15 -38
-28 -69 l-23 -57 -300 -3 -300 -3 -69 -32 c-86 -42 -125 -42 -168 -4 -28 25
-33 36 -33 73 0 39 23 78 259 443 333 513 346 536 368 614 42 153 10 292 -104
454 l-19 27 88 0 88 0 50 -73 c78 -111 128 -161 198 -193 l62 -29 505 0 c278
0 517 3 532 7 35 11 85 53 105 91 27 54 21 115 -20 195 -20 39 -37 73 -37 76
0 4 35 6 78 6 l79 0 431 -815 c238 -448 432 -825 432 -837 0 -39 -27 -68 -63
-68 -18 0 -39 4 -47 10 -8 5 -150 264 -315 577 -249 468 -307 572 -335 591
-29 19 -46 22 -130 22 -84 0 -101 -3 -130 -22 -44 -30 -220 -302 -220 -340 0
-51 59 -83 114 -62 8 3 54 66 102 140 l86 134 47 0 46 0 64 -120 63 -121 -75
-78 c-438 -459 -399 -1151 88 -1556 347 -288 861 -312 1242 -59 561 373 634
1167 150 1631 -180 172 -376 264 -625 293 -102 12 -263 3 -343 -20 -19 -6 -35
-7 -37 -3 -1 5 -87 168 -191 363 l-189 355 47 16 c193 67 354 241 368 399 8
84 -3 125 -45 172 -67 75 -171 99 -257 59z m133 -147 c16 -11 22 -25 22 -52
-1 -88 -93 -205 -206 -262 -65 -34 -67 -34 -262 -42 -108 -5 -255 -8 -325 -6
-127 3 -129 3 -153 31 -29 34 -30 56 -4 90 l20 25 277 4 c303 5 321 8 407 67
24 17 67 60 95 96 56 70 84 81 129 49z m-2273 -148 c19 -8 52 -28 72 -45 21
-17 65 -42 98 -58 54 -25 73 -28 195 -31 168 -4 176 -5 195 -42 21 -40 19 -57
-10 -85 l-24 -25 -366 0 -366 0 -24 25 c-19 18 -25 35 -25 70 0 142 133 242
255 191z m1153 -1045 c-1 -4 -99 -157 -217 -340 -209 -325 -214 -331 -246
-331 -32 0 -35 4 -74 85 -23 47 -71 123 -106 171 -36 47 -65 87 -65 89 0 2 48
78 106 169 l107 166 249 0 c137 0 248 -4 246 -9z m-1468 -525 c0 -3 -39 -65
-86 -138 -110 -168 -124 -198 -124 -273 0 -75 32 -147 85 -194 54 -47 100 -64
175 -65 55 0 77 6 135 34 66 32 78 34 194 38 l124 5 -6 -42 c-14 -107 -121
-263 -227 -331 -124 -80 -301 -104 -442 -60 -262 81 -421 367 -352 634 57 221
260 386 487 395 20 0 37 -1 37 -3z m3168 -27 c351 -116 469 -571 219 -846
-108 -118 -232 -173 -391 -173 -156 0 -262 43 -366 149 -171 172 -209 420 -96
625 17 33 37 61 43 63 6 2 55 -80 108 -182 76 -145 108 -194 142 -224 129
-114 325 -48 363 122 15 70 3 106 -101 303 -52 98 -96 182 -98 187 -6 15 104
0 177 -24z m-1906 -285 c89 -30 149 -114 149 -208 0 -131 -92 -225 -219 -226
-254 -1 -314 350 -75 436 51 18 90 17 145 -2z m147 -636 c17 -50 30 -92 28
-93 -6 -4 -141 -35 -142 -33 -6 8 -56 170 -54 172 5 3 122 44 131 45 3 1 20
-40 37 -91z"/>
</g>
</svg>
